<?xml version="1.0" standalone="no"?>
 <!DOCTYPE svg PUBLIC "-//W3C//DTD SVG 1.1//EN" 
 "http://www.w3.org/Graphics/SVG/1.1/DTD/svg11.dtd"> 
<svg
  xmlns:svg="http://www.w3.org/2000/svg"
  xmlns="http://www.w3.org/2000/svg"
  xmlns:xlink="http://www.w3.org/1999/xlink"
  version="1.1"
  width="29.700220cm" height="21.000720cm" viewBox="0 0 116930 82680">
<title>SVG Picture created as Astrotracker_Mainboard-B_Cu.svg date 2020/09/11 16:13:28 </title>
  <desc>Picture generated by PCBNEW </desc>
<g style="fill:#000000; fill-opacity:1;stroke:#000000; stroke-opacity:1;
stroke-linecap:round; stroke-linejoin:round;"
 transform="translate(0 0) scale(1 1)">
</g>
<g style="fill:#000000; fill-opacity:0.0; 
stroke:#000000; stroke-width:-0.000393701; stroke-opacity:1; 
stroke-linecap:round; stroke-linejoin:round;">
<g >
</g>
<g style="fill:#000000; fill-opacity:0.0; 
stroke:#000000; stroke-width:0; stroke-opacity:1; 
stroke-linecap:round; stroke-linejoin:round;">
</g>
<g style="fill:#000000; fill-opacity:1.0; 
stroke:#000000; stroke-width:0; stroke-opacity:1; 
stroke-linecap:round; stroke-linejoin:round;">
<path style="fill:#000000; fill-opacity:1.0; 
stroke:#000000; stroke-width:0; stroke-opacity:1; 
stroke-linecap:round; stroke-linejoin:round;fill-rule:evenodd;"
d="M 41185,14185
41815,14185
41815,14815
41185,14815
Z" /> 
</g>
<g style="fill:#000000; fill-opacity:1.0; 
stroke:#000000; stroke-width:629.921; stroke-opacity:1; 
stroke-linecap:round; stroke-linejoin:round;">
</g>
<g style="fill:#000000; fill-opacity:0.0; 
stroke:#000000; stroke-width:629.921; stroke-opacity:1; 
stroke-linecap:round; stroke-linejoin:round;">
<path d="M34500 19500
L34500 19500
" />
<path d="M40500 14500
L40500 14500
" />
<path d="M35500 19500
L35500 19500
" />
<path d="M39500 14500
L39500 14500
" />
<path d="M36500 19500
L36500 19500
" />
<path d="M38500 14500
L38500 14500
" />
<path d="M37500 19500
L37500 19500
" />
<path d="M37500 14500
L37500 14500
" />
<path d="M38500 19500
L38500 19500
" />
<path d="M36500 14500
L36500 14500
" />
<path d="M39500 19500
L39500 19500
" />
<path d="M35500 14500
L35500 14500
" />
<path d="M40500 19500
L40500 19500
" />
<path d="M34500 14500
L34500 14500
" />
<path d="M41500 19500
L41500 19500
" />
</g>
<g >
</g>
<g style="fill:#000000; fill-opacity:0.0; 
stroke:#000000; stroke-width:629.921; stroke-opacity:1; 
stroke-linecap:round; stroke-linejoin:round;">
<path d="M55000 19500
L55000 19500
" />
<path d="M48000 14500
L48000 14500
" />
<path d="M54000 19500
L54000 19500
" />
<path d="M49000 14500
L49000 14500
" />
<path d="M53000 19500
L53000 19500
" />
<path d="M50000 14500
L50000 14500
" />
<path d="M52000 19500
L52000 19500
" />
<path d="M51000 14500
L51000 14500
" />
<path d="M51000 19500
L51000 19500
" />
<path d="M52000 14500
L52000 14500
" />
<path d="M50000 19500
L50000 19500
" />
<path d="M53000 14500
L53000 14500
" />
<path d="M49000 19500
L49000 19500
" />
<path d="M54000 14500
L54000 14500
" />
<path d="M48000 19500
L48000 19500
" />
</g>
<g style="fill:#000000; fill-opacity:0.0; 
stroke:#000000; stroke-width:0; stroke-opacity:1; 
stroke-linecap:round; stroke-linejoin:round;">
</g>
<g style="fill:#000000; fill-opacity:1.0; 
stroke:#000000; stroke-width:0; stroke-opacity:1; 
stroke-linecap:round; stroke-linejoin:round;">
<path style="fill:#000000; fill-opacity:1.0; 
stroke:#000000; stroke-width:0; stroke-opacity:1; 
stroke-linecap:round; stroke-linejoin:round;fill-rule:evenodd;"
d="M 54685,14185
55315,14185
55315,14815
54685,14815
Z" /> 
</g>
<g >
</g>
<g style="fill:#000000; fill-opacity:1.0; 
stroke:#000000; stroke-width:0; stroke-opacity:1; 
stroke-linecap:round; stroke-linejoin:round;">
<circle cx="25000" cy="28500" r="300" /> 
</g>
<g style="fill:#000000; fill-opacity:1.0; 
stroke:#000000; stroke-width:39.3701; stroke-opacity:1; 
stroke-linecap:round; stroke-linejoin:round;">
</g>
<g style="fill:#000000; fill-opacity:1.0; 
stroke:#000000; stroke-width:0; stroke-opacity:1; 
stroke-linecap:round; stroke-linejoin:round;">
<circle cx="30000" cy="28500" r="300" /> 
</g>
<g style="fill:#000000; fill-opacity:1.0; 
stroke:#000000; stroke-width:39.3701; stroke-opacity:1; 
stroke-linecap:round; stroke-linejoin:round;">
</g>
<g style="fill:#000000; fill-opacity:1.0; 
stroke:#000000; stroke-width:0; stroke-opacity:1; 
stroke-linecap:round; stroke-linejoin:round;">
<circle cx="26000" cy="28500" r="300" /> 
</g>
<g style="fill:#000000; fill-opacity:1.0; 
stroke:#000000; stroke-width:39.3701; stroke-opacity:1; 
stroke-linecap:round; stroke-linejoin:round;">
</g>
<g style="fill:#000000; fill-opacity:1.0; 
stroke:#000000; stroke-width:0; stroke-opacity:1; 
stroke-linecap:round; stroke-linejoin:round;">
<circle cx="29000" cy="28500" r="300" /> 
</g>
<g style="fill:#000000; fill-opacity:1.0; 
stroke:#000000; stroke-width:39.3701; stroke-opacity:1; 
stroke-linecap:round; stroke-linejoin:round;">
</g>
<g style="fill:#000000; fill-opacity:1.0; 
stroke:#000000; stroke-width:0; stroke-opacity:1; 
stroke-linecap:round; stroke-linejoin:round;">
<path style="fill:#000000; fill-opacity:1.0; 
stroke:#000000; stroke-width:0; stroke-opacity:1; 
stroke-linecap:round; stroke-linejoin:round;fill-rule:evenodd;"
d="M 27300,28200
27300,28800
26700,28800
26700,28200
Z" /> 
<circle cx="28000" cy="28500" r="300" /> 
</g>
<g style="fill:#000000; fill-opacity:1.0; 
stroke:#000000; stroke-width:39.3701; stroke-opacity:1; 
stroke-linecap:round; stroke-linejoin:round;">
</g>
<g >
</g>
<g style="fill:#000000; fill-opacity:1.0; 
stroke:#000000; stroke-width:39.3701; stroke-opacity:1; 
stroke-linecap:round; stroke-linejoin:round;">
</g>
<g style="fill:#000000; fill-opacity:1.0; 
stroke:#000000; stroke-width:0; stroke-opacity:1; 
stroke-linecap:round; stroke-linejoin:round;">
<path style="fill:#000000; fill-opacity:1.0; 
stroke:#000000; stroke-width:0; stroke-opacity:1; 
stroke-linecap:round; stroke-linejoin:round;fill-rule:evenodd;"
d="M 48185,23185
48815,23185
48815,23815
48185,23815
Z" /> 
</g>
<g style="fill:#000000; fill-opacity:1.0; 
stroke:#000000; stroke-width:629.921; stroke-opacity:1; 
stroke-linecap:round; stroke-linejoin:round;">
</g>
<g style="fill:#000000; fill-opacity:0.0; 
stroke:#000000; stroke-width:629.921; stroke-opacity:1; 
stroke-linecap:round; stroke-linejoin:round;">
<path d="M35500 29500
L35500 29500
" />
<path d="M47500 23500
L47500 23500
" />
<path d="M36500 29500
L36500 29500
" />
<path d="M46500 23500
L46500 23500
" />
<path d="M37500 29500
L37500 29500
" />
<path d="M45500 23500
L45500 23500
" />
<path d="M38500 29500
L38500 29500
" />
<path d="M44500 23500
L44500 23500
" />
<path d="M39500 29500
L39500 29500
" />
<path d="M43500 23500
L43500 23500
" />
<path d="M40500 29500
L40500 29500
" />
<path d="M42500 23500
L42500 23500
" />
<path d="M41500 29500
L41500 29500
" />
<path d="M41500 23500
L41500 23500
" />
<path d="M42500 29500
L42500 29500
" />
<path d="M40500 23500
L40500 23500
" />
<path d="M43500 29500
L43500 29500
" />
<path d="M39500 23500
L39500 23500
" />
<path d="M44500 29500
L44500 29500
" />
<path d="M38500 23500
L38500 23500
" />
<path d="M45500 29500
L45500 29500
" />
<path d="M37500 23500
L37500 23500
" />
<path d="M46500 29500
L46500 29500
" />
<path d="M36500 23500
L36500 23500
" />
<path d="M47500 29500
L47500 29500
" />
<path d="M35500 23500
L35500 23500
" />
<path d="M48500 29500
L48500 29500
" />
<path d="M34500 23500
L34500 23500
" />
<path d="M34500 29500
L34500 29500
" />
</g>
<g >
</g>
<g style="fill:#000000; fill-opacity:0.0; 
stroke:#000000; stroke-width:629.921; stroke-opacity:1; 
stroke-linecap:round; stroke-linejoin:round;">
</g>
<g style="fill:#000000; fill-opacity:0.0; 
stroke:#000000; stroke-width:0; stroke-opacity:1; 
stroke-linecap:round; stroke-linejoin:round;">
</g>
<g style="fill:#000000; fill-opacity:1.0; 
stroke:#000000; stroke-width:0; stroke-opacity:1; 
stroke-linecap:round; stroke-linejoin:round;">
<path style="fill:#000000; fill-opacity:1.0; 
stroke:#000000; stroke-width:0; stroke-opacity:1; 
stroke-linecap:round; stroke-linejoin:round;fill-rule:evenodd;"
d="M 52815,26815
52185,26815
52185,26185
52815,26185
Z" /> 
<circle cx="52500" cy="25712.6" r="314.961" /> 
</g>
<g style="fill:#000000; fill-opacity:1.0; 
stroke:#000000; stroke-width:39.3701; stroke-opacity:1; 
stroke-linecap:round; stroke-linejoin:round;">
</g>
<g >
</g>
<g style="fill:#000000; fill-opacity:1.0; 
stroke:#000000; stroke-width:39.3701; stroke-opacity:1; 
stroke-linecap:round; stroke-linejoin:round;">
</g>
<g style="fill:#000000; fill-opacity:1.0; 
stroke:#000000; stroke-width:0; stroke-opacity:1; 
stroke-linecap:round; stroke-linejoin:round;">
<circle cx="56000" cy="22212.6" r="314.961" /> 
</g>
<g style="fill:#000000; fill-opacity:1.0; 
stroke:#000000; stroke-width:39.3701; stroke-opacity:1; 
stroke-linecap:round; stroke-linejoin:round;">
</g>
<g style="fill:#000000; fill-opacity:1.0; 
stroke:#000000; stroke-width:0; stroke-opacity:1; 
stroke-linecap:round; stroke-linejoin:round;">
<path style="fill:#000000; fill-opacity:1.0; 
stroke:#000000; stroke-width:0; stroke-opacity:1; 
stroke-linecap:round; stroke-linejoin:round;fill-rule:evenodd;"
d="M 56315,23315
55685,23315
55685,22685
56315,22685
Z" /> 
</g>
<g >
</g>
<g style="fill:#000000; fill-opacity:1.0; 
stroke:#000000; stroke-width:0; stroke-opacity:1; 
stroke-linecap:round; stroke-linejoin:round;">
<path style="fill:#000000; fill-opacity:1.0; 
stroke:#000000; stroke-width:0; stroke-opacity:1; 
stroke-linecap:round; stroke-linejoin:round;fill-rule:evenodd;"
d="M 32315,14315
31685,14315
31685,13685
32315,13685
Z" /> 
<circle cx="32000" cy="13212.6" r="314.961" /> 
</g>
<g style="fill:#000000; fill-opacity:1.0; 
stroke:#000000; stroke-width:39.3701; stroke-opacity:1; 
stroke-linecap:round; stroke-linejoin:round;">
</g>
<g >
</g>
<g style="fill:#000000; fill-opacity:1.0; 
stroke:#000000; stroke-width:39.3701; stroke-opacity:1; 
stroke-linecap:round; stroke-linejoin:round;">
</g>
<g style="fill:#000000; fill-opacity:1.0; 
stroke:#000000; stroke-width:0; stroke-opacity:1; 
stroke-linecap:round; stroke-linejoin:round;">
<circle cx="45500" cy="13212.6" r="314.961" /> 
</g>
<g style="fill:#000000; fill-opacity:1.0; 
stroke:#000000; stroke-width:39.3701; stroke-opacity:1; 
stroke-linecap:round; stroke-linejoin:round;">
</g>
<g style="fill:#000000; fill-opacity:1.0; 
stroke:#000000; stroke-width:0; stroke-opacity:1; 
stroke-linecap:round; stroke-linejoin:round;">
<path style="fill:#000000; fill-opacity:1.0; 
stroke:#000000; stroke-width:0; stroke-opacity:1; 
stroke-linecap:round; stroke-linejoin:round;fill-rule:evenodd;"
d="M 45815,14315
45185,14315
45185,13685
45815,13685
Z" /> 
</g>
<g >
</g>
<g style="fill:#000000; fill-opacity:1.0; 
stroke:#000000; stroke-width:0; stroke-opacity:1; 
stroke-linecap:round; stroke-linejoin:round;">
<path style="fill:#000000; fill-opacity:1.0; 
stroke:#000000; stroke-width:0; stroke-opacity:1; 
stroke-linecap:round; stroke-linejoin:round;fill-rule:evenodd;"
d="M 36834.6,12834.6
36165.4,12834.6
36165.4,12165.4
36834.6,12165.4
Z" /> 
</g>
<g style="fill:#000000; fill-opacity:1.0; 
stroke:#000000; stroke-width:669.291; stroke-opacity:1; 
stroke-linecap:round; stroke-linejoin:round;">
</g>
<g style="fill:#000000; fill-opacity:0.0; 
stroke:#000000; stroke-width:669.291; stroke-opacity:1; 
stroke-linecap:round; stroke-linejoin:round;">
<path d="M37500 12500
L37500 12500
" />
<path d="M38500 12500
L38500 12500
" />
<path d="M39500 12500
L39500 12500
" />
</g>
<g >
</g>
<g style="fill:#000000; fill-opacity:0.0; 
stroke:#000000; stroke-width:669.291; stroke-opacity:1; 
stroke-linecap:round; stroke-linejoin:round;">
<path d="M53000 12500
L53000 12500
" />
<path d="M52000 12500
L52000 12500
" />
<path d="M51000 12500
L51000 12500
" />
</g>
<g style="fill:#000000; fill-opacity:0.0; 
stroke:#000000; stroke-width:0; stroke-opacity:1; 
stroke-linecap:round; stroke-linejoin:round;">
</g>
<g style="fill:#000000; fill-opacity:1.0; 
stroke:#000000; stroke-width:0; stroke-opacity:1; 
stroke-linecap:round; stroke-linejoin:round;">
<path style="fill:#000000; fill-opacity:1.0; 
stroke:#000000; stroke-width:0; stroke-opacity:1; 
stroke-linecap:round; stroke-linejoin:round;fill-rule:evenodd;"
d="M 50334.6,12834.6
49665.4,12834.6
49665.4,12165.4
50334.6,12165.4
Z" /> 
</g>
<g >
</g>
<g >
</g>
<g >
</g>
<g >
</g>
<g >
</g>
<g >
</g>
<g style="fill:#000000; fill-opacity:1.0; 
stroke:#000000; stroke-width:0; stroke-opacity:1; 
stroke-linecap:round; stroke-linejoin:round;">
<path style="fill:#000000; fill-opacity:1.0; 
stroke:#000000; stroke-width:0; stroke-opacity:1; 
stroke-linecap:round; stroke-linejoin:round;fill-rule:evenodd;"
d="M 52364,30047.7
52373.5,30049.1
52382.9,30051.5
52392,30054.7
52400.7,30058.9
52409,30063.8
52416.8,30069.6
52423.9,30076.1
52430.4,30083.2
52436.2,30091
52441.1,30099.3
52445.3,30108
52448.5,30117.1
52450.9,30126.5
52452.3,30136
52452.8,30145.7
52452.8,30854.3
52452.3,30864
52450.9,30873.5
52448.5,30882.9
52445.3,30892
52441.1,30900.7
52436.2,30909
52430.4,30916.8
52423.9,30923.9
52416.8,30930.4
52409,30936.2
52400.7,30941.1
52392,30945.3
52382.9,30948.5
52373.5,30950.9
52364,30952.3
52354.3,30952.8
51645.7,30952.8
51636,30952.3
51626.5,30950.9
51617.1,30948.5
51608,30945.3
51599.3,30941.1
51591,30936.2
51583.2,30930.4
51576.1,30923.9
51569.6,30916.8
51563.8,30909
51558.9,30900.7
51554.7,30892
51551.5,30882.9
51549.1,30873.5
51547.7,30864
51547.2,30854.3
51547.2,30145.7
51547.7,30136
51549.1,30126.5
51551.5,30117.1
51554.7,30108
51558.9,30099.3
51563.8,30091
51569.6,30083.2
51576.1,30076.1
51583.2,30069.6
51591,30063.8
51599.3,30058.9
51608,30054.7
51617.1,30051.5
51626.5,30049.1
51636,30047.7
51645.7,30047.2
52354.3,30047.2
Z" /> 
<circle cx="52000" cy="28610.2" r="452.756" /> 
</g>
<g style="fill:#000000; fill-opacity:1.0; 
stroke:#000000; stroke-width:39.3701; stroke-opacity:1; 
stroke-linecap:round; stroke-linejoin:round;">
</g>
<g >
</g>
<g style="fill:#000000; fill-opacity:1.0; 
stroke:#000000; stroke-width:39.3701; stroke-opacity:1; 
stroke-linecap:round; stroke-linejoin:round;">
</g>
<g style="fill:#000000; fill-opacity:1.0; 
stroke:#000000; stroke-width:0; stroke-opacity:1; 
stroke-linecap:round; stroke-linejoin:round;">
<circle cx="46900" cy="18300" r="118.11" /> 
</g>
<g style="fill:#000000; fill-opacity:1.0; 
stroke:#000000; stroke-width:39.3701; stroke-opacity:1; 
stroke-linecap:round; stroke-linejoin:round;">
</g>
<g style="fill:#000000; fill-opacity:1.0; 
stroke:#000000; stroke-width:0; stroke-opacity:1; 
stroke-linecap:round; stroke-linejoin:round;">
<circle cx="49000" cy="18800" r="118.11" /> 
</g>
<g style="fill:#000000; fill-opacity:1.0; 
stroke:#000000; stroke-width:39.3701; stroke-opacity:1; 
stroke-linecap:round; stroke-linejoin:round;">
</g>
<g >
</g>
<g style="fill:#000000; fill-opacity:1.0; 
stroke:#000000; stroke-width:39.3701; stroke-opacity:1; 
stroke-linecap:round; stroke-linejoin:round;">
</g>
<g style="fill:#000000; fill-opacity:1.0; 
stroke:#000000; stroke-width:50; stroke-opacity:1; 
stroke-linecap:round; stroke-linejoin:round;">
</g>
<g style="fill:#000000; fill-opacity:0.0; 
stroke:#000000; stroke-width:50; stroke-opacity:1; 
stroke-linecap:round; stroke-linejoin:round;">
<path d="M47800 18300
L49000 19500
" />
<path d="M46900 18300
L47800 18300
" />
</g>
<g style="fill:#000000; fill-opacity:0.0; 
stroke:#000000; stroke-width:300; stroke-opacity:1; 
stroke-linecap:round; stroke-linejoin:round;">
<path d="M39500 12500
L39500 14500
" />
<path d="M38500 14500
L38500 12500
" />
</g>
<g style="fill:#000000; fill-opacity:0.0; 
stroke:#000000; stroke-width:50; stroke-opacity:1; 
stroke-linecap:round; stroke-linejoin:round;">
<path d="M50300 18800
L51000 19500
" />
<path d="M49000 18800
L50300 18800
" />
</g>
<g style="fill:#000000; fill-opacity:0.0; 
stroke:#000000; stroke-width:300; stroke-opacity:1; 
stroke-linecap:round; stroke-linejoin:round;">
<path d="M37500 14500
L37500 12500
" />
</g>
<g style="fill:#000000; fill-opacity:0.0; 
stroke:#000000; stroke-width:50; stroke-opacity:1; 
stroke-linecap:round; stroke-linejoin:round;">
<path d="M38500 19500
L39500 19500
" />
</g>
<g style="fill:#000000; fill-opacity:0.0; 
stroke:#000000; stroke-width:300; stroke-opacity:1; 
stroke-linecap:round; stroke-linejoin:round;">
<path d="M36500 14500
L36500 12500
" />
</g>
<g style="fill:#000000; fill-opacity:0.0; 
stroke:#000000; stroke-width:50; stroke-opacity:1; 
stroke-linecap:round; stroke-linejoin:round;">
<path d="M39500 23500
L39500 22000
" />
<path d="M40500 21000
L40500 19500
" />
<path d="M39500 22000
L40500 21000
" />
</g>
<g style="fill:#000000; fill-opacity:0.0; 
stroke:#000000; stroke-width:550; stroke-opacity:1; 
stroke-linecap:round; stroke-linejoin:round;">
<path d="M50900 27510
L50900 22200
" />
<path d="M52000 28610
L50900 27510
" />
<path d="M50900 22200
L50300 21600
" />
<path d="M47700 21600
L44800 18700
" />
<path d="M44800 14700
L45500 14000
" />
<path d="M50300 21600
L47700 21600
" />
<path d="M47500 14000
L48000 14500
" />
<path d="M45500 14000
L47500 14000
" />
<path d="M37400 17400
L34500 14500
" />
<path d="M32500 14500
L32000 14000
" />
<path d="M34500 14500
L32500 14500
" />
<path d="M44400 17400
L44800 17000
" />
<path d="M44400 17400
L37400 17400
" />
<path d="M44800 17000
L44800 14700
" />
<path d="M44800 17400
L44800 17000
" />
<path d="M44800 17400
L44400 17400
" />
<path d="M44400 17400
L44800 17800
" />
<path d="M44800 18700
L44800 17800
" />
<path d="M44800 17800
L44800 17400
" />
</g>
<g style="fill:#000000; fill-opacity:0.0; 
stroke:#000000; stroke-width:50; stroke-opacity:1; 
stroke-linecap:round; stroke-linejoin:round;">
<path d="M40500 23500
L40500 22000
" />
<path d="M41500 21000
L41500 19500
" />
<path d="M40500 22000
L41500 21000
" />
<path d="M52000 19500
L53000 19500
" />
</g>
<g style="fill:#000000; fill-opacity:0.0; 
stroke:#000000; stroke-width:300; stroke-opacity:1; 
stroke-linecap:round; stroke-linejoin:round;">
<path d="M50000 14500
L50000 12500
" />
<path d="M51000 14500
L51000 12500
" />
<path d="M52000 14500
L52000 12500
" />
<path d="M53000 14500
L53000 12500
" />
</g>
<g style="fill:#000000; fill-opacity:0.0; 
stroke:#000000; stroke-width:50; stroke-opacity:1; 
stroke-linecap:round; stroke-linejoin:round;">
<path d="M32000 26500
L30000 28500
" />
<path d="M44500 23500
L41500 26500
" />
<path d="M41500 26500
L32000 26500
" />
</g>
<g >
</g>
<g style="fill:#000000; fill-opacity:0.0; 
stroke:#000000; stroke-width:50; stroke-opacity:1; 
stroke-linecap:round; stroke-linejoin:round;">
</g>
<g style="fill:#000000; fill-opacity:1.0; 
stroke:#000000; stroke-width:100; stroke-opacity:1; 
stroke-linecap:round; stroke-linejoin:round;">
<path style="fill:#000000; fill-opacity:1.0; 
stroke:#000000; stroke-width:100; stroke-opacity:1; 
stroke-linecap:round; stroke-linejoin:round;fill-rule:evenodd;"
d="M 58740.2,31740.2
23759.8,31740.2
23759.8,30417.2
24159.4,30417.2
24159.4,30582.8
24191.8,30745.2
24255.1,30898.2
24347.1,31035.8
24464.2,31152.9
24601.8,31244.9
24754.8,31308.2
24917.2,31340.6
25082.8,31340.6
25245.2,31308.2
25398.2,31244.9
25535.8,31152.9
25652.9,31035.8
25708.4,30952.8
51296,30952.8
51300.9,31001.8
51315.2,31048.9
51338.4,31092.3
51369.6,31130.4
51407.7,31161.6
51451.1,31184.8
51498.2,31199.1
51547.2,31204
51887.5,31202.8
51950,31140.3
51950,30550
52050,30550
52050,31140.3
52112.5,31202.8
52452.8,31204
52501.8,31199.1
52548.9,31184.8
52592.3,31161.6
52630.4,31130.4
52661.6,31092.3
52684.8,31048.9
52699.1,31001.8
52704,30952.8
52702.8,30612.5
52640.3,30550
52050,30550
51950,30550
51359.7,30550
51297.2,30612.5
51296,30952.8
25708.4,30952.8
25744.9,30898.2
25808.2,30745.2
25840.6,30582.8
25840.6,30417.2
25808.2,30254.8
25744.9,30101.8
25652.9,29964.2
25535.8,29847.1
25398.2,29755.1
25245.2,29691.8
25082.8,29659.4
24917.2,29659.4
24754.8,29691.8
24601.8,29755.1
24464.2,29847.1
24347.1,29964.2
24255.1,30101.8
24191.8,30254.8
24159.4,30417.2
23759.8,30417.2
23759.8,29444.4
33935,29444.4
33935,29555.6
33956.8,29664.8
33999.3,29767.6
34061.2,29860.1
34139.9,29938.8
34232.4,30000.7
34335.2,30043.2
34444.4,30065
34555.6,30065
34664.8,30043.2
34767.6,30000.7
34860.1,29938.8
34938.8,29860.1
35000,29768.6
35061.2,29860.1
35139.9,29938.8
35232.4,30000.7
35335.2,30043.2
35444.4,30065
35555.6,30065
35664.8,30043.2
35767.6,30000.7
35860.1,29938.8
35938.8,29860.1
36000,29768.6
36061.2,29860.1
36139.9,29938.8
36232.4,30000.7
36335.2,30043.2
36444.4,30065
36555.6,30065
36664.8,30043.2
36767.6,30000.7
36860.1,29938.8
36938.8,29860.1
37000,29768.6
37061.2,29860.1
37139.9,29938.8
37232.4,30000.7
37335.2,30043.2
37444.4,30065
37555.6,30065
37664.8,30043.2
37767.6,30000.7
37860.1,29938.8
37938.8,29860.1
38000,29768.6
38061.2,29860.1
38139.9,29938.8
38232.4,30000.7
38335.2,30043.2
38444.4,30065
38555.6,30065
38664.8,30043.2
38767.6,30000.7
38860.1,29938.8
38938.8,29860.1
39000,29768.6
39061.2,29860.1
39139.9,29938.8
39232.4,30000.7
39335.2,30043.2
39444.4,30065
39555.6,30065
39664.8,30043.2
39767.6,30000.7
39860.1,29938.8
39938.8,29860.1
40000,29768.6
40061.2,29860.1
40139.9,29938.8
40232.4,30000.7
40335.2,30043.2
40444.4,30065
40555.6,30065
40664.8,30043.2
40767.6,30000.7
40860.1,29938.8
40938.8,29860.1
41000,29768.6
41061.2,29860.1
41139.9,29938.8
41232.4,30000.7
41335.2,30043.2
41444.4,30065
41555.6,30065
41664.8,30043.2
41767.6,30000.7
41860.1,29938.8
41938.8,29860.1
42000,29768.6
42061.2,29860.1
42139.9,29938.8
42232.4,30000.7
42335.2,30043.2
42444.4,30065
42555.6,30065
42664.8,30043.2
42767.6,30000.7
42860.1,29938.8
42938.8,29860.1
43000,29768.6
43061.2,29860.1
43139.9,29938.8
43232.4,30000.7
43335.2,30043.2
43444.4,30065
43555.6,30065
43664.8,30043.2
43767.6,30000.7
43860.1,29938.8
43938.8,29860.1
44000,29768.6
44061.2,29860.1
44139.9,29938.8
44232.4,30000.7
44335.2,30043.2
44444.4,30065
44555.6,30065
44664.8,30043.2
44767.6,30000.7
44860.1,29938.8
44938.8,29860.1
45000,29768.6
45061.2,29860.1
45139.9,29938.8
45232.4,30000.7
45335.2,30043.2
45444.4,30065
45555.6,30065
45664.8,30043.2
45767.6,30000.7
45860.1,29938.8
45938.8,29860.1
46000,29768.6
46061.2,29860.1
46139.9,29938.8
46232.4,30000.7
46335.2,30043.2
46444.4,30065
46555.6,30065
46664.8,30043.2
46767.6,30000.7
46860.1,29938.8
46938.8,29860.1
47000.7,29767.6
47002.4,29763.4
47046.3,29836.7
47120.7,29918.7
47209.7,29984.7
47309.8,30032
47362.6,30048
47450,30000
47450,29550
47442.1,29550
47442.1,29450
47450,29450
47450,29000
47550,29000
47550,29450
47557.9,29450
47557.9,29550
47550,29550
47550,30000
47637.4,30048
47690.2,30032
47790.3,29984.7
47879.3,29918.7
47953.7,29836.7
47997.6,29763.4
47999.3,29767.6
48061.2,29860.1
48139.9,29938.8
48232.4,30000.7
48335.2,30043.2
48444.4,30065
48555.6,30065
48644.7,30047.2
51296,30047.2
51297.2,30387.5
51359.7,30450
51950,30450
51950,29859.7
52050,29859.7
52050,30450
52640.3,30450
52669.2,30421.1
56631.9,30421.1
56631.9,30578.9
56662.7,30733.7
56723.1,30879.5
56810.8,31010.7
56922.3,31122.3
57053.6,31210
57199.4,31270.4
57354.2,31301.2
57512,31301.2
57666.8,31270.4
57812.6,31210
57943.8,31122.3
58055.4,31010.7
58143.1,30879.5
58203.5,30733.7
58234.3,30578.9
58234.3,30421.1
58203.5,30266.3
58143.1,30120.5
58055.4,29989.3
57943.8,29877.7
57812.6,29790
57666.8,29729.6
57512,29698.8
57354.2,29698.8
57199.4,29729.6
57053.6,29790
56922.3,29877.7
56810.8,29989.3
56723.1,30120.5
56662.7,30266.3
56631.9,30421.1
52669.2,30421.1
52702.8,30387.5
52704,30047.2
52699.1,29998.2
52684.8,29951.1
52661.6,29907.7
52630.4,29869.6
52592.3,29838.4
52548.9,29815.2
52501.8,29800.9
52452.8,29796
52112.5,29797.2
52050,29859.7
51950,29859.7
51887.5,29797.2
51547.2,29796
51498.2,29800.9
51451.1,29815.2
51407.7,29838.4
51369.6,29869.6
51338.4,29907.7
51315.2,29951.1
51300.9,29998.2
51296,30047.2
48644.7,30047.2
48664.8,30043.2
48767.6,30000.7
48860.1,29938.8
48938.8,29860.1
49000.7,29767.6
49043.2,29664.8
49065,29555.6
49065,29444.4
49043.2,29335.2
49000.7,29232.4
48938.8,29139.9
48860.1,29061.2
48767.6,28999.3
48664.8,28956.8
48555.6,28935
48444.4,28935
48335.2,28956.8
48232.4,28999.3
48139.9,29061.2
48061.2,29139.9
47999.3,29232.4
47997.6,29236.6
47953.7,29163.3
47879.3,29081.3
47790.3,29015.3
47690.2,28968
47637.4,28952
47550,29000
47450,29000
47362.6,28952
47309.8,28968
47209.7,29015.3
47120.7,29081.3
47046.3,29163.3
47002.4,29236.6
47000.7,29232.4
46938.8,29139.9
46860.1,29061.2
46767.6,28999.3
46664.8,28956.8
46555.6,28935
46444.4,28935
46335.2,28956.8
46232.4,28999.3
46139.9,29061.2
46061.2,29139.9
46000,29231.4
45938.8,29139.9
45860.1,29061.2
45767.6,28999.3
45664.8,28956.8
45555.6,28935
45444.4,28935
45335.2,28956.8
45232.4,28999.3
45139.9,29061.2
45061.2,29139.9
45000,29231.4
44938.8,29139.9
44860.1,29061.2
44767.6,28999.3
44664.8,28956.8
44555.6,28935
44444.4,28935
44335.2,28956.8
44232.4,28999.3
44139.9,29061.2
44061.2,29139.9
44000,29231.4
43938.8,29139.9
43860.1,29061.2
43767.6,28999.3
43664.8,28956.8
43555.6,28935
43444.4,28935
43335.2,28956.8
43232.4,28999.3
43139.9,29061.2
43061.2,29139.9
43000,29231.4
42938.8,29139.9
42860.1,29061.2
42767.6,28999.3
42664.8,28956.8
42555.6,28935
42444.4,28935
42335.2,28956.8
42232.4,28999.3
42139.9,29061.2
42061.2,29139.9
42000,29231.4
41938.8,29139.9
41860.1,29061.2
41767.6,28999.3
41664.8,28956.8
41555.6,28935
41444.4,28935
41335.2,28956.8
41232.4,28999.3
41139.9,29061.2
41061.2,29139.9
41000,29231.4
40938.8,29139.9
40860.1,29061.2
40767.6,28999.3
40664.8,28956.8
40555.6,28935
40444.4,28935
40335.2,28956.8
40232.4,28999.3
40139.9,29061.2
40061.2,29139.9
40000,29231.4
39938.8,29139.9
39860.1,29061.2
39767.6,28999.3
39664.8,28956.8
39555.6,28935
39444.4,28935
39335.2,28956.8
39232.4,28999.3
39139.9,29061.2
39061.2,29139.9
39000,29231.4
38938.8,29139.9
38860.1,29061.2
38767.6,28999.3
38664.8,28956.8
38555.6,28935
38444.4,28935
38335.2,28956.8
38232.4,28999.3
38139.9,29061.2
38061.2,29139.9
38000,29231.4
37938.8,29139.9
37860.1,29061.2
37767.6,28999.3
37664.8,28956.8
37555.6,28935
37444.4,28935
37335.2,28956.8
37232.4,28999.3
37139.9,29061.2
37061.2,29139.9
37000,29231.4
36938.8,29139.9
36860.1,29061.2
36767.6,28999.3
36664.8,28956.8
36555.6,28935
36444.4,28935
36335.2,28956.8
36232.4,28999.3
36139.9,29061.2
36061.2,29139.9
36000,29231.4
35938.8,29139.9
35860.1,29061.2
35767.6,28999.3
35664.8,28956.8
35555.6,28935
35444.4,28935
35335.2,28956.8
35232.4,28999.3
35139.9,29061.2
35061.2,29139.9
35000,29231.4
34938.8,29139.9
34860.1,29061.2
34767.6,28999.3
34664.8,28956.8
34555.6,28935
34444.4,28935
34335.2,28956.8
34232.4,28999.3
34139.9,29061.2
34061.2,29139.9
33999.3,29232.4
33956.8,29335.2
33935,29444.4
23759.8,29444.4
23759.8,28445.8
24450,28445.8
24450,28554.2
24471.1,28660.4
24512.6,28760.5
24572.8,28850.6
24649.4,28927.2
24739.5,28987.4
24839.6,29028.9
24945.8,29050
25054.2,29050
25160.4,29028.9
25260.5,28987.4
25350.6,28927.2
25427.2,28850.6
25487.4,28760.5
25500,28730.1
25512.6,28760.5
25572.8,28850.6
25649.4,28927.2
25739.5,28987.4
25839.6,29028.9
25945.8,29050
26054.2,29050
26160.4,29028.9
26260.5,28987.4
26350.6,28927.2
26427.2,28850.6
26450.4,28816
26453.6,28849
26467.9,28896.1
26491.1,28939.6
26522.4,28977.6
26560.4,29008.9
26603.9,29032.1
26651,29046.4
26700,29051.2
26887.5,29050
26950,28987.5
26950,28550
26942.1,28550
26942.1,28450
26950,28450
26950,28012.5
27050,28012.5
27050,28450
27057.9,28450
27057.9,28550
27050,28550
27050,28987.5
27112.5,29050
27300,29051.2
27349,29046.4
27396.1,29032.1
27439.6,29008.9
27477.6,28977.6
27508.9,28939.6
27532.1,28896.1
27546.4,28849
27549.6,28816
27572.8,28850.6
27649.4,28927.2
27739.5,28987.4
27839.6,29028.9
27945.8,29050
28054.2,29050
28160.4,29028.9
28260.5,28987.4
28350.6,28927.2
28427.2,28850.6
28487.4,28760.5
28500,28730.1
28512.6,28760.5
28572.8,28850.6
28649.4,28927.2
28739.5,28987.4
28839.6,29028.9
28945.8,29050
29054.2,29050
29160.4,29028.9
29260.5,28987.4
29350.6,28927.2
29427.2,28850.6
29487.4,28760.5
29500,28730.1
29512.6,28760.5
29572.8,28850.6
29649.4,28927.2
29739.5,28987.4
29839.6,29028.9
29945.8,29050
30054.2,29050
30160.4,29028.9
30260.5,28987.4
30350.6,28927.2
30427.2,28850.6
30487.4,28760.5
30528.9,28660.4
30550,28554.2
30550,28445.8
30532.3,28356.6
31971.7,26917.2
46659.4,26917.2
46659.4,27082.8
46691.8,27245.2
46755.1,27398.2
46847.1,27535.8
46964.2,27652.9
47101.8,27744.9
47254.8,27808.2
47417.2,27840.6
47582.8,27840.6
47745.2,27808.2
47898.2,27744.9
48035.8,27652.9
48152.9,27535.8
48244.9,27398.2
48308.2,27245.2
48340.6,27082.8
48340.6,26917.2
48308.2,26754.8
48244.9,26601.8
48152.9,26464.2
48035.8,26347.1
47898.2,26255.1
47745.2,26191.8
47582.8,26159.4
47417.2,26159.4
47254.8,26191.8
47101.8,26255.1
46964.2,26347.1
46847.1,26464.2
46755.1,26601.8
46691.8,26754.8
46659.4,26917.2
31971.7,26917.2
32113.9,26775
41486.5,26775
41500,26776.3
41513.5,26775
41513.5,26775
41553.9,26771
41605.7,26755.3
41653.5,26729.8
41695.4,26695.4
41704,26684.9
44343.9,24045
44444.4,24065
44555.6,24065
44664.8,24043.2
44767.6,24000.7
44860.1,23938.8
44938.8,23860.1
45000.7,23767.6
45002.4,23763.4
45046.3,23836.7
45120.7,23918.7
45209.7,23984.7
45309.8,24032
45362.6,24048
45450,24000
45450,23550
45442.1,23550
45442.1,23450
45450,23450
45450,23000
45550,23000
45550,23450
45557.9,23450
45557.9,23550
45550,23550
45550,24000
45637.4,24048
45690.2,24032
45790.3,23984.7
45879.3,23918.7
45953.7,23836.7
45997.6,23763.4
45999.3,23767.6
46061.2,23860.1
46139.9,23938.8
46232.4,24000.7
46335.2,24043.2
46444.4,24065
46555.6,24065
46664.8,24043.2
46767.6,24000.7
46860.1,23938.8
46938.8,23860.1
47000,23768.6
47061.2,23860.1
47139.9,23938.8
47232.4,24000.7
47335.2,24043.2
47444.4,24065
47555.6,24065
47664.8,24043.2
47767.6,24000.7
47860.1,23938.8
47938.3,23860.6
47938.7,23864
47953,23911.1
47976.2,23954.5
48007.4,23992.6
48045.5,24023.8
48088.9,24047
48136,24061.3
48185,24066.2
48815,24066.2
48864,24061.3
48911.1,24047
48954.5,24023.8
48992.6,23992.6
49023.8,23954.5
49047,23911.1
49061.3,23864
49066.2,23815
49066.2,23185
49061.3,23136
49047,23088.9
49023.8,23045.5
48992.6,23007.4
48954.5,22976.2
48911.1,22953
48864,22938.7
48815,22933.8
48185,22933.8
48136,22938.7
48088.9,22953
48045.5,22976.2
48007.4,23007.4
47976.2,23045.5
47953,23088.9
47938.7,23136
47938.3,23139.4
47860.1,23061.2
47767.6,22999.3
47664.8,22956.8
47555.6,22935
47444.4,22935
47335.2,22956.8
47232.4,22999.3
47139.9,23061.2
47061.2,23139.9
47000,23231.4
46938.8,23139.9
46860.1,23061.2
46767.6,22999.3
46664.8,22956.8
46555.6,22935
46444.4,22935
46335.2,22956.8
46232.4,22999.3
46139.9,23061.2
46061.2,23139.9
45999.3,23232.4
45997.6,23236.6
45953.7,23163.3
45879.3,23081.3
45790.3,23015.3
45690.2,22968
45637.4,22952
45550,23000
45450,23000
45362.6,22952
45309.8,22968
45209.7,23015.3
45120.7,23081.3
45046.3,23163.3
45002.4,23236.6
45000.7,23232.4
44938.8,23139.9
44860.1,23061.2
44767.6,22999.3
44664.8,22956.8
44555.6,22935
44444.4,22935
44335.2,22956.8
44232.4,22999.3
44139.9,23061.2
44061.2,23139.9
44000,23231.4
43938.8,23139.9
43860.1,23061.2
43767.6,22999.3
43664.8,22956.8
43555.6,22935
43444.4,22935
43335.2,22956.8
43232.4,22999.3
43139.9,23061.2
43061.2,23139.9
43000,23231.4
42938.8,23139.9
42860.1,23061.2
42767.6,22999.3
42664.8,22956.8
42555.6,22935
42444.4,22935
42335.2,22956.8
42232.4,22999.3
42139.9,23061.2
42061.2,23139.9
42000,23231.4
41938.8,23139.9
41860.1,23061.2
41767.6,22999.3
41664.8,22956.8
41555.6,22935
41444.4,22935
41335.2,22956.8
41232.4,22999.3
41139.9,23061.2
41061.2,23139.9
41000,23231.4
40938.8,23139.9
40860.1,23061.2
40775,23004.3
40775,22113.9
41684.9,21204
41695.4,21195.4
41704,21184.9
41704,21184.9
41729.8,21153.5
41755.3,21105.7
41762.3,21082.6
41771,21053.9
41775,21013.5
41775,21013.5
41776.3,21000
41775,20986.5
41775,19995.7
41860.1,19938.8
41938.8,19860.1
42000.7,19767.6
42043.2,19664.8
42065,19555.6
42065,19444.4
42043.2,19335.2
42000.7,19232.4
41938.8,19139.9
41860.1,19061.2
41767.6,18999.3
41664.8,18956.8
41555.6,18935
41444.4,18935
41335.2,18956.8
41232.4,18999.3
41139.9,19061.2
41061.2,19139.9
41000,19231.4
40938.8,19139.9
40860.1,19061.2
40767.6,18999.3
40664.8,18956.8
40555.6,18935
40444.4,18935
40335.2,18956.8
40232.4,18999.3
40139.9,19061.2
40061.2,19139.9
40000,19231.4
39938.8,19139.9
39860.1,19061.2
39767.6,18999.3
39664.8,18956.8
39555.6,18935
39444.4,18935
39335.2,18956.8
39232.4,18999.3
39139.9,19061.2
39061.2,19139.9
39004.3,19225
38995.7,19225
38938.8,19139.9
38860.1,19061.2
38767.6,18999.3
38664.8,18956.8
38555.6,18935
38444.4,18935
38335.2,18956.8
38232.4,18999.3
38139.9,19061.2
38061.2,19139.9
38000,19231.4
37938.8,19139.9
37860.1,19061.2
37767.6,18999.3
37664.8,18956.8
37555.6,18935
37444.4,18935
37335.2,18956.8
37232.4,18999.3
37139.9,19061.2
37061.2,19139.9
37000,19231.4
36938.8,19139.9
36860.1,19061.2
36767.6,18999.3
36664.8,18956.8
36555.6,18935
36444.4,18935
36335.2,18956.8
36232.4,18999.3
36139.9,19061.2
36061.2,19139.9
36000,19231.4
35938.8,19139.9
35860.1,19061.2
35767.6,18999.3
35664.8,18956.8
35555.6,18935
35444.4,18935
35335.2,18956.8
35232.4,18999.3
35139.9,19061.2
35061.2,19139.9
35000,19231.4
34938.8,19139.9
34860.1,19061.2
34767.6,18999.3
34664.8,18956.8
34555.6,18935
34444.4,18935
34335.2,18956.8
34232.4,18999.3
34139.9,19061.2
34061.2,19139.9
33999.3,19232.4
33956.8,19335.2
33935,19444.4
33935,19555.6
33956.8,19664.8
33999.3,19767.6
34061.2,19860.1
34139.9,19938.8
34232.4,20000.7
34335.2,20043.2
34444.4,20065
34555.6,20065
34664.8,20043.2
34767.6,20000.7
34860.1,19938.8
34938.8,19860.1
35000,19768.6
35061.2,19860.1
35139.9,19938.8
35232.4,20000.7
35335.2,20043.2
35444.4,20065
35555.6,20065
35664.8,20043.2
35767.6,20000.7
35860.1,19938.8
35938.8,19860.1
36000,19768.6
36061.2,19860.1
36139.9,19938.8
36232.4,20000.7
36335.2,20043.2
36444.4,20065
36555.6,20065
36664.8,20043.2
36767.6,20000.7
36860.1,19938.8
36938.8,19860.1
37000,19768.6
37061.2,19860.1
37139.9,19938.8
37232.4,20000.7
37335.2,20043.2
37444.4,20065
37555.6,20065
37664.8,20043.2
37767.6,20000.7
37860.1,19938.8
37938.8,19860.1
38000,19768.6
38061.2,19860.1
38139.9,19938.8
38232.4,20000.7
38335.2,20043.2
38444.4,20065
38555.6,20065
38664.8,20043.2
38767.6,20000.7
38860.1,19938.8
38938.8,19860.1
38995.7,19775
39004.3,19775
39061.2,19860.1
39139.9,19938.8
39232.4,20000.7
39335.2,20043.2
39444.4,20065
39555.6,20065
39664.8,20043.2
39767.6,20000.7
39860.1,19938.8
39938.8,19860.1
40000,19768.6
40061.2,19860.1
40139.9,19938.8
40225,19995.7
40225,20886.1
39315.1,21796
39304.6,21804.6
39296,21815.1
39296,21815.1
39270.2,21846.5
39244.7,21894.3
39229,21946.1
39223.7,22000
39225,22013.5
39225,23004.3
39139.9,23061.2
39061.2,23139.9
39000,23231.4
38938.8,23139.9
38860.1,23061.2
38767.6,22999.3
38664.8,22956.8
38555.6,22935
38444.4,22935
38335.2,22956.8
38232.4,22999.3
38139.9,23061.2
38061.2,23139.9
38000,23231.4
37938.8,23139.9
37860.1,23061.2
37767.6,22999.3
37664.8,22956.8
37555.6,22935
37444.4,22935
37335.2,22956.8
37232.4,22999.3
37139.9,23061.2
37061.2,23139.9
37000,23231.4
36938.8,23139.9
36860.1,23061.2
36767.6,22999.3
36664.8,22956.8
36555.6,22935
36444.4,22935
36335.2,22956.8
36232.4,22999.3
36139.9,23061.2
36061.2,23139.9
36000,23231.4
35938.8,23139.9
35860.1,23061.2
35767.6,22999.3
35664.8,22956.8
35555.6,22935
35444.4,22935
35335.2,22956.8
35232.4,22999.3
35139.9,23061.2
35061.2,23139.9
35000,23231.4
34938.8,23139.9
34860.1,23061.2
34767.6,22999.3
34664.8,22956.8
34555.6,22935
34444.4,22935
34335.2,22956.8
34232.4,22999.3
34139.9,23061.2
34061.2,23139.9
33999.3,23232.4
33956.8,23335.2
33935,23444.4
33935,23555.6
33956.8,23664.8
33999.3,23767.6
34061.2,23860.1
34139.9,23938.8
34232.4,24000.7
34335.2,24043.2
34444.4,24065
34555.6,24065
34664.8,24043.2
34767.6,24000.7
34860.1,23938.8
34938.8,23860.1
35000,23768.6
35061.2,23860.1
35139.9,23938.8
35232.4,24000.7
35335.2,24043.2
35444.4,24065
35555.6,24065
35664.8,24043.2
35767.6,24000.7
35860.1,23938.8
35938.8,23860.1
36000,23768.6
36061.2,23860.1
36139.9,23938.8
36232.4,24000.7
36335.2,24043.2
36444.4,24065
36555.6,24065
36664.8,24043.2
36767.6,24000.7
36860.1,23938.8
36938.8,23860.1
37000,23768.6
37061.2,23860.1
37139.9,23938.8
37232.4,24000.7
37335.2,24043.2
37444.4,24065
37555.6,24065
37664.8,24043.2
37767.6,24000.7
37860.1,23938.8
37938.8,23860.1
38000,23768.6
38061.2,23860.1
38139.9,23938.8
38232.4,24000.7
38335.2,24043.2
38444.4,24065
38555.6,24065
38664.8,24043.2
38767.6,24000.7
38860.1,23938.8
38938.8,23860.1
39000,23768.6
39061.2,23860.1
39139.9,23938.8
39232.4,24000.7
39335.2,24043.2
39444.4,24065
39555.6,24065
39664.8,24043.2
39767.6,24000.7
39860.1,23938.8
39938.8,23860.1
40000,23768.6
40061.2,23860.1
40139.9,23938.8
40232.4,24000.7
40335.2,24043.2
40444.4,24065
40555.6,24065
40664.8,24043.2
40767.6,24000.7
40860.1,23938.8
40938.8,23860.1
41000,23768.6
41061.2,23860.1
41139.9,23938.8
41232.4,24000.7
41335.2,24043.2
41444.4,24065
41555.6,24065
41664.8,24043.2
41767.6,24000.7
41860.1,23938.8
41938.8,23860.1
42000,23768.6
42061.2,23860.1
42139.9,23938.8
42232.4,24000.7
42335.2,24043.2
42444.4,24065
42555.6,24065
42664.8,24043.2
42767.6,24000.7
42860.1,23938.8
42938.8,23860.1
43000,23768.6
43061.2,23860.1
43139.9,23938.8
43232.4,24000.7
43335.2,24043.2
43444.4,24065
43546.1,24065
41386.1,26225
32013.5,26225
32000,26223.7
31986.5,26225
31986.5,26225
31946.1,26229
31894.3,26244.7
31872,26256.6
31846.5,26270.2
31815.1,26296
31815.1,26296
31804.6,26304.6
31796,26315.1
30143.4,27967.7
30054.2,27950
29945.8,27950
29839.6,27971.1
29739.5,28012.6
29649.4,28072.8
29572.8,28149.4
29512.6,28239.5
29500,28269.9
29487.4,28239.5
29427.2,28149.4
29350.6,28072.8
29260.5,28012.6
29160.4,27971.1
29054.2,27950
28945.8,27950
28839.6,27971.1
28739.5,28012.6
28649.4,28072.8
28572.8,28149.4
28512.6,28239.5
28500,28269.9
28487.4,28239.5
28427.2,28149.4
28350.6,28072.8
28260.5,28012.6
28160.4,27971.1
28054.2,27950
27945.8,27950
27839.6,27971.1
27739.5,28012.6
27649.4,28072.8
27572.8,28149.4
27549.6,28184
27546.4,28151
27532.1,28103.9
27508.9,28060.4
27477.6,28022.4
27439.6,27991.1
27396.1,27967.9
27349,27953.6
27300,27948.8
27112.5,27950
27050,28012.5
26950,28012.5
26887.5,27950
26700,27948.8
26651,27953.6
26603.9,27967.9
26560.4,27991.1
26522.4,28022.4
26491.1,28060.4
26467.9,28103.9
26453.6,28151
26450.4,28184
26427.2,28149.4
26350.6,28072.8
26260.5,28012.6
26160.4,27971.1
26054.2,27950
25945.8,27950
25839.6,27971.1
25739.5,28012.6
25649.4,28072.8
25572.8,28149.4
25512.6,28239.5
25500,28269.9
25487.4,28239.5
25427.2,28149.4
25350.6,28072.8
25260.5,28012.6
25160.4,27971.1
25054.2,27950
24945.8,27950
24839.6,27971.1
24739.5,28012.6
24649.4,28072.8
24572.8,28149.4
24512.6,28239.5
24471.1,28339.6
24450,28445.8
23759.8,28445.8
23759.8,12917.2
24159.4,12917.2
24159.4,13082.8
24191.8,13245.2
24255.1,13398.2
24347.1,13535.8
24464.2,13652.9
24601.8,13744.9
24754.8,13808.2
24917.2,13840.6
25082.8,13840.6
25245.2,13808.2
25398.2,13744.9
25535.8,13652.9
25652.9,13535.8
25744.9,13398.2
25808.2,13245.2
25809.2,13240.4
31433,13240.4
31449.3,13350.4
31486.8,13455.2
31512.4,13503.3
31507.4,13507.4
31476.2,13545.5
31453,13588.9
31438.7,13636
31433.8,13685
31433.8,14315
31438.7,14364
31453,14411.1
31476.2,14454.5
31507.4,14492.6
31545.5,14523.8
31588.9,14547
31636,14561.3
31685,14566.2
31823.7,14566.2
32110.5,14853
32127,14873
32152.8,14894.2
32206.9,14938.6
32255.7,14964.7
32298.1,14987.4
32397.1,15017.4
32474.2,15025
32474.2,15025
32500,15027.5
32525.8,15025
34282.5,15025
37010.5,17753
37027,17773
37047,17789.5
37106.9,17838.6
37155.7,17864.7
37198.1,17887.4
37297.1,17917.4
37374.2,17925
37374.2,17925
37400,17927.5
37425.8,17925
44182.5,17925
44275,18017.5
44275,18674.2
44272.5,18700
44275,18725.8
44275,18725.8
44282.6,18802.9
44312.6,18901.9
44314.7,18905.7
44361.4,18993.1
44395.5,19034.7
44427,19073
44447,19089.5
47310.5,21953
47327,21973
47359.8,22000
47406.9,22038.6
47455.7,22064.7
47498.1,22087.4
47597.1,22117.4
47674.2,22125
47674.2,22125
47700,22127.5
47725.8,22125
50082.5,22125
50375,22417.5
50375,27484.4
50372.5,27510.2
50375,27536
50375,27536
50382.6,27613.2
50412.6,27712.1
50412.6,27712.1
50461.4,27803.3
50465.4,27808.2
50527,27883.3
50547,27899.7
51297.2,28649.9
51297.2,28679.5
51324.3,28815.2
51377.2,28943.1
51454.1,29058.2
51552,29156.1
51667.1,29233
51795,29286
51930.8,29313
52069.2,29313
52205,29286
52332.9,29233
52448,29156.1
52545.9,29058.2
52622.8,28943.1
52675.7,28815.2
52702.8,28679.5
52702.8,28541
52700.8,28531.3
56631.9,28531.3
56631.9,28689.1
56662.7,28843.9
56723.1,28989.7
56810.8,29121
56922.3,29232.6
57053.6,29320.2
57199.4,29380.6
57354.2,29411.4
57512,29411.4
57666.8,29380.6
57812.6,29320.2
57943.8,29232.6
58055.4,29121
58143.1,28989.7
58203.5,28843.9
58234.3,28689.1
58234.3,28531.3
58203.5,28376.5
58143.1,28230.7
58055.4,28099.5
57943.8,27987.9
57812.6,27900.2
57666.8,27839.8
57512,27809.1
57354.2,27809.1
57199.4,27839.8
57053.6,27900.2
56922.3,27987.9
56810.8,28099.5
56723.1,28230.7
56662.7,28376.5
56631.9,28531.3
52700.8,28531.3
52675.7,28405.2
52622.8,28277.4
52545.9,28162.3
52448,28064.4
52332.9,27987.5
52205,27934.5
52069.2,27907.5
52039.7,27907.5
51425,27292.8
51425,25740.4
51933,25740.4
51949.3,25850.4
51986.8,25955.2
52012.4,26003.3
52007.4,26007.4
51976.2,26045.5
51953,26088.9
51938.7,26136
51933.8,26185
51933.8,26815
51938.7,26864
51953,26911.1
51976.2,26954.5
52007.4,26992.6
52045.5,27023.8
52088.9,27047
52136,27061.3
52185,27066.2
52815,27066.2
52864,27061.3
52911.1,27047
52954.5,27023.8
52992.6,26992.6
53023.8,26954.5
53047,26911.1
53061.3,26864
53066.2,26815
53066.2,26185
53061.3,26136
53047,26088.9
53023.8,26045.5
52992.6,26007.4
52987.5,26003.2
53034.5,25903.9
53061.5,25796
53067,25684.8
53050.7,25574.8
53013.2,25470
52986.9,25420.7
52890.8,25392.5
52570.7,25712.6
52576.3,25718.2
52505.6,25788.9
52500,25783.3
52494.4,25788.9
52423.7,25718.2
52429.3,25712.6
52109.2,25392.5
52013.1,25420.7
51965.5,25521.3
51938.5,25629.2
51933,25740.4
51425,25740.4
51425,25321.8
52179.9,25321.8
52500,25641.9
52820.1,25321.8
52791.9,25225.7
52691.3,25178.1
52583.4,25151.1
52472.2,25145.6
52362.2,25161.9
52257.4,25199.4
52208.1,25225.7
52179.9,25321.8
51425,25321.8
51425,22240.4
55433,22240.4
55449.3,22350.4
55486.8,22455.2
55512.4,22503.3
55507.4,22507.4
55476.2,22545.5
55453,22588.9
55438.7,22636
55433.8,22685
55433.8,23315
55438.7,23364
55453,23411.1
55476.2,23454.5
55507.4,23492.6
55545.5,23523.8
55588.9,23547
55636,23561.3
55685,23566.2
56315,23566.2
56364,23561.3
56411.1,23547
56454.5,23523.8
56492.6,23492.6
56523.8,23454.5
56547,23411.1
56561.3,23364
56566.2,23315
56566.2,22685
56561.3,22636
56547,22588.9
56523.8,22545.5
56492.6,22507.4
56487.5,22503.2
56534.5,22403.9
56561.5,22296
56567,22184.8
56550.7,22074.8
56513.2,21970
56486.9,21920.7
56390.8,21892.5
56070.7,22212.6
56076.3,22218.2
56005.6,22288.9
56000,22283.3
55994.4,22288.9
55923.7,22218.2
55929.3,22212.6
55609.2,21892.5
55513.1,21920.7
55465.5,22021.3
55438.5,22129.2
55433,22240.4
51425,22240.4
51425,22225.8
51427.5,22200
51425,22174.2
51425,22174.2
51417.4,22097.1
51387.4,21998.1
51346,21920.7
51338.6,21906.9
51289.5,21847
51289.5,21847
51273,21827
51266.7,21821.8
55679.9,21821.8
56000,22141.9
56320.1,21821.8
56291.9,21725.7
56191.3,21678.1
56083.4,21651.1
55972.2,21645.6
55862.2,21661.9
55757.4,21699.4
55708.1,21725.7
55679.9,21821.8
51266.7,21821.8
51253,21810.5
50689.5,21247
50673,21227
50593.1,21161.4
50501.9,21112.6
50402.9,21082.6
50325.8,21075
50325.8,21075
50300,21072.5
50274.2,21075
47917.5,21075
45325,18482.5
45325,18263.7
46531.9,18263.7
46531.9,18336.3
46546,18407.4
46573.8,18474.4
46614.1,18534.7
46665.3,18585.9
46725.6,18626.2
46792.6,18654
46863.7,18668.1
46936.3,18668.1
47007.4,18654
47074.4,18626.2
47134.7,18585.9
47145.6,18575
47686.1,18575
48046.1,18935
47944.4,18935
47835.2,18956.8
47732.4,18999.3
47639.9,19061.2
47561.2,19139.9
47499.3,19232.4
47456.8,19335.2
47435,19444.4
47435,19555.6
47456.8,19664.8
47499.3,19767.6
47561.2,19860.1
47639.9,19938.8
47732.4,20000.7
47835.2,20043.2
47944.4,20065
48055.6,20065
48164.8,20043.2
48267.6,20000.7
48360.1,19938.8
48438.8,19860.1
48500,19768.6
48561.2,19860.1
48639.9,19938.8
48732.4,20000.7
48835.2,20043.2
48944.4,20065
49055.6,20065
49164.8,20043.2
49267.6,20000.7
49360.1,19938.8
49438.8,19860.1
49500,19768.6
49561.2,19860.1
49639.9,19938.8
49732.4,20000.7
49835.2,20043.2
49944.4,20065
50055.6,20065
50164.8,20043.2
50267.6,20000.7
50360.1,19938.8
50438.8,19860.1
50500,19768.6
50561.2,19860.1
50639.9,19938.8
50732.4,20000.7
50835.2,20043.2
50944.4,20065
51055.6,20065
51164.8,20043.2
51267.6,20000.7
51360.1,19938.8
51438.8,19860.1
51500,19768.6
51561.2,19860.1
51639.9,19938.8
51732.4,20000.7
51835.2,20043.2
51944.4,20065
52055.6,20065
52164.8,20043.2
52267.6,20000.7
52360.1,19938.8
52438.8,19860.1
52495.7,19775
52504.3,19775
52561.2,19860.1
52639.9,19938.8
52732.4,20000.7
52835.2,20043.2
52944.4,20065
53055.6,20065
53164.8,20043.2
53267.6,20000.7
53360.1,19938.8
53438.8,19860.1
53500,19768.6
53561.2,19860.1
53639.9,19938.8
53732.4,20000.7
53835.2,20043.2
53944.4,20065
54055.6,20065
54164.8,20043.2
54267.6,20000.7
54360.1,19938.8
54438.8,19860.1
54500,19768.6
54561.2,19860.1
54639.9,19938.8
54732.4,20000.7
54835.2,20043.2
54944.4,20065
55055.6,20065
55164.8,20043.2
55267.6,20000.7
55360.1,19938.8
55438.8,19860.1
55500.7,19767.6
55543.2,19664.8
55565,19555.6
55565,19444.4
55543.2,19335.2
55500.7,19232.4
55438.8,19139.9
55360.1,19061.2
55267.6,18999.3
55164.8,18956.8
55055.6,18935
54944.4,18935
54835.2,18956.8
54732.4,18999.3
54639.9,19061.2
54561.2,19139.9
54500,19231.4
54438.8,19139.9
54360.1,19061.2
54267.6,18999.3
54164.8,18956.8
54055.6,18935
53944.4,18935
53835.2,18956.8
53732.4,18999.3
53639.9,19061.2
53561.2,19139.9
53500,19231.4
53438.8,19139.9
53360.1,19061.2
53267.6,18999.3
53164.8,18956.8
53055.6,18935
52944.4,18935
52835.2,18956.8
52732.4,18999.3
52639.9,19061.2
52561.2,19139.9
52504.3,19225
52495.7,19225
52438.8,19139.9
52360.1,19061.2
52267.6,18999.3
52164.8,18956.8
52055.6,18935
51944.4,18935
51835.2,18956.8
51732.4,18999.3
51639.9,19061.2
51561.2,19139.9
51500,19231.4
51438.8,19139.9
51360.1,19061.2
51267.6,18999.3
51164.8,18956.8
51055.6,18935
50944.4,18935
50843.9,18955
50504,18615.1
50495.4,18604.6
50453.5,18570.2
50405.7,18544.7
50353.9,18529
50313.5,18525
50313.5,18525
50300,18523.7
50286.5,18525
49245.6,18525
49234.7,18514.1
49174.4,18473.8
49107.4,18446
49036.3,18431.9
48963.7,18431.9
48892.6,18446
48825.6,18473.8
48765.3,18514.1
48714.1,18565.3
48673.8,18625.6
48646,18692.6
48635.3,18746.4
48004,18115.1
47995.4,18104.6
47953.5,18070.2
47905.7,18044.7
47853.9,18029
47813.5,18025
47813.5,18025
47800,18023.7
47786.5,18025
47145.6,18025
47134.7,18014.1
47074.4,17973.8
47007.4,17946
46936.3,17931.9
46863.7,17931.9
46792.6,17946
46725.6,17973.8
46665.3,18014.1
46614.1,18065.3
46573.8,18125.6
46546,18192.6
46531.9,18263.7
45325,18263.7
45325,17825.8
45327.5,17800
45325,17774.2
45325,17425.8
45327.5,17400
45325,17374.2
45325,17025.8
45327.5,17000
45325,16974.2
45325,14917.5
45676.3,14566.2
45815,14566.2
45864,14561.3
45911.1,14547
45952.3,14525
47282.5,14525
47481.1,14723.6
47499.3,14767.6
47561.2,14860.1
47639.9,14938.8
47732.4,15000.7
47835.2,15043.2
47944.4,15065
48055.6,15065
48164.8,15043.2
48267.6,15000.7
48360.1,14938.8
48438.8,14860.1
48500.7,14767.6
48502.4,14763.4
48546.3,14836.7
48620.7,14918.7
48709.7,14984.7
48809.8,15032
48862.6,15048
48950,15000
48950,14550
48942.1,14550
48942.1,14450
48950,14450
48950,14000
49050,14000
49050,14450
49057.9,14450
49057.9,14550
49050,14550
49050,15000
49137.4,15048
49190.2,15032
49290.3,14984.7
49379.3,14918.7
49453.7,14836.7
49497.6,14763.4
49499.3,14767.6
49561.2,14860.1
49639.9,14938.8
49732.4,15000.7
49835.2,15043.2
49944.4,15065
50055.6,15065
50164.8,15043.2
50267.6,15000.7
50360.1,14938.8
50438.8,14860.1
50500,14768.6
50561.2,14860.1
50639.9,14938.8
50732.4,15000.7
50835.2,15043.2
50944.4,15065
51055.6,15065
51164.8,15043.2
51267.6,15000.7
51360.1,14938.8
51438.8,14860.1
51500,14768.6
51561.2,14860.1
51639.9,14938.8
51732.4,15000.7
51835.2,15043.2
51944.4,15065
52055.6,15065
52164.8,15043.2
52267.6,15000.7
52360.1,14938.8
52438.8,14860.1
52500,14768.6
52561.2,14860.1
52639.9,14938.8
52732.4,15000.7
52835.2,15043.2
52944.4,15065
53055.6,15065
53164.8,15043.2
53267.6,15000.7
53360.1,14938.8
53438.8,14860.1
53500,14768.6
53561.2,14860.1
53639.9,14938.8
53732.4,15000.7
53835.2,15043.2
53944.4,15065
54055.6,15065
54164.8,15043.2
54267.6,15000.7
54360.1,14938.8
54438.3,14860.6
54438.7,14864
54453,14911.1
54476.2,14954.5
54507.4,14992.6
54545.5,15023.8
54588.9,15047
54636,15061.3
54685,15066.2
54887.5,15065
54950,15002.5
54950,14550
55050,14550
55050,15002.5
55112.5,15065
55315,15066.2
55364,15061.3
55411.1,15047
55454.5,15023.8
55492.6,14992.6
55523.8,14954.5
55547,14911.1
55561.3,14864
55566.2,14815
55565,14612.5
55502.5,14550
55050,14550
54950,14550
54942.1,14550
54942.1,14450
54950,14450
54950,13997.5
55050,13997.5
55050,14450
55502.5,14450
55565,14387.5
55566.2,14185
55561.3,14136
55547,14088.9
55523.8,14045.5
55492.6,14007.4
55454.5,13976.2
55411.1,13953
55364,13938.7
55315,13933.8
55112.5,13935
55050,13997.5
54950,13997.5
54887.5,13935
54685,13933.8
54636,13938.7
54588.9,13953
54545.5,13976.2
54507.4,14007.4
54476.2,14045.5
54453,14088.9
54438.7,14136
54438.3,14139.4
54360.1,14061.2
54267.6,13999.3
54164.8,13956.8
54055.6,13935
53944.4,13935
53835.2,13956.8
53732.4,13999.3
53639.9,14061.2
53561.2,14139.9
53500,14231.4
53438.8,14139.9
53400,14101
53400,12926.8
53409.6,12917.2
56659.4,12917.2
56659.4,13082.8
56691.8,13245.2
56755.1,13398.2
56847.1,13535.8
56964.2,13652.9
57101.8,13744.9
57254.8,13808.2
57417.2,13840.6
57582.8,13840.6
57745.2,13808.2
57898.2,13744.9
58035.8,13652.9
58152.9,13535.8
58244.9,13398.2
58308.2,13245.2
58340.6,13082.8
58340.6,12917.2
58308.2,12754.8
58244.9,12601.8
58152.9,12464.2
58035.8,12347.1
57898.2,12255.1
57745.2,12191.8
57582.8,12159.4
57417.2,12159.4
57254.8,12191.8
57101.8,12255.1
56964.2,12347.1
56847.1,12464.2
56755.1,12601.8
56691.8,12754.8
56659.4,12917.2
53409.6,12917.2
53454.1,12872.7
53518.1,12776.9
53562.2,12670.5
53584.6,12557.6
53584.6,12442.4
53562.2,12329.5
53518.1,12223.1
53454.1,12127.3
53372.7,12045.9
53276.9,11981.9
53170.5,11937.8
53057.6,11915.4
52942.4,11915.4
52829.5,11937.8
52723.1,11981.9
52627.3,12045.9
52545.9,12127.3
52500,12196
52454.1,12127.3
52372.7,12045.9
52276.9,11981.9
52170.5,11937.8
52057.6,11915.4
51942.4,11915.4
51829.5,11937.8
51723.1,11981.9
51627.3,12045.9
51545.9,12127.3
51500,12196
51454.1,12127.3
51372.7,12045.9
51276.9,11981.9
51170.5,11937.8
51057.6,11915.4
50942.4,11915.4
50829.5,11937.8
50723.1,11981.9
50627.3,12045.9
50575.4,12097.8
50566.7,12069.2
50543.5,12025.8
50512.3,11987.7
50474.2,11956.5
50430.8,11933.3
50383.7,11919
50334.6,11914.1
49665.4,11914.1
49616.3,11919
49569.2,11933.3
49525.8,11956.5
49487.7,11987.7
49456.5,12025.8
49433.3,12069.2
49419,12116.3
49414.1,12165.4
49414.1,12834.6
49419,12883.7
49433.3,12930.8
49456.5,12974.2
49487.7,13012.3
49525.8,13043.5
49569.2,13066.7
49600,13076.1
49600,14101
49561.2,14139.9
49499.3,14232.4
49497.6,14236.6
49453.7,14163.3
49379.3,14081.3
49290.3,14015.3
49190.2,13968
49137.4,13952
49050,14000
48950,14000
48862.6,13952
48809.8,13968
48709.7,14015.3
48620.7,14081.3
48546.3,14163.3
48502.4,14236.6
48500.7,14232.4
48438.8,14139.9
48360.1,14061.2
48267.6,13999.3
48223.6,13981.1
47889.5,13647
47873,13627
47793.1,13561.4
47701.9,13512.6
47602.9,13482.6
47525.8,13475
47525.8,13475
47500,13472.5
47474.2,13475
46000.9,13475
46034.5,13403.9
46061.5,13296
46067,13184.8
46050.7,13074.8
46013.2,12970
45986.9,12920.7
45890.8,12892.5
45570.7,13212.6
45576.3,13218.2
45505.6,13288.9
45500,13283.3
45494.4,13288.9
45423.7,13218.2
45429.3,13212.6
45109.2,12892.5
45013.1,12920.7
44965.5,13021.3
44938.5,13129.2
44933,13240.4
44949.3,13350.4
44986.8,13455.2
45012.4,13503.3
45007.4,13507.4
44976.2,13545.5
44953,13588.9
44938.7,13636
44933.8,13685
44933.8,13823.7
44447,14310.5
44427,14327
44410.5,14347
44410.5,14347
44361.4,14406.9
44315.6,14492.6
44312.6,14498.1
44282.6,14597.1
44277,14653.8
44272.5,14700
44275,14725.8
44275,16782.5
44182.5,16875
37617.5,16875
35747.4,15004.9
35790.3,14984.7
35879.3,14918.7
35953.7,14836.7
35997.6,14763.4
35999.3,14767.6
36061.2,14860.1
36139.9,14938.8
36232.4,15000.7
36335.2,15043.2
36444.4,15065
36555.6,15065
36664.8,15043.2
36767.6,15000.7
36860.1,14938.8
36938.8,14860.1
37000,14768.6
37061.2,14860.1
37139.9,14938.8
37232.4,15000.7
37335.2,15043.2
37444.4,15065
37555.6,15065
37664.8,15043.2
37767.6,15000.7
37860.1,14938.8
37938.8,14860.1
38000,14768.6
38061.2,14860.1
38139.9,14938.8
38232.4,15000.7
38335.2,15043.2
38444.4,15065
38555.6,15065
38664.8,15043.2
38767.6,15000.7
38860.1,14938.8
38938.8,14860.1
39000,14768.6
39061.2,14860.1
39139.9,14938.8
39232.4,15000.7
39335.2,15043.2
39444.4,15065
39555.6,15065
39664.8,15043.2
39767.6,15000.7
39860.1,14938.8
39938.8,14860.1
40000,14768.6
40061.2,14860.1
40139.9,14938.8
40232.4,15000.7
40335.2,15043.2
40444.4,15065
40555.6,15065
40664.8,15043.2
40767.6,15000.7
40860.1,14938.8
40938.3,14860.6
40938.7,14864
40953,14911.1
40976.2,14954.5
41007.4,14992.6
41045.5,15023.8
41088.9,15047
41136,15061.3
41185,15066.2
41387.5,15065
41450,15002.5
41450,14550
41550,14550
41550,15002.5
41612.5,15065
41815,15066.2
41864,15061.3
41911.1,15047
41954.5,15023.8
41992.6,14992.6
42023.8,14954.5
42047,14911.1
42061.3,14864
42066.2,14815
42065,14612.5
42002.5,14550
41550,14550
41450,14550
41442.1,14550
41442.1,14450
41450,14450
41450,13997.5
41550,13997.5
41550,14450
42002.5,14450
42065,14387.5
42066.2,14185
42061.3,14136
42047,14088.9
42023.8,14045.5
41992.6,14007.4
41954.5,13976.2
41911.1,13953
41864,13938.7
41815,13933.8
41612.5,13935
41550,13997.5
41450,13997.5
41387.5,13935
41185,13933.8
41136,13938.7
41088.9,13953
41045.5,13976.2
41007.4,14007.4
40976.2,14045.5
40953,14088.9
40938.7,14136
40938.3,14139.4
40860.1,14061.2
40767.6,13999.3
40664.8,13956.8
40555.6,13935
40444.4,13935
40335.2,13956.8
40232.4,13999.3
40139.9,14061.2
40061.2,14139.9
40000,14231.4
39938.8,14139.9
39900,14101
39900,12926.8
39954.1,12872.7
39988.1,12821.8
45179.9,12821.8
45500,13141.9
45820.1,12821.8
45791.9,12725.7
45691.3,12678.1
45583.4,12651.1
45472.2,12645.6
45362.2,12661.9
45257.4,12699.4
45208.1,12725.7
45179.9,12821.8
39988.1,12821.8
40018.1,12776.9
40062.2,12670.5
40084.6,12557.6
40084.6,12442.4
40062.2,12329.5
40018.1,12223.1
39954.1,12127.3
39872.7,12045.9
39776.9,11981.9
39670.5,11937.8
39557.6,11915.4
39442.4,11915.4
39329.5,11937.8
39223.1,11981.9
39127.3,12045.9
39045.9,12127.3
39000,12196
38954.1,12127.3
38872.7,12045.9
38776.9,11981.9
38670.5,11937.8
38557.6,11915.4
38442.4,11915.4
38329.5,11937.8
38223.1,11981.9
38127.3,12045.9
38045.9,12127.3
38000,12196
37954.1,12127.3
37872.7,12045.9
37776.9,11981.9
37670.5,11937.8
37557.6,11915.4
37442.4,11915.4
37329.5,11937.8
37223.1,11981.9
37127.3,12045.9
37075.4,12097.8
37066.7,12069.2
37043.5,12025.8
37012.3,11987.7
36974.2,11956.5
36930.8,11933.3
36883.7,11919
36834.6,11914.1
36165.4,11914.1
36116.3,11919
36069.2,11933.3
36025.8,11956.5
35987.7,11987.7
35956.5,12025.8
35933.3,12069.2
35919,12116.3
35914.1,12165.4
35914.1,12834.6
35919,12883.7
35933.3,12930.8
35956.5,12974.2
35987.7,13012.3
36025.8,13043.5
36069.2,13066.7
36100,13076.1
36100,14101
36061.2,14139.9
35999.3,14232.4
35997.6,14236.6
35953.7,14163.3
35879.3,14081.3
35790.3,14015.3
35690.2,13968
35637.4,13952
35550,14000
35550,14450
35557.9,14450
35557.9,14550
35550,14550
35550,14557.9
35450,14557.9
35450,14550
35442.1,14550
35442.1,14450
35450,14450
35450,14000
35362.6,13952
35309.8,13968
35209.7,14015.3
35120.7,14081.3
35046.3,14163.3
35002.4,14236.6
35000.7,14232.4
34938.8,14139.9
34860.1,14061.2
34767.6,13999.3
34664.8,13956.8
34555.6,13935
34444.4,13935
34335.2,13956.8
34291.1,13975
32717.5,13975
32566.2,13823.7
32566.2,13685
32561.3,13636
32547,13588.9
32523.8,13545.5
32492.6,13507.4
32487.5,13503.2
32534.5,13403.9
32561.5,13296
32567,13184.8
32550.7,13074.8
32513.2,12970
32486.9,12920.7
32390.8,12892.5
32070.7,13212.6
32076.3,13218.2
32005.6,13288.9
32000,13283.3
31994.4,13288.9
31923.7,13218.2
31929.3,13212.6
31609.2,12892.5
31513.1,12920.7
31465.5,13021.3
31438.5,13129.2
31433,13240.4
25809.2,13240.4
25840.6,13082.8
25840.6,12917.2
25821.6,12821.8
31679.9,12821.8
32000,13141.9
32320.1,12821.8
32291.9,12725.7
32191.3,12678.1
32083.4,12651.1
31972.2,12645.6
31862.2,12661.9
31757.4,12699.4
31708.1,12725.7
31679.9,12821.8
25821.6,12821.8
25808.2,12754.8
25744.9,12601.8
25652.9,12464.2
25535.8,12347.1
25398.2,12255.1
25245.2,12191.8
25082.8,12159.4
24917.2,12159.4
24754.8,12191.8
24601.8,12255.1
24464.2,12347.1
24347.1,12464.2
24255.1,12601.8
24191.8,12754.8
24159.4,12917.2
23759.8,12917.2
23759.8,11759.8
58740.2,11759.8
Z" /> 
</g>
</g> 
</svg>
