<?xml version="1.0" standalone="no"?>
 <!DOCTYPE svg PUBLIC "-//W3C//DTD SVG 1.1//EN" 
 "http://www.w3.org/Graphics/SVG/1.1/DTD/svg11.dtd"> 
<svg
  xmlns:svg="http://www.w3.org/2000/svg"
  xmlns="http://www.w3.org/2000/svg"
  xmlns:xlink="http://www.w3.org/1999/xlink"
  version="1.1"
  width="29.700220cm" height="21.000720cm" viewBox="0 0 116930 82680">
<title>SVG Picture created as Astrotracker_Mainboard-B_Mask.svg date 2020/09/11 16:13:28 </title>
  <desc>Picture generated by PCBNEW </desc>
<g style="fill:#000000; fill-opacity:1;stroke:#000000; stroke-opacity:1;
stroke-linecap:round; stroke-linejoin:round;"
 transform="translate(0 0) scale(1 1)">
</g>
<g style="fill:#000000; fill-opacity:0.0; 
stroke:#000000; stroke-width:-0.000393701; stroke-opacity:1; 
stroke-linecap:round; stroke-linejoin:round;">
</g>
<g style="fill:#000000; fill-opacity:1.0; 
stroke:#000000; stroke-width:0; stroke-opacity:1; 
stroke-linecap:round; stroke-linejoin:round;">
<path style="fill:#000000; fill-opacity:1.0; 
stroke:#000000; stroke-width:0; stroke-opacity:1; 
stroke-linecap:round; stroke-linejoin:round;fill-rule:evenodd;"
d="M 25096.2,29917
25172.3,29932.1
25279.7,29976.7
25376.5,30041.3
25458.7,30123.5
25523.3,30220.3
25567.9,30327.7
25590.6,30441.8
25590.6,30558.2
25567.9,30672.3
25523.3,30779.7
25458.7,30876.5
25376.5,30958.7
25279.7,31023.3
25172.3,31067.9
25096.2,31083
25058.2,31090.6
24941.8,31090.6
24903.8,31083
24827.7,31067.9
24720.3,31023.3
24623.5,30958.7
24541.3,30876.5
24476.7,30779.7
24432.1,30672.3
24409.4,30558.2
24409.4,30441.8
24432.1,30327.7
24476.7,30220.3
24541.3,30123.5
24623.5,30041.3
24720.3,29976.7
24827.7,29932.1
24903.8,29917
24941.8,29909.4
25058.2,29909.4
Z" /> 
<path style="fill:#000000; fill-opacity:1.0; 
stroke:#000000; stroke-width:0; stroke-opacity:1; 
stroke-linecap:round; stroke-linejoin:round;fill-rule:evenodd;"
d="M 57522.9,29955.9
57593.8,29970
57694.2,30011.5
57784.4,30071.9
57861.2,30148.6
57921.5,30238.9
57963.1,30339.2
57984.3,30445.7
57984.3,30554.3
57963.1,30660.8
57921.5,30761.1
57861.2,30851.4
57784.4,30928.1
57694.2,30988.5
57593.8,31030
57522.9,31044.1
57487.4,31051.2
57378.8,31051.2
57343.3,31044.1
57272.3,31030
57172,30988.5
57081.7,30928.1
57004.9,30851.4
56944.6,30761.1
56903.1,30660.8
56881.9,30554.3
56881.9,30445.7
56903.1,30339.2
56944.6,30238.9
57004.9,30148.6
57081.7,30071.9
57172,30011.5
57272.3,29970
57343.3,29955.9
57378.8,29948.8
57487.4,29948.8
Z" /> 
<path style="fill:#000000; fill-opacity:1.0; 
stroke:#000000; stroke-width:0; stroke-opacity:1; 
stroke-linecap:round; stroke-linejoin:round;fill-rule:evenodd;"
d="M 52388.4,30048.9
52403.4,30053.4
52417.2,30060.8
52429.3,30070.7
52439.2,30082.8
52446.6,30096.6
52451.1,30111.6
52452.8,30128.3
52452.8,30871.7
52451.1,30888.4
52446.6,30903.4
52439.2,30917.2
52429.3,30929.3
52417.2,30939.2
52403.4,30946.6
52388.4,30951.1
52371.7,30952.8
51628.3,30952.8
51611.6,30951.1
51596.6,30946.6
51582.8,30939.2
51570.7,30929.3
51560.8,30917.2
51553.4,30903.4
51548.9,30888.4
51547.2,30871.7
51547.2,30128.3
51548.9,30111.6
51553.4,30096.6
51560.8,30082.8
51570.7,30070.7
51582.8,30060.8
51596.6,30053.4
51611.6,30048.9
51628.3,30047.2
52371.7,30047.2
Z" /> 
<path style="fill:#000000; fill-opacity:1.0; 
stroke:#000000; stroke-width:0; stroke-opacity:1; 
stroke-linecap:round; stroke-linejoin:round;fill-rule:evenodd;"
d="M 43551.3,29189.1
43591.9,29197.1
43649.2,29220.9
43700.8,29255.4
43744.6,29299.2
43779.1,29350.8
43802.9,29408.1
43815,29469
43815,29531
43802.9,29591.9
43779.1,29649.2
43744.6,29700.8
43700.8,29744.6
43649.2,29779.1
43591.9,29802.9
43551.3,29810.9
43531,29815
43469,29815
43448.7,29810.9
43408.1,29802.9
43350.8,29779.1
43299.2,29744.6
43255.4,29700.8
43220.9,29649.2
43197.1,29591.9
43185,29531
43185,29469
43197.1,29408.1
43220.9,29350.8
43255.4,29299.2
43299.2,29255.4
43350.8,29220.9
43408.1,29197.1
43448.7,29189.1
43469,29185
43531,29185
Z" /> 
<path style="fill:#000000; fill-opacity:1.0; 
stroke:#000000; stroke-width:0; stroke-opacity:1; 
stroke-linecap:round; stroke-linejoin:round;fill-rule:evenodd;"
d="M 36551.3,29189.1
36591.9,29197.1
36649.2,29220.9
36700.8,29255.4
36744.6,29299.2
36779.1,29350.8
36802.9,29408.1
36815,29469
36815,29531
36802.9,29591.9
36779.1,29649.2
36744.6,29700.8
36700.8,29744.6
36649.2,29779.1
36591.9,29802.9
36551.3,29810.9
36531,29815
36469,29815
36448.7,29810.9
36408.1,29802.9
36350.8,29779.1
36299.2,29744.6
36255.4,29700.8
36220.9,29649.2
36197.1,29591.9
36185,29531
36185,29469
36197.1,29408.1
36220.9,29350.8
36255.4,29299.2
36299.2,29255.4
36350.8,29220.9
36408.1,29197.1
36448.7,29189.1
36469,29185
36531,29185
Z" /> 
<path style="fill:#000000; fill-opacity:1.0; 
stroke:#000000; stroke-width:0; stroke-opacity:1; 
stroke-linecap:round; stroke-linejoin:round;fill-rule:evenodd;"
d="M 37551.3,29189.1
37591.9,29197.1
37649.2,29220.9
37700.8,29255.4
37744.6,29299.2
37779.1,29350.8
37802.9,29408.1
37815,29469
37815,29531
37802.9,29591.9
37779.1,29649.2
37744.6,29700.8
37700.8,29744.6
37649.2,29779.1
37591.9,29802.9
37551.3,29810.9
37531,29815
37469,29815
37448.7,29810.9
37408.1,29802.9
37350.8,29779.1
37299.2,29744.6
37255.4,29700.8
37220.9,29649.2
37197.1,29591.9
37185,29531
37185,29469
37197.1,29408.1
37220.9,29350.8
37255.4,29299.2
37299.2,29255.4
37350.8,29220.9
37408.1,29197.1
37448.7,29189.1
37469,29185
37531,29185
Z" /> 
<path style="fill:#000000; fill-opacity:1.0; 
stroke:#000000; stroke-width:0; stroke-opacity:1; 
stroke-linecap:round; stroke-linejoin:round;fill-rule:evenodd;"
d="M 38551.3,29189.1
38591.9,29197.1
38649.2,29220.9
38700.8,29255.4
38744.6,29299.2
38779.1,29350.8
38802.9,29408.1
38815,29469
38815,29531
38802.9,29591.9
38779.1,29649.2
38744.6,29700.8
38700.8,29744.6
38649.2,29779.1
38591.9,29802.9
38551.3,29810.9
38531,29815
38469,29815
38448.7,29810.9
38408.1,29802.9
38350.8,29779.1
38299.2,29744.6
38255.4,29700.8
38220.9,29649.2
38197.1,29591.9
38185,29531
38185,29469
38197.1,29408.1
38220.9,29350.8
38255.4,29299.2
38299.2,29255.4
38350.8,29220.9
38408.1,29197.1
38448.7,29189.1
38469,29185
38531,29185
Z" /> 
<path style="fill:#000000; fill-opacity:1.0; 
stroke:#000000; stroke-width:0; stroke-opacity:1; 
stroke-linecap:round; stroke-linejoin:round;fill-rule:evenodd;"
d="M 39551.3,29189.1
39591.9,29197.1
39649.2,29220.9
39700.8,29255.4
39744.6,29299.2
39779.1,29350.8
39802.9,29408.1
39815,29469
39815,29531
39802.9,29591.9
39779.1,29649.2
39744.6,29700.8
39700.8,29744.6
39649.2,29779.1
39591.9,29802.9
39551.3,29810.9
39531,29815
39469,29815
39448.7,29810.9
39408.1,29802.9
39350.8,29779.1
39299.2,29744.6
39255.4,29700.8
39220.9,29649.2
39197.1,29591.9
39185,29531
39185,29469
39197.1,29408.1
39220.9,29350.8
39255.4,29299.2
39299.2,29255.4
39350.8,29220.9
39408.1,29197.1
39448.7,29189.1
39469,29185
39531,29185
Z" /> 
<path style="fill:#000000; fill-opacity:1.0; 
stroke:#000000; stroke-width:0; stroke-opacity:1; 
stroke-linecap:round; stroke-linejoin:round;fill-rule:evenodd;"
d="M 40551.3,29189.1
40591.9,29197.1
40649.2,29220.9
40700.8,29255.4
40744.6,29299.2
40779.1,29350.8
40802.9,29408.1
40815,29469
40815,29531
40802.9,29591.9
40779.1,29649.2
40744.6,29700.8
40700.8,29744.6
40649.2,29779.1
40591.9,29802.9
40551.3,29810.9
40531,29815
40469,29815
40448.7,29810.9
40408.1,29802.9
40350.8,29779.1
40299.2,29744.6
40255.4,29700.8
40220.9,29649.2
40197.1,29591.9
40185,29531
40185,29469
40197.1,29408.1
40220.9,29350.8
40255.4,29299.2
40299.2,29255.4
40350.8,29220.9
40408.1,29197.1
40448.7,29189.1
40469,29185
40531,29185
Z" /> 
<path style="fill:#000000; fill-opacity:1.0; 
stroke:#000000; stroke-width:0; stroke-opacity:1; 
stroke-linecap:round; stroke-linejoin:round;fill-rule:evenodd;"
d="M 41551.3,29189.1
41591.9,29197.1
41649.2,29220.9
41700.8,29255.4
41744.6,29299.2
41779.1,29350.8
41802.9,29408.1
41815,29469
41815,29531
41802.9,29591.9
41779.1,29649.2
41744.6,29700.8
41700.8,29744.6
41649.2,29779.1
41591.9,29802.9
41551.3,29810.9
41531,29815
41469,29815
41448.7,29810.9
41408.1,29802.9
41350.8,29779.1
41299.2,29744.6
41255.4,29700.8
41220.9,29649.2
41197.1,29591.9
41185,29531
41185,29469
41197.1,29408.1
41220.9,29350.8
41255.4,29299.2
41299.2,29255.4
41350.8,29220.9
41408.1,29197.1
41448.7,29189.1
41469,29185
41531,29185
Z" /> 
<path style="fill:#000000; fill-opacity:1.0; 
stroke:#000000; stroke-width:0; stroke-opacity:1; 
stroke-linecap:round; stroke-linejoin:round;fill-rule:evenodd;"
d="M 42551.3,29189.1
42591.9,29197.1
42649.2,29220.9
42700.8,29255.4
42744.6,29299.2
42779.1,29350.8
42802.9,29408.1
42815,29469
42815,29531
42802.9,29591.9
42779.1,29649.2
42744.6,29700.8
42700.8,29744.6
42649.2,29779.1
42591.9,29802.9
42551.3,29810.9
42531,29815
42469,29815
42448.7,29810.9
42408.1,29802.9
42350.8,29779.1
42299.2,29744.6
42255.4,29700.8
42220.9,29649.2
42197.1,29591.9
42185,29531
42185,29469
42197.1,29408.1
42220.9,29350.8
42255.4,29299.2
42299.2,29255.4
42350.8,29220.9
42408.1,29197.1
42448.7,29189.1
42469,29185
42531,29185
Z" /> 
<path style="fill:#000000; fill-opacity:1.0; 
stroke:#000000; stroke-width:0; stroke-opacity:1; 
stroke-linecap:round; stroke-linejoin:round;fill-rule:evenodd;"
d="M 44551.3,29189.1
44591.9,29197.1
44649.2,29220.9
44700.8,29255.4
44744.6,29299.2
44779.1,29350.8
44802.9,29408.1
44815,29469
44815,29531
44802.9,29591.9
44779.1,29649.2
44744.6,29700.8
44700.8,29744.6
44649.2,29779.1
44591.9,29802.9
44551.3,29810.9
44531,29815
44469,29815
44448.7,29810.9
44408.1,29802.9
44350.8,29779.1
44299.2,29744.6
44255.4,29700.8
44220.9,29649.2
44197.1,29591.9
44185,29531
44185,29469
44197.1,29408.1
44220.9,29350.8
44255.4,29299.2
44299.2,29255.4
44350.8,29220.9
44408.1,29197.1
44448.7,29189.1
44469,29185
44531,29185
Z" /> 
<path style="fill:#000000; fill-opacity:1.0; 
stroke:#000000; stroke-width:0; stroke-opacity:1; 
stroke-linecap:round; stroke-linejoin:round;fill-rule:evenodd;"
d="M 45551.3,29189.1
45591.9,29197.1
45649.2,29220.9
45700.8,29255.4
45744.6,29299.2
45779.1,29350.8
45802.9,29408.1
45815,29469
45815,29531
45802.9,29591.9
45779.1,29649.2
45744.6,29700.8
45700.8,29744.6
45649.2,29779.1
45591.9,29802.9
45551.3,29810.9
45531,29815
45469,29815
45448.7,29810.9
45408.1,29802.9
45350.8,29779.1
45299.2,29744.6
45255.4,29700.8
45220.9,29649.2
45197.1,29591.9
45185,29531
45185,29469
45197.1,29408.1
45220.9,29350.8
45255.4,29299.2
45299.2,29255.4
45350.8,29220.9
45408.1,29197.1
45448.7,29189.1
45469,29185
45531,29185
Z" /> 
<path style="fill:#000000; fill-opacity:1.0; 
stroke:#000000; stroke-width:0; stroke-opacity:1; 
stroke-linecap:round; stroke-linejoin:round;fill-rule:evenodd;"
d="M 46551.3,29189.1
46591.9,29197.1
46649.2,29220.9
46700.8,29255.4
46744.6,29299.2
46779.1,29350.8
46802.9,29408.1
46815,29469
46815,29531
46802.9,29591.9
46779.1,29649.2
46744.6,29700.8
46700.8,29744.6
46649.2,29779.1
46591.9,29802.9
46551.3,29810.9
46531,29815
46469,29815
46448.7,29810.9
46408.1,29802.9
46350.8,29779.1
46299.2,29744.6
46255.4,29700.8
46220.9,29649.2
46197.1,29591.9
46185,29531
46185,29469
46197.1,29408.1
46220.9,29350.8
46255.4,29299.2
46299.2,29255.4
46350.8,29220.9
46408.1,29197.1
46448.7,29189.1
46469,29185
46531,29185
Z" /> 
<path style="fill:#000000; fill-opacity:1.0; 
stroke:#000000; stroke-width:0; stroke-opacity:1; 
stroke-linecap:round; stroke-linejoin:round;fill-rule:evenodd;"
d="M 47551.3,29189.1
47591.9,29197.1
47649.2,29220.9
47700.8,29255.4
47744.6,29299.2
47779.1,29350.8
47802.9,29408.1
47815,29469
47815,29531
47802.9,29591.9
47779.1,29649.2
47744.6,29700.8
47700.8,29744.6
47649.2,29779.1
47591.9,29802.9
47551.3,29810.9
47531,29815
47469,29815
47448.7,29810.9
47408.1,29802.9
47350.8,29779.1
47299.2,29744.6
47255.4,29700.8
47220.9,29649.2
47197.1,29591.9
47185,29531
47185,29469
47197.1,29408.1
47220.9,29350.8
47255.4,29299.2
47299.2,29255.4
47350.8,29220.9
47408.1,29197.1
47448.7,29189.1
47469,29185
47531,29185
Z" /> 
<path style="fill:#000000; fill-opacity:1.0; 
stroke:#000000; stroke-width:0; stroke-opacity:1; 
stroke-linecap:round; stroke-linejoin:round;fill-rule:evenodd;"
d="M 48551.3,29189.1
48591.9,29197.1
48649.2,29220.9
48700.8,29255.4
48744.6,29299.2
48779.1,29350.8
48802.9,29408.1
48815,29469
48815,29531
48802.9,29591.9
48779.1,29649.2
48744.6,29700.8
48700.8,29744.6
48649.2,29779.1
48591.9,29802.9
48551.3,29810.9
48531,29815
48469,29815
48448.7,29810.9
48408.1,29802.9
48350.8,29779.1
48299.2,29744.6
48255.4,29700.8
48220.9,29649.2
48197.1,29591.9
48185,29531
48185,29469
48197.1,29408.1
48220.9,29350.8
48255.4,29299.2
48299.2,29255.4
48350.8,29220.9
48408.1,29197.1
48448.7,29189.1
48469,29185
48531,29185
Z" /> 
<path style="fill:#000000; fill-opacity:1.0; 
stroke:#000000; stroke-width:0; stroke-opacity:1; 
stroke-linecap:round; stroke-linejoin:round;fill-rule:evenodd;"
d="M 34551.3,29189.1
34591.9,29197.1
34649.2,29220.9
34700.8,29255.4
34744.6,29299.2
34779.1,29350.8
34802.9,29408.1
34815,29469
34815,29531
34802.9,29591.9
34779.1,29649.2
34744.6,29700.8
34700.8,29744.6
34649.2,29779.1
34591.9,29802.9
34551.3,29810.9
34531,29815
34469,29815
34448.7,29810.9
34408.1,29802.9
34350.8,29779.1
34299.2,29744.6
34255.4,29700.8
34220.9,29649.2
34197.1,29591.9
34185,29531
34185,29469
34197.1,29408.1
34220.9,29350.8
34255.4,29299.2
34299.2,29255.4
34350.8,29220.9
34408.1,29197.1
34448.7,29189.1
34469,29185
34531,29185
Z" /> 
<path style="fill:#000000; fill-opacity:1.0; 
stroke:#000000; stroke-width:0; stroke-opacity:1; 
stroke-linecap:round; stroke-linejoin:round;fill-rule:evenodd;"
d="M 35551.3,29189.1
35591.9,29197.1
35649.2,29220.9
35700.8,29255.4
35744.6,29299.2
35779.1,29350.8
35802.9,29408.1
35815,29469
35815,29531
35802.9,29591.9
35779.1,29649.2
35744.6,29700.8
35700.8,29744.6
35649.2,29779.1
35591.9,29802.9
35551.3,29810.9
35531,29815
35469,29815
35448.7,29810.9
35408.1,29802.9
35350.8,29779.1
35299.2,29744.6
35255.4,29700.8
35220.9,29649.2
35197.1,29591.9
35185,29531
35185,29469
35197.1,29408.1
35220.9,29350.8
35255.4,29299.2
35299.2,29255.4
35350.8,29220.9
35408.1,29197.1
35448.7,29189.1
35469,29185
35531,29185
Z" /> 
<path style="fill:#000000; fill-opacity:1.0; 
stroke:#000000; stroke-width:0; stroke-opacity:1; 
stroke-linecap:round; stroke-linejoin:round;fill-rule:evenodd;"
d="M 57522.9,28066.1
57593.8,28080.2
57694.2,28121.8
57784.4,28182.1
57861.2,28258.9
57921.5,28349.2
57963.1,28449.5
57967.2,28470.5
57984.3,28555.9
57984.3,28664.5
57978.9,28691.2
57963.1,28771
57921.5,28871.3
57861.2,28961.6
57784.4,29038.4
57694.2,29098.7
57593.8,29140.2
57522.9,29154.4
57487.4,29161.4
57378.8,29161.4
57343.3,29154.4
57272.3,29140.2
57172,29098.7
57081.7,29038.4
57004.9,28961.6
56944.6,28871.3
56903.1,28771
56887.2,28691.2
56881.9,28664.5
56881.9,28555.9
56898.9,28470.5
56903.1,28449.5
56944.6,28349.2
57004.9,28258.9
57081.7,28182.1
57172,28121.8
57272.3,28080.2
57343.3,28066.1
57378.8,28059.1
57487.4,28059.1
Z" /> 
<path style="fill:#000000; fill-opacity:1.0; 
stroke:#000000; stroke-width:0; stroke-opacity:1; 
stroke-linecap:round; stroke-linejoin:round;fill-rule:evenodd;"
d="M 52132.1,28174.9
52214.5,28209
52288.6,28258.6
52351.7,28321.6
52401.2,28395.8
52435.4,28478.2
52452.8,28565.6
52452.8,28654.8
52435.4,28742.3
52401.2,28824.7
52351.7,28898.9
52288.6,28961.9
52214.5,29011.5
52132.1,29045.6
52044.6,29063
51955.4,29063
51867.9,29045.6
51785.5,29011.5
51711.4,28961.9
51648.3,28898.9
51598.8,28824.7
51564.6,28742.3
51547.2,28654.8
51547.2,28565.6
51564.6,28478.2
51598.8,28395.8
51648.3,28321.6
51711.4,28258.6
51785.5,28209
51867.9,28174.9
51955.4,28157.5
52044.6,28157.5
Z" /> 
<path style="fill:#000000; fill-opacity:1.0; 
stroke:#000000; stroke-width:0; stroke-opacity:1; 
stroke-linecap:round; stroke-linejoin:round;fill-rule:evenodd;"
d="M 25048.9,28203.8
25087.5,28211.5
25142.1,28234.1
25142.1,28234.1
25166.7,28250.6
25191.2,28267
25233,28308.8
25265.9,28357.9
25288.5,28412.5
25300,28470.5
25300,28529.5
25288.5,28587.5
25265.9,28642.1
25265.9,28642.1
25257.4,28654.8
25233,28691.2
25191.2,28733
25177.4,28742.3
25142.1,28765.9
25142.1,28765.9
25142.1,28765.9
25087.5,28788.5
25048.9,28796.2
25029.5,28800
24970.5,28800
24951.1,28796.2
24912.5,28788.5
24857.9,28765.9
24857.9,28765.9
24857.9,28765.9
24822.6,28742.3
24808.8,28733
24767,28691.2
24742.6,28654.8
24734.1,28642.1
24734.1,28642.1
24711.5,28587.5
24700,28529.5
24700,28470.5
24711.5,28412.5
24734.1,28357.9
24767,28308.8
24808.8,28267
24833.3,28250.6
24857.9,28234.1
24857.9,28234.1
24912.5,28211.5
24951.1,28203.8
24970.5,28200
25029.5,28200
Z" /> 
<path style="fill:#000000; fill-opacity:1.0; 
stroke:#000000; stroke-width:0; stroke-opacity:1; 
stroke-linecap:round; stroke-linejoin:round;fill-rule:evenodd;"
d="M 30048.9,28203.8
30087.5,28211.5
30142.1,28234.1
30142.1,28234.1
30166.7,28250.6
30191.2,28267
30233,28308.8
30265.9,28357.9
30288.5,28412.5
30300,28470.5
30300,28529.5
30288.5,28587.5
30265.9,28642.1
30265.9,28642.1
30257.4,28654.8
30233,28691.2
30191.2,28733
30177.4,28742.3
30142.1,28765.9
30142.1,28765.9
30142.1,28765.9
30087.5,28788.5
30048.9,28796.2
30029.5,28800
29970.5,28800
29951.1,28796.2
29912.5,28788.5
29857.9,28765.9
29857.9,28765.9
29857.9,28765.9
29822.6,28742.3
29808.8,28733
29767,28691.2
29742.6,28654.8
29734.1,28642.1
29734.1,28642.1
29711.5,28587.5
29700,28529.5
29700,28470.5
29711.5,28412.5
29734.1,28357.9
29767,28308.8
29808.8,28267
29833.3,28250.6
29857.9,28234.1
29857.9,28234.1
29912.5,28211.5
29951.1,28203.8
29970.5,28200
30029.5,28200
Z" /> 
<path style="fill:#000000; fill-opacity:1.0; 
stroke:#000000; stroke-width:0; stroke-opacity:1; 
stroke-linecap:round; stroke-linejoin:round;fill-rule:evenodd;"
d="M 26048.9,28203.8
26087.5,28211.5
26142.1,28234.1
26142.1,28234.1
26166.7,28250.6
26191.2,28267
26233,28308.8
26265.9,28357.9
26288.5,28412.5
26300,28470.5
26300,28529.5
26288.5,28587.5
26265.9,28642.1
26265.9,28642.1
26257.4,28654.8
26233,28691.2
26191.2,28733
26177.4,28742.3
26142.1,28765.9
26142.1,28765.9
26142.1,28765.9
26087.5,28788.5
26048.9,28796.2
26029.5,28800
25970.5,28800
25951.1,28796.2
25912.5,28788.5
25857.9,28765.9
25857.9,28765.9
25857.9,28765.9
25822.6,28742.3
25808.8,28733
25767,28691.2
25742.6,28654.8
25734.1,28642.1
25734.1,28642.1
25711.5,28587.5
25700,28529.5
25700,28470.5
25711.5,28412.5
25734.1,28357.9
25767,28308.8
25808.8,28267
25833.3,28250.6
25857.9,28234.1
25857.9,28234.1
25912.5,28211.5
25951.1,28203.8
25970.5,28200
26029.5,28200
Z" /> 
<path style="fill:#000000; fill-opacity:1.0; 
stroke:#000000; stroke-width:0; stroke-opacity:1; 
stroke-linecap:round; stroke-linejoin:round;fill-rule:evenodd;"
d="M 29048.9,28203.8
29087.5,28211.5
29142.1,28234.1
29142.1,28234.1
29166.7,28250.6
29191.2,28267
29233,28308.8
29265.9,28357.9
29288.5,28412.5
29300,28470.5
29300,28529.5
29288.5,28587.5
29265.9,28642.1
29265.9,28642.1
29257.4,28654.8
29233,28691.2
29191.2,28733
29177.4,28742.3
29142.1,28765.9
29142.1,28765.9
29142.1,28765.9
29087.5,28788.5
29048.9,28796.2
29029.5,28800
28970.5,28800
28951.1,28796.2
28912.5,28788.5
28857.9,28765.9
28857.9,28765.9
28857.9,28765.9
28822.6,28742.3
28808.8,28733
28767,28691.2
28742.6,28654.8
28734.1,28642.1
28734.1,28642.1
28711.5,28587.5
28700,28529.5
28700,28470.5
28711.5,28412.5
28734.1,28357.9
28767,28308.8
28808.8,28267
28833.3,28250.6
28857.9,28234.1
28857.9,28234.1
28912.5,28211.5
28951.1,28203.8
28970.5,28200
29029.5,28200
Z" /> 
<path style="fill:#000000; fill-opacity:1.0; 
stroke:#000000; stroke-width:0; stroke-opacity:1; 
stroke-linecap:round; stroke-linejoin:round;fill-rule:evenodd;"
d="M 27300,28800
26700,28800
26700,28200
27300,28200
Z" /> 
<path style="fill:#000000; fill-opacity:1.0; 
stroke:#000000; stroke-width:0; stroke-opacity:1; 
stroke-linecap:round; stroke-linejoin:round;fill-rule:evenodd;"
d="M 28048.9,28203.8
28087.5,28211.5
28142.1,28234.1
28142.1,28234.1
28166.7,28250.6
28191.2,28267
28233,28308.8
28265.9,28357.9
28288.5,28412.5
28300,28470.5
28300,28529.5
28288.5,28587.5
28265.9,28642.1
28265.9,28642.1
28257.4,28654.8
28233,28691.2
28191.2,28733
28177.4,28742.3
28142.1,28765.9
28142.1,28765.9
28142.1,28765.9
28087.5,28788.5
28048.9,28796.2
28029.5,28800
27970.5,28800
27951.1,28796.2
27912.5,28788.5
27857.9,28765.9
27857.9,28765.9
27857.9,28765.9
27822.6,28742.3
27808.8,28733
27767,28691.2
27742.6,28654.8
27734.1,28642.1
27734.1,28642.1
27711.5,28587.5
27700,28529.5
27700,28470.5
27711.5,28412.5
27734.1,28357.9
27767,28308.8
27808.8,28267
27833.3,28250.6
27857.9,28234.1
27857.9,28234.1
27912.5,28211.5
27951.1,28203.8
27970.5,28200
28029.5,28200
Z" /> 
<path style="fill:#000000; fill-opacity:1.0; 
stroke:#000000; stroke-width:0; stroke-opacity:1; 
stroke-linecap:round; stroke-linejoin:round;fill-rule:evenodd;"
d="M 47596.2,26417
47672.3,26432.1
47779.7,26476.7
47876.5,26541.3
47958.7,26623.5
48023.3,26720.3
48067.9,26827.7
48090.6,26941.8
48090.6,27058.2
48067.9,27172.3
48023.3,27279.7
47958.7,27376.5
47876.5,27458.7
47779.7,27523.3
47672.3,27567.9
47596.2,27583
47558.2,27590.6
47441.8,27590.6
47403.8,27583
47327.7,27567.9
47220.3,27523.3
47123.5,27458.7
47041.3,27376.5
46976.7,27279.7
46932.1,27172.3
46909.4,27058.2
46909.4,26941.8
46932.1,26827.7
46976.7,26720.3
47041.3,26623.5
47123.5,26541.3
47220.3,26476.7
47327.7,26432.1
47403.8,26417
47441.8,26409.4
47558.2,26409.4
Z" /> 
<path style="fill:#000000; fill-opacity:1.0; 
stroke:#000000; stroke-width:0; stroke-opacity:1; 
stroke-linecap:round; stroke-linejoin:round;fill-rule:evenodd;"
d="M 52815,26815
52185,26815
52185,26185
52815,26185
Z" /> 
<path style="fill:#000000; fill-opacity:1.0; 
stroke:#000000; stroke-width:0; stroke-opacity:1; 
stroke-linecap:round; stroke-linejoin:round;fill-rule:evenodd;"
d="M 52551.3,25401.7
52591.9,25409.7
52649.2,25433.5
52700.8,25468
52744.6,25511.8
52779.1,25563.4
52802.9,25620.7
52815,25681.6
52815,25743.6
52802.9,25804.5
52779.1,25861.8
52744.6,25913.4
52700.8,25957.2
52649.2,25991.7
52591.9,26015.5
52551.3,26023.5
52531,26027.6
52469,26027.6
52448.7,26023.5
52408.1,26015.5
52350.8,25991.7
52299.2,25957.2
52255.4,25913.4
52220.9,25861.8
52197.1,25804.5
52185,25743.6
52185,25681.6
52197.1,25620.7
52220.9,25563.4
52255.4,25511.8
52299.2,25468
52350.8,25433.5
52408.1,25409.7
52448.7,25401.7
52469,25397.6
52531,25397.6
Z" /> 
<path style="fill:#000000; fill-opacity:1.0; 
stroke:#000000; stroke-width:0; stroke-opacity:1; 
stroke-linecap:round; stroke-linejoin:round;fill-rule:evenodd;"
d="M 44551.3,23189.1
44591.9,23197.1
44649.2,23220.9
44700.8,23255.4
44744.6,23299.2
44779.1,23350.8
44802.9,23408.1
44815,23469
44815,23531
44802.9,23591.9
44779.1,23649.2
44744.6,23700.8
44700.8,23744.6
44649.2,23779.1
44591.9,23802.9
44551.3,23810.9
44531,23815
44469,23815
44448.7,23810.9
44408.1,23802.9
44350.8,23779.1
44299.2,23744.6
44255.4,23700.8
44220.9,23649.2
44197.1,23591.9
44185,23531
44185,23469
44197.1,23408.1
44220.9,23350.8
44255.4,23299.2
44299.2,23255.4
44350.8,23220.9
44408.1,23197.1
44448.7,23189.1
44469,23185
44531,23185
Z" /> 
<path style="fill:#000000; fill-opacity:1.0; 
stroke:#000000; stroke-width:0; stroke-opacity:1; 
stroke-linecap:round; stroke-linejoin:round;fill-rule:evenodd;"
d="M 35551.3,23189.1
35591.9,23197.1
35649.2,23220.9
35700.8,23255.4
35744.6,23299.2
35779.1,23350.8
35802.9,23408.1
35815,23469
35815,23531
35802.9,23591.9
35779.1,23649.2
35744.6,23700.8
35700.8,23744.6
35649.2,23779.1
35591.9,23802.9
35551.3,23810.9
35531,23815
35469,23815
35448.7,23810.9
35408.1,23802.9
35350.8,23779.1
35299.2,23744.6
35255.4,23700.8
35220.9,23649.2
35197.1,23591.9
35185,23531
35185,23469
35197.1,23408.1
35220.9,23350.8
35255.4,23299.2
35299.2,23255.4
35350.8,23220.9
35408.1,23197.1
35448.7,23189.1
35469,23185
35531,23185
Z" /> 
<path style="fill:#000000; fill-opacity:1.0; 
stroke:#000000; stroke-width:0; stroke-opacity:1; 
stroke-linecap:round; stroke-linejoin:round;fill-rule:evenodd;"
d="M 34551.3,23189.1
34591.9,23197.1
34649.2,23220.9
34700.8,23255.4
34744.6,23299.2
34779.1,23350.8
34802.9,23408.1
34815,23469
34815,23531
34802.9,23591.9
34779.1,23649.2
34744.6,23700.8
34700.8,23744.6
34649.2,23779.1
34591.9,23802.9
34551.3,23810.9
34531,23815
34469,23815
34448.7,23810.9
34408.1,23802.9
34350.8,23779.1
34299.2,23744.6
34255.4,23700.8
34220.9,23649.2
34197.1,23591.9
34185,23531
34185,23469
34197.1,23408.1
34220.9,23350.8
34255.4,23299.2
34299.2,23255.4
34350.8,23220.9
34408.1,23197.1
34448.7,23189.1
34469,23185
34531,23185
Z" /> 
<path style="fill:#000000; fill-opacity:1.0; 
stroke:#000000; stroke-width:0; stroke-opacity:1; 
stroke-linecap:round; stroke-linejoin:round;fill-rule:evenodd;"
d="M 36551.3,23189.1
36591.9,23197.1
36649.2,23220.9
36700.8,23255.4
36744.6,23299.2
36779.1,23350.8
36802.9,23408.1
36815,23469
36815,23531
36802.9,23591.9
36779.1,23649.2
36744.6,23700.8
36700.8,23744.6
36649.2,23779.1
36591.9,23802.9
36551.3,23810.9
36531,23815
36469,23815
36448.7,23810.9
36408.1,23802.9
36350.8,23779.1
36299.2,23744.6
36255.4,23700.8
36220.9,23649.2
36197.1,23591.9
36185,23531
36185,23469
36197.1,23408.1
36220.9,23350.8
36255.4,23299.2
36299.2,23255.4
36350.8,23220.9
36408.1,23197.1
36448.7,23189.1
36469,23185
36531,23185
Z" /> 
<path style="fill:#000000; fill-opacity:1.0; 
stroke:#000000; stroke-width:0; stroke-opacity:1; 
stroke-linecap:round; stroke-linejoin:round;fill-rule:evenodd;"
d="M 37551.3,23189.1
37591.9,23197.1
37649.2,23220.9
37700.8,23255.4
37744.6,23299.2
37779.1,23350.8
37802.9,23408.1
37815,23469
37815,23531
37802.9,23591.9
37779.1,23649.2
37744.6,23700.8
37700.8,23744.6
37649.2,23779.1
37591.9,23802.9
37551.3,23810.9
37531,23815
37469,23815
37448.7,23810.9
37408.1,23802.9
37350.8,23779.1
37299.2,23744.6
37255.4,23700.8
37220.9,23649.2
37197.1,23591.9
37185,23531
37185,23469
37197.1,23408.1
37220.9,23350.8
37255.4,23299.2
37299.2,23255.4
37350.8,23220.9
37408.1,23197.1
37448.7,23189.1
37469,23185
37531,23185
Z" /> 
<path style="fill:#000000; fill-opacity:1.0; 
stroke:#000000; stroke-width:0; stroke-opacity:1; 
stroke-linecap:round; stroke-linejoin:round;fill-rule:evenodd;"
d="M 38551.3,23189.1
38591.9,23197.1
38649.2,23220.9
38700.8,23255.4
38744.6,23299.2
38779.1,23350.8
38802.9,23408.1
38815,23469
38815,23531
38802.9,23591.9
38779.1,23649.2
38744.6,23700.8
38700.8,23744.6
38649.2,23779.1
38591.9,23802.9
38551.3,23810.9
38531,23815
38469,23815
38448.7,23810.9
38408.1,23802.9
38350.8,23779.1
38299.2,23744.6
38255.4,23700.8
38220.9,23649.2
38197.1,23591.9
38185,23531
38185,23469
38197.1,23408.1
38220.9,23350.8
38255.4,23299.2
38299.2,23255.4
38350.8,23220.9
38408.1,23197.1
38448.7,23189.1
38469,23185
38531,23185
Z" /> 
<path style="fill:#000000; fill-opacity:1.0; 
stroke:#000000; stroke-width:0; stroke-opacity:1; 
stroke-linecap:round; stroke-linejoin:round;fill-rule:evenodd;"
d="M 40551.3,23189.1
40591.9,23197.1
40649.2,23220.9
40700.8,23255.4
40744.6,23299.2
40779.1,23350.8
40802.9,23408.1
40815,23469
40815,23531
40802.9,23591.9
40779.1,23649.2
40744.6,23700.8
40700.8,23744.6
40649.2,23779.1
40591.9,23802.9
40551.3,23810.9
40531,23815
40469,23815
40448.7,23810.9
40408.1,23802.9
40350.8,23779.1
40299.2,23744.6
40255.4,23700.8
40220.9,23649.2
40197.1,23591.9
40185,23531
40185,23469
40197.1,23408.1
40220.9,23350.8
40255.4,23299.2
40299.2,23255.4
40350.8,23220.9
40408.1,23197.1
40448.7,23189.1
40469,23185
40531,23185
Z" /> 
<path style="fill:#000000; fill-opacity:1.0; 
stroke:#000000; stroke-width:0; stroke-opacity:1; 
stroke-linecap:round; stroke-linejoin:round;fill-rule:evenodd;"
d="M 39551.3,23189.1
39591.9,23197.1
39649.2,23220.9
39700.8,23255.4
39744.6,23299.2
39779.1,23350.8
39802.9,23408.1
39815,23469
39815,23531
39802.9,23591.9
39779.1,23649.2
39744.6,23700.8
39700.8,23744.6
39649.2,23779.1
39591.9,23802.9
39551.3,23810.9
39531,23815
39469,23815
39448.7,23810.9
39408.1,23802.9
39350.8,23779.1
39299.2,23744.6
39255.4,23700.8
39220.9,23649.2
39197.1,23591.9
39185,23531
39185,23469
39197.1,23408.1
39220.9,23350.8
39255.4,23299.2
39299.2,23255.4
39350.8,23220.9
39408.1,23197.1
39448.7,23189.1
39469,23185
39531,23185
Z" /> 
<path style="fill:#000000; fill-opacity:1.0; 
stroke:#000000; stroke-width:0; stroke-opacity:1; 
stroke-linecap:round; stroke-linejoin:round;fill-rule:evenodd;"
d="M 41551.3,23189.1
41591.9,23197.1
41649.2,23220.9
41700.8,23255.4
41744.6,23299.2
41779.1,23350.8
41802.9,23408.1
41815,23469
41815,23531
41802.9,23591.9
41779.1,23649.2
41744.6,23700.8
41700.8,23744.6
41649.2,23779.1
41591.9,23802.9
41551.3,23810.9
41531,23815
41469,23815
41448.7,23810.9
41408.1,23802.9
41350.8,23779.1
41299.2,23744.6
41255.4,23700.8
41220.9,23649.2
41197.1,23591.9
41185,23531
41185,23469
41197.1,23408.1
41220.9,23350.8
41255.4,23299.2
41299.2,23255.4
41350.8,23220.9
41408.1,23197.1
41448.7,23189.1
41469,23185
41531,23185
Z" /> 
<path style="fill:#000000; fill-opacity:1.0; 
stroke:#000000; stroke-width:0; stroke-opacity:1; 
stroke-linecap:round; stroke-linejoin:round;fill-rule:evenodd;"
d="M 47551.3,23189.1
47591.9,23197.1
47649.2,23220.9
47700.8,23255.4
47744.6,23299.2
47779.1,23350.8
47802.9,23408.1
47815,23469
47815,23531
47802.9,23591.9
47779.1,23649.2
47744.6,23700.8
47700.8,23744.6
47649.2,23779.1
47591.9,23802.9
47551.3,23810.9
47531,23815
47469,23815
47448.7,23810.9
47408.1,23802.9
47350.8,23779.1
47299.2,23744.6
47255.4,23700.8
47220.9,23649.2
47197.1,23591.9
47185,23531
47185,23469
47197.1,23408.1
47220.9,23350.8
47255.4,23299.2
47299.2,23255.4
47350.8,23220.9
47408.1,23197.1
47448.7,23189.1
47469,23185
47531,23185
Z" /> 
<path style="fill:#000000; fill-opacity:1.0; 
stroke:#000000; stroke-width:0; stroke-opacity:1; 
stroke-linecap:round; stroke-linejoin:round;fill-rule:evenodd;"
d="M 42551.3,23189.1
42591.9,23197.1
42649.2,23220.9
42700.8,23255.4
42744.6,23299.2
42779.1,23350.8
42802.9,23408.1
42815,23469
42815,23531
42802.9,23591.9
42779.1,23649.2
42744.6,23700.8
42700.8,23744.6
42649.2,23779.1
42591.9,23802.9
42551.3,23810.9
42531,23815
42469,23815
42448.7,23810.9
42408.1,23802.9
42350.8,23779.1
42299.2,23744.6
42255.4,23700.8
42220.9,23649.2
42197.1,23591.9
42185,23531
42185,23469
42197.1,23408.1
42220.9,23350.8
42255.4,23299.2
42299.2,23255.4
42350.8,23220.9
42408.1,23197.1
42448.7,23189.1
42469,23185
42531,23185
Z" /> 
<path style="fill:#000000; fill-opacity:1.0; 
stroke:#000000; stroke-width:0; stroke-opacity:1; 
stroke-linecap:round; stroke-linejoin:round;fill-rule:evenodd;"
d="M 46551.3,23189.1
46591.9,23197.1
46649.2,23220.9
46700.8,23255.4
46744.6,23299.2
46779.1,23350.8
46802.9,23408.1
46815,23469
46815,23531
46802.9,23591.9
46779.1,23649.2
46744.6,23700.8
46700.8,23744.6
46649.2,23779.1
46591.9,23802.9
46551.3,23810.9
46531,23815
46469,23815
46448.7,23810.9
46408.1,23802.9
46350.8,23779.1
46299.2,23744.6
46255.4,23700.8
46220.9,23649.2
46197.1,23591.9
46185,23531
46185,23469
46197.1,23408.1
46220.9,23350.8
46255.4,23299.2
46299.2,23255.4
46350.8,23220.9
46408.1,23197.1
46448.7,23189.1
46469,23185
46531,23185
Z" /> 
<path style="fill:#000000; fill-opacity:1.0; 
stroke:#000000; stroke-width:0; stroke-opacity:1; 
stroke-linecap:round; stroke-linejoin:round;fill-rule:evenodd;"
d="M 45551.3,23189.1
45591.9,23197.1
45649.2,23220.9
45700.8,23255.4
45744.6,23299.2
45779.1,23350.8
45802.9,23408.1
45815,23469
45815,23531
45802.9,23591.9
45779.1,23649.2
45744.6,23700.8
45700.8,23744.6
45649.2,23779.1
45591.9,23802.9
45551.3,23810.9
45531,23815
45469,23815
45448.7,23810.9
45408.1,23802.9
45350.8,23779.1
45299.2,23744.6
45255.4,23700.8
45220.9,23649.2
45197.1,23591.9
45185,23531
45185,23469
45197.1,23408.1
45220.9,23350.8
45255.4,23299.2
45299.2,23255.4
45350.8,23220.9
45408.1,23197.1
45448.7,23189.1
45469,23185
45531,23185
Z" /> 
<path style="fill:#000000; fill-opacity:1.0; 
stroke:#000000; stroke-width:0; stroke-opacity:1; 
stroke-linecap:round; stroke-linejoin:round;fill-rule:evenodd;"
d="M 43551.3,23189.1
43591.9,23197.1
43649.2,23220.9
43700.8,23255.4
43744.6,23299.2
43779.1,23350.8
43802.9,23408.1
43815,23469
43815,23531
43802.9,23591.9
43779.1,23649.2
43744.6,23700.8
43700.8,23744.6
43649.2,23779.1
43591.9,23802.9
43551.3,23810.9
43531,23815
43469,23815
43448.7,23810.9
43408.1,23802.9
43350.8,23779.1
43299.2,23744.6
43255.4,23700.8
43220.9,23649.2
43197.1,23591.9
43185,23531
43185,23469
43197.1,23408.1
43220.9,23350.8
43255.4,23299.2
43299.2,23255.4
43350.8,23220.9
43408.1,23197.1
43448.7,23189.1
43469,23185
43531,23185
Z" /> 
<path style="fill:#000000; fill-opacity:1.0; 
stroke:#000000; stroke-width:0; stroke-opacity:1; 
stroke-linecap:round; stroke-linejoin:round;fill-rule:evenodd;"
d="M 48815,23815
48185,23815
48185,23185
48815,23185
Z" /> 
<path style="fill:#000000; fill-opacity:1.0; 
stroke:#000000; stroke-width:0; stroke-opacity:1; 
stroke-linecap:round; stroke-linejoin:round;fill-rule:evenodd;"
d="M 56315,23315
55685,23315
55685,22685
56315,22685
Z" /> 
<path style="fill:#000000; fill-opacity:1.0; 
stroke:#000000; stroke-width:0; stroke-opacity:1; 
stroke-linecap:round; stroke-linejoin:round;fill-rule:evenodd;"
d="M 56051.3,21901.7
56091.9,21909.7
56149.2,21933.5
56200.8,21968
56244.6,22011.8
56279.1,22063.4
56302.9,22120.7
56315,22181.6
56315,22243.6
56302.9,22304.5
56279.1,22361.8
56244.6,22413.4
56200.8,22457.2
56149.2,22491.7
56091.9,22515.5
56051.3,22523.5
56031,22527.6
55969,22527.6
55948.7,22523.5
55908.1,22515.5
55850.8,22491.7
55799.2,22457.2
55755.4,22413.4
55720.9,22361.8
55697.1,22304.5
55685,22243.6
55685,22181.6
55697.1,22120.7
55720.9,22063.4
55755.4,22011.8
55799.2,21968
55850.8,21933.5
55908.1,21909.7
55948.7,21901.7
55969,21897.6
56031,21897.6
Z" /> 
<path style="fill:#000000; fill-opacity:1.0; 
stroke:#000000; stroke-width:0; stroke-opacity:1; 
stroke-linecap:round; stroke-linejoin:round;fill-rule:evenodd;"
d="M 48051.3,19189.1
48091.9,19197.1
48149.2,19220.9
48200.8,19255.4
48244.6,19299.2
48279.1,19350.8
48302.9,19408.1
48315,19469
48315,19531
48302.9,19591.9
48279.1,19649.2
48244.6,19700.8
48200.8,19744.6
48149.2,19779.1
48091.9,19802.9
48051.3,19810.9
48031,19815
47969,19815
47948.7,19810.9
47908.1,19802.9
47850.8,19779.1
47799.2,19744.6
47755.4,19700.8
47720.9,19649.2
47697.1,19591.9
47685,19531
47685,19469
47697.1,19408.1
47720.9,19350.8
47755.4,19299.2
47799.2,19255.4
47850.8,19220.9
47908.1,19197.1
47948.7,19189.1
47969,19185
48031,19185
Z" /> 
<path style="fill:#000000; fill-opacity:1.0; 
stroke:#000000; stroke-width:0; stroke-opacity:1; 
stroke-linecap:round; stroke-linejoin:round;fill-rule:evenodd;"
d="M 34551.3,19189.1
34591.9,19197.1
34649.2,19220.9
34700.8,19255.4
34744.6,19299.2
34779.1,19350.8
34802.9,19408.1
34815,19469
34815,19531
34802.9,19591.9
34779.1,19649.2
34744.6,19700.8
34700.8,19744.6
34649.2,19779.1
34591.9,19802.9
34551.3,19810.9
34531,19815
34469,19815
34448.7,19810.9
34408.1,19802.9
34350.8,19779.1
34299.2,19744.6
34255.4,19700.8
34220.9,19649.2
34197.1,19591.9
34185,19531
34185,19469
34197.1,19408.1
34220.9,19350.8
34255.4,19299.2
34299.2,19255.4
34350.8,19220.9
34408.1,19197.1
34448.7,19189.1
34469,19185
34531,19185
Z" /> 
<path style="fill:#000000; fill-opacity:1.0; 
stroke:#000000; stroke-width:0; stroke-opacity:1; 
stroke-linecap:round; stroke-linejoin:round;fill-rule:evenodd;"
d="M 35551.3,19189.1
35591.9,19197.1
35649.2,19220.9
35700.8,19255.4
35744.6,19299.2
35779.1,19350.8
35802.9,19408.1
35815,19469
35815,19531
35802.9,19591.9
35779.1,19649.2
35744.6,19700.8
35700.8,19744.6
35649.2,19779.1
35591.9,19802.9
35551.3,19810.9
35531,19815
35469,19815
35448.7,19810.9
35408.1,19802.9
35350.8,19779.1
35299.2,19744.6
35255.4,19700.8
35220.9,19649.2
35197.1,19591.9
35185,19531
35185,19469
35197.1,19408.1
35220.9,19350.8
35255.4,19299.2
35299.2,19255.4
35350.8,19220.9
35408.1,19197.1
35448.7,19189.1
35469,19185
35531,19185
Z" /> 
<path style="fill:#000000; fill-opacity:1.0; 
stroke:#000000; stroke-width:0; stroke-opacity:1; 
stroke-linecap:round; stroke-linejoin:round;fill-rule:evenodd;"
d="M 36551.3,19189.1
36591.9,19197.1
36649.2,19220.9
36700.8,19255.4
36744.6,19299.2
36779.1,19350.8
36802.9,19408.1
36815,19469
36815,19531
36802.9,19591.9
36779.1,19649.2
36744.6,19700.8
36700.8,19744.6
36649.2,19779.1
36591.9,19802.9
36551.3,19810.9
36531,19815
36469,19815
36448.7,19810.9
36408.1,19802.9
36350.8,19779.1
36299.2,19744.6
36255.4,19700.8
36220.9,19649.2
36197.1,19591.9
36185,19531
36185,19469
36197.1,19408.1
36220.9,19350.8
36255.4,19299.2
36299.2,19255.4
36350.8,19220.9
36408.1,19197.1
36448.7,19189.1
36469,19185
36531,19185
Z" /> 
<path style="fill:#000000; fill-opacity:1.0; 
stroke:#000000; stroke-width:0; stroke-opacity:1; 
stroke-linecap:round; stroke-linejoin:round;fill-rule:evenodd;"
d="M 49051.3,19189.1
49091.9,19197.1
49149.2,19220.9
49200.8,19255.4
49244.6,19299.2
49279.1,19350.8
49302.9,19408.1
49315,19469
49315,19531
49302.9,19591.9
49279.1,19649.2
49244.6,19700.8
49200.8,19744.6
49149.2,19779.1
49091.9,19802.9
49051.3,19810.9
49031,19815
48969,19815
48948.7,19810.9
48908.1,19802.9
48850.8,19779.1
48799.2,19744.6
48755.4,19700.8
48720.9,19649.2
48697.1,19591.9
48685,19531
48685,19469
48697.1,19408.1
48720.9,19350.8
48755.4,19299.2
48799.2,19255.4
48850.8,19220.9
48908.1,19197.1
48948.7,19189.1
48969,19185
49031,19185
Z" /> 
<path style="fill:#000000; fill-opacity:1.0; 
stroke:#000000; stroke-width:0; stroke-opacity:1; 
stroke-linecap:round; stroke-linejoin:round;fill-rule:evenodd;"
d="M 37551.3,19189.1
37591.9,19197.1
37649.2,19220.9
37700.8,19255.4
37744.6,19299.2
37779.1,19350.8
37802.9,19408.1
37815,19469
37815,19531
37802.9,19591.9
37779.1,19649.2
37744.6,19700.8
37700.8,19744.6
37649.2,19779.1
37591.9,19802.9
37551.3,19810.9
37531,19815
37469,19815
37448.7,19810.9
37408.1,19802.9
37350.8,19779.1
37299.2,19744.6
37255.4,19700.8
37220.9,19649.2
37197.1,19591.9
37185,19531
37185,19469
37197.1,19408.1
37220.9,19350.8
37255.4,19299.2
37299.2,19255.4
37350.8,19220.9
37408.1,19197.1
37448.7,19189.1
37469,19185
37531,19185
Z" /> 
<path style="fill:#000000; fill-opacity:1.0; 
stroke:#000000; stroke-width:0; stroke-opacity:1; 
stroke-linecap:round; stroke-linejoin:round;fill-rule:evenodd;"
d="M 50051.3,19189.1
50091.9,19197.1
50149.2,19220.9
50200.8,19255.4
50244.6,19299.2
50279.1,19350.8
50302.9,19408.1
50315,19469
50315,19531
50302.9,19591.9
50279.1,19649.2
50244.6,19700.8
50200.8,19744.6
50149.2,19779.1
50091.9,19802.9
50051.3,19810.9
50031,19815
49969,19815
49948.7,19810.9
49908.1,19802.9
49850.8,19779.1
49799.2,19744.6
49755.4,19700.8
49720.9,19649.2
49697.1,19591.9
49685,19531
49685,19469
49697.1,19408.1
49720.9,19350.8
49755.4,19299.2
49799.2,19255.4
49850.8,19220.9
49908.1,19197.1
49948.7,19189.1
49969,19185
50031,19185
Z" /> 
<path style="fill:#000000; fill-opacity:1.0; 
stroke:#000000; stroke-width:0; stroke-opacity:1; 
stroke-linecap:round; stroke-linejoin:round;fill-rule:evenodd;"
d="M 38551.3,19189.1
38591.9,19197.1
38649.2,19220.9
38700.8,19255.4
38744.6,19299.2
38779.1,19350.8
38802.9,19408.1
38815,19469
38815,19531
38802.9,19591.9
38779.1,19649.2
38744.6,19700.8
38700.8,19744.6
38649.2,19779.1
38591.9,19802.9
38551.3,19810.9
38531,19815
38469,19815
38448.7,19810.9
38408.1,19802.9
38350.8,19779.1
38299.2,19744.6
38255.4,19700.8
38220.9,19649.2
38197.1,19591.9
38185,19531
38185,19469
38197.1,19408.1
38220.9,19350.8
38255.4,19299.2
38299.2,19255.4
38350.8,19220.9
38408.1,19197.1
38448.7,19189.1
38469,19185
38531,19185
Z" /> 
<path style="fill:#000000; fill-opacity:1.0; 
stroke:#000000; stroke-width:0; stroke-opacity:1; 
stroke-linecap:round; stroke-linejoin:round;fill-rule:evenodd;"
d="M 39551.3,19189.1
39591.9,19197.1
39649.2,19220.9
39700.8,19255.4
39744.6,19299.2
39779.1,19350.8
39802.9,19408.1
39815,19469
39815,19531
39802.9,19591.9
39779.1,19649.2
39744.6,19700.8
39700.8,19744.6
39649.2,19779.1
39591.9,19802.9
39551.3,19810.9
39531,19815
39469,19815
39448.7,19810.9
39408.1,19802.9
39350.8,19779.1
39299.2,19744.6
39255.4,19700.8
39220.9,19649.2
39197.1,19591.9
39185,19531
39185,19469
39197.1,19408.1
39220.9,19350.8
39255.4,19299.2
39299.2,19255.4
39350.8,19220.9
39408.1,19197.1
39448.7,19189.1
39469,19185
39531,19185
Z" /> 
<path style="fill:#000000; fill-opacity:1.0; 
stroke:#000000; stroke-width:0; stroke-opacity:1; 
stroke-linecap:round; stroke-linejoin:round;fill-rule:evenodd;"
d="M 52051.3,19189.1
52091.9,19197.1
52149.2,19220.9
52200.8,19255.4
52244.6,19299.2
52279.1,19350.8
52302.9,19408.1
52315,19469
52315,19531
52302.9,19591.9
52279.1,19649.2
52244.6,19700.8
52200.8,19744.6
52149.2,19779.1
52091.9,19802.9
52051.3,19810.9
52031,19815
51969,19815
51948.7,19810.9
51908.1,19802.9
51850.8,19779.1
51799.2,19744.6
51755.4,19700.8
51720.9,19649.2
51697.1,19591.9
51685,19531
51685,19469
51697.1,19408.1
51720.9,19350.8
51755.4,19299.2
51799.2,19255.4
51850.8,19220.9
51908.1,19197.1
51948.7,19189.1
51969,19185
52031,19185
Z" /> 
<path style="fill:#000000; fill-opacity:1.0; 
stroke:#000000; stroke-width:0; stroke-opacity:1; 
stroke-linecap:round; stroke-linejoin:round;fill-rule:evenodd;"
d="M 40551.3,19189.1
40591.9,19197.1
40649.2,19220.9
40700.8,19255.4
40744.6,19299.2
40779.1,19350.8
40802.9,19408.1
40815,19469
40815,19531
40802.9,19591.9
40779.1,19649.2
40744.6,19700.8
40700.8,19744.6
40649.2,19779.1
40591.9,19802.9
40551.3,19810.9
40531,19815
40469,19815
40448.7,19810.9
40408.1,19802.9
40350.8,19779.1
40299.2,19744.6
40255.4,19700.8
40220.9,19649.2
40197.1,19591.9
40185,19531
40185,19469
40197.1,19408.1
40220.9,19350.8
40255.4,19299.2
40299.2,19255.4
40350.8,19220.9
40408.1,19197.1
40448.7,19189.1
40469,19185
40531,19185
Z" /> 
<path style="fill:#000000; fill-opacity:1.0; 
stroke:#000000; stroke-width:0; stroke-opacity:1; 
stroke-linecap:round; stroke-linejoin:round;fill-rule:evenodd;"
d="M 53051.3,19189.1
53091.9,19197.1
53149.2,19220.9
53200.8,19255.4
53244.6,19299.2
53279.1,19350.8
53302.9,19408.1
53315,19469
53315,19531
53302.9,19591.9
53279.1,19649.2
53244.6,19700.8
53200.8,19744.6
53149.2,19779.1
53091.9,19802.9
53051.3,19810.9
53031,19815
52969,19815
52948.7,19810.9
52908.1,19802.9
52850.8,19779.1
52799.2,19744.6
52755.4,19700.8
52720.9,19649.2
52697.1,19591.9
52685,19531
52685,19469
52697.1,19408.1
52720.9,19350.8
52755.4,19299.2
52799.2,19255.4
52850.8,19220.9
52908.1,19197.1
52948.7,19189.1
52969,19185
53031,19185
Z" /> 
<path style="fill:#000000; fill-opacity:1.0; 
stroke:#000000; stroke-width:0; stroke-opacity:1; 
stroke-linecap:round; stroke-linejoin:round;fill-rule:evenodd;"
d="M 41551.3,19189.1
41591.9,19197.1
41649.2,19220.9
41700.8,19255.4
41744.6,19299.2
41779.1,19350.8
41802.9,19408.1
41815,19469
41815,19531
41802.9,19591.9
41779.1,19649.2
41744.6,19700.8
41700.8,19744.6
41649.2,19779.1
41591.9,19802.9
41551.3,19810.9
41531,19815
41469,19815
41448.7,19810.9
41408.1,19802.9
41350.8,19779.1
41299.2,19744.6
41255.4,19700.8
41220.9,19649.2
41197.1,19591.9
41185,19531
41185,19469
41197.1,19408.1
41220.9,19350.8
41255.4,19299.2
41299.2,19255.4
41350.8,19220.9
41408.1,19197.1
41448.7,19189.1
41469,19185
41531,19185
Z" /> 
<path style="fill:#000000; fill-opacity:1.0; 
stroke:#000000; stroke-width:0; stroke-opacity:1; 
stroke-linecap:round; stroke-linejoin:round;fill-rule:evenodd;"
d="M 54051.3,19189.1
54091.9,19197.1
54149.2,19220.9
54200.8,19255.4
54244.6,19299.2
54279.1,19350.8
54302.9,19408.1
54315,19469
54315,19531
54302.9,19591.9
54279.1,19649.2
54244.6,19700.8
54200.8,19744.6
54149.2,19779.1
54091.9,19802.9
54051.3,19810.9
54031,19815
53969,19815
53948.7,19810.9
53908.1,19802.9
53850.8,19779.1
53799.2,19744.6
53755.4,19700.8
53720.9,19649.2
53697.1,19591.9
53685,19531
53685,19469
53697.1,19408.1
53720.9,19350.8
53755.4,19299.2
53799.2,19255.4
53850.8,19220.9
53908.1,19197.1
53948.7,19189.1
53969,19185
54031,19185
Z" /> 
<path style="fill:#000000; fill-opacity:1.0; 
stroke:#000000; stroke-width:0; stroke-opacity:1; 
stroke-linecap:round; stroke-linejoin:round;fill-rule:evenodd;"
d="M 55051.3,19189.1
55091.9,19197.1
55149.2,19220.9
55200.8,19255.4
55244.6,19299.2
55279.1,19350.8
55302.9,19408.1
55315,19469
55315,19531
55302.9,19591.9
55279.1,19649.2
55244.6,19700.8
55200.8,19744.6
55149.2,19779.1
55091.9,19802.9
55051.3,19810.9
55031,19815
54969,19815
54948.7,19810.9
54908.1,19802.9
54850.8,19779.1
54799.2,19744.6
54755.4,19700.8
54720.9,19649.2
54697.1,19591.9
54685,19531
54685,19469
54697.1,19408.1
54720.9,19350.8
54755.4,19299.2
54799.2,19255.4
54850.8,19220.9
54908.1,19197.1
54948.7,19189.1
54969,19185
55031,19185
Z" /> 
<path style="fill:#000000; fill-opacity:1.0; 
stroke:#000000; stroke-width:0; stroke-opacity:1; 
stroke-linecap:round; stroke-linejoin:round;fill-rule:evenodd;"
d="M 51051.3,19189.1
51091.9,19197.1
51149.2,19220.9
51200.8,19255.4
51244.6,19299.2
51279.1,19350.8
51302.9,19408.1
51315,19469
51315,19531
51302.9,19591.9
51279.1,19649.2
51244.6,19700.8
51200.8,19744.6
51149.2,19779.1
51091.9,19802.9
51051.3,19810.9
51031,19815
50969,19815
50948.7,19810.9
50908.1,19802.9
50850.8,19779.1
50799.2,19744.6
50755.4,19700.8
50720.9,19649.2
50697.1,19591.9
50685,19531
50685,19469
50697.1,19408.1
50720.9,19350.8
50755.4,19299.2
50799.2,19255.4
50850.8,19220.9
50908.1,19197.1
50948.7,19189.1
50969,19185
51031,19185
Z" /> 
<path style="fill:#000000; fill-opacity:1.0; 
stroke:#000000; stroke-width:0; stroke-opacity:1; 
stroke-linecap:round; stroke-linejoin:round;fill-rule:evenodd;"
d="M 38551.3,14189.1
38591.9,14197.1
38649.2,14220.9
38700.8,14255.4
38744.6,14299.2
38779.1,14350.8
38802.9,14408.1
38815,14469
38815,14531
38802.9,14591.9
38779.1,14649.2
38744.6,14700.8
38700.8,14744.6
38649.2,14779.1
38591.9,14802.9
38551.3,14810.9
38531,14815
38469,14815
38448.7,14810.9
38408.1,14802.9
38350.8,14779.1
38299.2,14744.6
38255.4,14700.8
38220.9,14649.2
38197.1,14591.9
38185,14531
38185,14469
38197.1,14408.1
38220.9,14350.8
38255.4,14299.2
38299.2,14255.4
38350.8,14220.9
38408.1,14197.1
38448.7,14189.1
38469,14185
38531,14185
Z" /> 
<path style="fill:#000000; fill-opacity:1.0; 
stroke:#000000; stroke-width:0; stroke-opacity:1; 
stroke-linecap:round; stroke-linejoin:round;fill-rule:evenodd;"
d="M 34551.3,14189.1
34591.9,14197.1
34649.2,14220.9
34700.8,14255.4
34744.6,14299.2
34779.1,14350.8
34802.9,14408.1
34815,14469
34815,14531
34802.9,14591.9
34779.1,14649.2
34744.6,14700.8
34700.8,14744.6
34649.2,14779.1
34591.9,14802.9
34551.3,14810.9
34531,14815
34469,14815
34448.7,14810.9
34408.1,14802.9
34350.8,14779.1
34299.2,14744.6
34255.4,14700.8
34220.9,14649.2
34197.1,14591.9
34185,14531
34185,14469
34197.1,14408.1
34220.9,14350.8
34255.4,14299.2
34299.2,14255.4
34350.8,14220.9
34408.1,14197.1
34448.7,14189.1
34469,14185
34531,14185
Z" /> 
<path style="fill:#000000; fill-opacity:1.0; 
stroke:#000000; stroke-width:0; stroke-opacity:1; 
stroke-linecap:round; stroke-linejoin:round;fill-rule:evenodd;"
d="M 35551.3,14189.1
35591.9,14197.1
35649.2,14220.9
35700.8,14255.4
35744.6,14299.2
35779.1,14350.8
35802.9,14408.1
35815,14469
35815,14531
35802.9,14591.9
35779.1,14649.2
35744.6,14700.8
35700.8,14744.6
35649.2,14779.1
35591.9,14802.9
35551.3,14810.9
35531,14815
35469,14815
35448.7,14810.9
35408.1,14802.9
35350.8,14779.1
35299.2,14744.6
35255.4,14700.8
35220.9,14649.2
35197.1,14591.9
35185,14531
35185,14469
35197.1,14408.1
35220.9,14350.8
35255.4,14299.2
35299.2,14255.4
35350.8,14220.9
35408.1,14197.1
35448.7,14189.1
35469,14185
35531,14185
Z" /> 
<path style="fill:#000000; fill-opacity:1.0; 
stroke:#000000; stroke-width:0; stroke-opacity:1; 
stroke-linecap:round; stroke-linejoin:round;fill-rule:evenodd;"
d="M 36551.3,14189.1
36591.9,14197.1
36649.2,14220.9
36700.8,14255.4
36744.6,14299.2
36779.1,14350.8
36802.9,14408.1
36815,14469
36815,14531
36802.9,14591.9
36779.1,14649.2
36744.6,14700.8
36700.8,14744.6
36649.2,14779.1
36591.9,14802.9
36551.3,14810.9
36531,14815
36469,14815
36448.7,14810.9
36408.1,14802.9
36350.8,14779.1
36299.2,14744.6
36255.4,14700.8
36220.9,14649.2
36197.1,14591.9
36185,14531
36185,14469
36197.1,14408.1
36220.9,14350.8
36255.4,14299.2
36299.2,14255.4
36350.8,14220.9
36408.1,14197.1
36448.7,14189.1
36469,14185
36531,14185
Z" /> 
<path style="fill:#000000; fill-opacity:1.0; 
stroke:#000000; stroke-width:0; stroke-opacity:1; 
stroke-linecap:round; stroke-linejoin:round;fill-rule:evenodd;"
d="M 37551.3,14189.1
37591.9,14197.1
37649.2,14220.9
37700.8,14255.4
37744.6,14299.2
37779.1,14350.8
37802.9,14408.1
37815,14469
37815,14531
37802.9,14591.9
37779.1,14649.2
37744.6,14700.8
37700.8,14744.6
37649.2,14779.1
37591.9,14802.9
37551.3,14810.9
37531,14815
37469,14815
37448.7,14810.9
37408.1,14802.9
37350.8,14779.1
37299.2,14744.6
37255.4,14700.8
37220.9,14649.2
37197.1,14591.9
37185,14531
37185,14469
37197.1,14408.1
37220.9,14350.8
37255.4,14299.2
37299.2,14255.4
37350.8,14220.9
37408.1,14197.1
37448.7,14189.1
37469,14185
37531,14185
Z" /> 
<path style="fill:#000000; fill-opacity:1.0; 
stroke:#000000; stroke-width:0; stroke-opacity:1; 
stroke-linecap:round; stroke-linejoin:round;fill-rule:evenodd;"
d="M 40551.3,14189.1
40591.9,14197.1
40649.2,14220.9
40700.8,14255.4
40744.6,14299.2
40779.1,14350.8
40802.9,14408.1
40815,14469
40815,14531
40802.9,14591.9
40779.1,14649.2
40744.6,14700.8
40700.8,14744.6
40649.2,14779.1
40591.9,14802.9
40551.3,14810.9
40531,14815
40469,14815
40448.7,14810.9
40408.1,14802.9
40350.8,14779.1
40299.2,14744.6
40255.4,14700.8
40220.9,14649.2
40197.1,14591.9
40185,14531
40185,14469
40197.1,14408.1
40220.9,14350.8
40255.4,14299.2
40299.2,14255.4
40350.8,14220.9
40408.1,14197.1
40448.7,14189.1
40469,14185
40531,14185
Z" /> 
<path style="fill:#000000; fill-opacity:1.0; 
stroke:#000000; stroke-width:0; stroke-opacity:1; 
stroke-linecap:round; stroke-linejoin:round;fill-rule:evenodd;"
d="M 39551.3,14189.1
39591.9,14197.1
39649.2,14220.9
39700.8,14255.4
39744.6,14299.2
39779.1,14350.8
39802.9,14408.1
39815,14469
39815,14531
39802.9,14591.9
39779.1,14649.2
39744.6,14700.8
39700.8,14744.6
39649.2,14779.1
39591.9,14802.9
39551.3,14810.9
39531,14815
39469,14815
39448.7,14810.9
39408.1,14802.9
39350.8,14779.1
39299.2,14744.6
39255.4,14700.8
39220.9,14649.2
39197.1,14591.9
39185,14531
39185,14469
39197.1,14408.1
39220.9,14350.8
39255.4,14299.2
39299.2,14255.4
39350.8,14220.9
39408.1,14197.1
39448.7,14189.1
39469,14185
39531,14185
Z" /> 
<path style="fill:#000000; fill-opacity:1.0; 
stroke:#000000; stroke-width:0; stroke-opacity:1; 
stroke-linecap:round; stroke-linejoin:round;fill-rule:evenodd;"
d="M 55315,14815
54685,14815
54685,14185
55315,14185
Z" /> 
<path style="fill:#000000; fill-opacity:1.0; 
stroke:#000000; stroke-width:0; stroke-opacity:1; 
stroke-linecap:round; stroke-linejoin:round;fill-rule:evenodd;"
d="M 53051.3,14189.1
53091.9,14197.1
53149.2,14220.9
53200.8,14255.4
53244.6,14299.2
53279.1,14350.8
53302.9,14408.1
53315,14469
53315,14531
53302.9,14591.9
53279.1,14649.2
53244.6,14700.8
53200.8,14744.6
53149.2,14779.1
53091.9,14802.9
53051.3,14810.9
53031,14815
52969,14815
52948.7,14810.9
52908.1,14802.9
52850.8,14779.1
52799.2,14744.6
52755.4,14700.8
52720.9,14649.2
52697.1,14591.9
52685,14531
52685,14469
52697.1,14408.1
52720.9,14350.8
52755.4,14299.2
52799.2,14255.4
52850.8,14220.9
52908.1,14197.1
52948.7,14189.1
52969,14185
53031,14185
Z" /> 
<path style="fill:#000000; fill-opacity:1.0; 
stroke:#000000; stroke-width:0; stroke-opacity:1; 
stroke-linecap:round; stroke-linejoin:round;fill-rule:evenodd;"
d="M 52051.3,14189.1
52091.9,14197.1
52149.2,14220.9
52200.8,14255.4
52244.6,14299.2
52279.1,14350.8
52302.9,14408.1
52315,14469
52315,14531
52302.9,14591.9
52279.1,14649.2
52244.6,14700.8
52200.8,14744.6
52149.2,14779.1
52091.9,14802.9
52051.3,14810.9
52031,14815
51969,14815
51948.7,14810.9
51908.1,14802.9
51850.8,14779.1
51799.2,14744.6
51755.4,14700.8
51720.9,14649.2
51697.1,14591.9
51685,14531
51685,14469
51697.1,14408.1
51720.9,14350.8
51755.4,14299.2
51799.2,14255.4
51850.8,14220.9
51908.1,14197.1
51948.7,14189.1
51969,14185
52031,14185
Z" /> 
<path style="fill:#000000; fill-opacity:1.0; 
stroke:#000000; stroke-width:0; stroke-opacity:1; 
stroke-linecap:round; stroke-linejoin:round;fill-rule:evenodd;"
d="M 51051.3,14189.1
51091.9,14197.1
51149.2,14220.9
51200.8,14255.4
51244.6,14299.2
51279.1,14350.8
51302.9,14408.1
51315,14469
51315,14531
51302.9,14591.9
51279.1,14649.2
51244.6,14700.8
51200.8,14744.6
51149.2,14779.1
51091.9,14802.9
51051.3,14810.9
51031,14815
50969,14815
50948.7,14810.9
50908.1,14802.9
50850.8,14779.1
50799.2,14744.6
50755.4,14700.8
50720.9,14649.2
50697.1,14591.9
50685,14531
50685,14469
50697.1,14408.1
50720.9,14350.8
50755.4,14299.2
50799.2,14255.4
50850.8,14220.9
50908.1,14197.1
50948.7,14189.1
50969,14185
51031,14185
Z" /> 
<path style="fill:#000000; fill-opacity:1.0; 
stroke:#000000; stroke-width:0; stroke-opacity:1; 
stroke-linecap:round; stroke-linejoin:round;fill-rule:evenodd;"
d="M 50051.3,14189.1
50091.9,14197.1
50149.2,14220.9
50200.8,14255.4
50244.6,14299.2
50279.1,14350.8
50302.9,14408.1
50315,14469
50315,14531
50302.9,14591.9
50279.1,14649.2
50244.6,14700.8
50200.8,14744.6
50149.2,14779.1
50091.9,14802.9
50051.3,14810.9
50031,14815
49969,14815
49948.7,14810.9
49908.1,14802.9
49850.8,14779.1
49799.2,14744.6
49755.4,14700.8
49720.9,14649.2
49697.1,14591.9
49685,14531
49685,14469
49697.1,14408.1
49720.9,14350.8
49755.4,14299.2
49799.2,14255.4
49850.8,14220.9
49908.1,14197.1
49948.7,14189.1
49969,14185
50031,14185
Z" /> 
<path style="fill:#000000; fill-opacity:1.0; 
stroke:#000000; stroke-width:0; stroke-opacity:1; 
stroke-linecap:round; stroke-linejoin:round;fill-rule:evenodd;"
d="M 49051.3,14189.1
49091.9,14197.1
49149.2,14220.9
49200.8,14255.4
49244.6,14299.2
49279.1,14350.8
49302.9,14408.1
49315,14469
49315,14531
49302.9,14591.9
49279.1,14649.2
49244.6,14700.8
49200.8,14744.6
49149.2,14779.1
49091.9,14802.9
49051.3,14810.9
49031,14815
48969,14815
48948.7,14810.9
48908.1,14802.9
48850.8,14779.1
48799.2,14744.6
48755.4,14700.8
48720.9,14649.2
48697.1,14591.9
48685,14531
48685,14469
48697.1,14408.1
48720.9,14350.8
48755.4,14299.2
48799.2,14255.4
48850.8,14220.9
48908.1,14197.1
48948.7,14189.1
48969,14185
49031,14185
Z" /> 
<path style="fill:#000000; fill-opacity:1.0; 
stroke:#000000; stroke-width:0; stroke-opacity:1; 
stroke-linecap:round; stroke-linejoin:round;fill-rule:evenodd;"
d="M 48051.3,14189.1
48091.9,14197.1
48149.2,14220.9
48200.8,14255.4
48244.6,14299.2
48279.1,14350.8
48302.9,14408.1
48315,14469
48315,14531
48302.9,14591.9
48279.1,14649.2
48244.6,14700.8
48200.8,14744.6
48149.2,14779.1
48091.9,14802.9
48051.3,14810.9
48031,14815
47969,14815
47948.7,14810.9
47908.1,14802.9
47850.8,14779.1
47799.2,14744.6
47755.4,14700.8
47720.9,14649.2
47697.1,14591.9
47685,14531
47685,14469
47697.1,14408.1
47720.9,14350.8
47755.4,14299.2
47799.2,14255.4
47850.8,14220.9
47908.1,14197.1
47948.7,14189.1
47969,14185
48031,14185
Z" /> 
<path style="fill:#000000; fill-opacity:1.0; 
stroke:#000000; stroke-width:0; stroke-opacity:1; 
stroke-linecap:round; stroke-linejoin:round;fill-rule:evenodd;"
d="M 41815,14815
41185,14815
41185,14185
41815,14185
Z" /> 
<path style="fill:#000000; fill-opacity:1.0; 
stroke:#000000; stroke-width:0; stroke-opacity:1; 
stroke-linecap:round; stroke-linejoin:round;fill-rule:evenodd;"
d="M 54051.3,14189.1
54091.9,14197.1
54149.2,14220.9
54200.8,14255.4
54244.6,14299.2
54279.1,14350.8
54302.9,14408.1
54315,14469
54315,14531
54302.9,14591.9
54279.1,14649.2
54244.6,14700.8
54200.8,14744.6
54149.2,14779.1
54091.9,14802.9
54051.3,14810.9
54031,14815
53969,14815
53948.7,14810.9
53908.1,14802.9
53850.8,14779.1
53799.2,14744.6
53755.4,14700.8
53720.9,14649.2
53697.1,14591.9
53685,14531
53685,14469
53697.1,14408.1
53720.9,14350.8
53755.4,14299.2
53799.2,14255.4
53850.8,14220.9
53908.1,14197.1
53948.7,14189.1
53969,14185
54031,14185
Z" /> 
<path style="fill:#000000; fill-opacity:1.0; 
stroke:#000000; stroke-width:0; stroke-opacity:1; 
stroke-linecap:round; stroke-linejoin:round;fill-rule:evenodd;"
d="M 45815,14315
45185,14315
45185,13685
45815,13685
Z" /> 
<path style="fill:#000000; fill-opacity:1.0; 
stroke:#000000; stroke-width:0; stroke-opacity:1; 
stroke-linecap:round; stroke-linejoin:round;fill-rule:evenodd;"
d="M 32315,14315
31685,14315
31685,13685
32315,13685
Z" /> 
<path style="fill:#000000; fill-opacity:1.0; 
stroke:#000000; stroke-width:0; stroke-opacity:1; 
stroke-linecap:round; stroke-linejoin:round;fill-rule:evenodd;"
d="M 25096.2,12417
25172.3,12432.1
25279.7,12476.7
25376.5,12541.3
25458.7,12623.5
25523.3,12720.3
25567.9,12827.7
25581.8,12897.6
25590.6,12941.8
25590.6,13058.2
25589.5,13063.4
25567.9,13172.3
25523.3,13279.7
25458.7,13376.5
25376.5,13458.7
25279.7,13523.3
25172.3,13567.9
25096.2,13583
25058.2,13590.6
24941.8,13590.6
24903.8,13583
24827.7,13567.9
24720.3,13523.3
24623.5,13458.7
24541.3,13376.5
24476.7,13279.7
24432.1,13172.3
24410.5,13063.4
24409.4,13058.2
24409.4,12941.8
24418.2,12897.6
24432.1,12827.7
24476.7,12720.3
24541.3,12623.5
24623.5,12541.3
24720.3,12476.7
24827.7,12432.1
24903.8,12417
24941.8,12409.4
25058.2,12409.4
Z" /> 
<path style="fill:#000000; fill-opacity:1.0; 
stroke:#000000; stroke-width:0; stroke-opacity:1; 
stroke-linecap:round; stroke-linejoin:round;fill-rule:evenodd;"
d="M 57596.2,12417
57672.3,12432.1
57779.7,12476.7
57876.5,12541.3
57958.7,12623.5
58023.3,12720.3
58067.9,12827.7
58081.8,12897.6
58090.6,12941.8
58090.6,13058.2
58089.5,13063.4
58067.9,13172.3
58023.3,13279.7
57958.7,13376.5
57876.5,13458.7
57779.7,13523.3
57672.3,13567.9
57596.2,13583
57558.2,13590.6
57441.8,13590.6
57403.8,13583
57327.7,13567.9
57220.3,13523.3
57123.5,13458.7
57041.3,13376.5
56976.7,13279.7
56932.1,13172.3
56910.5,13063.4
56909.4,13058.2
56909.4,12941.8
56918.2,12897.6
56932.1,12827.7
56976.7,12720.3
57041.3,12623.5
57123.5,12541.3
57220.3,12476.7
57327.7,12432.1
57403.8,12417
57441.8,12409.4
57558.2,12409.4
Z" /> 
<path style="fill:#000000; fill-opacity:1.0; 
stroke:#000000; stroke-width:0; stroke-opacity:1; 
stroke-linecap:round; stroke-linejoin:round;fill-rule:evenodd;"
d="M 32051.3,12901.7
32091.9,12909.7
32149.2,12933.5
32200.8,12968
32244.6,13011.8
32279.1,13063.4
32302.9,13120.7
32315,13181.6
32315,13243.6
32302.9,13304.5
32279.1,13361.8
32244.6,13413.4
32200.8,13457.2
32149.2,13491.7
32091.9,13515.5
32052.2,13523.3
32031,13527.6
31969,13527.6
31947.8,13523.3
31908.1,13515.5
31850.8,13491.7
31799.2,13457.2
31755.4,13413.4
31720.9,13361.8
31697.1,13304.5
31685,13243.6
31685,13181.6
31697.1,13120.7
31720.9,13063.4
31755.4,13011.8
31799.2,12968
31850.8,12933.5
31908.1,12909.7
31948.7,12901.7
31969,12897.6
32031,12897.6
Z" /> 
<path style="fill:#000000; fill-opacity:1.0; 
stroke:#000000; stroke-width:0; stroke-opacity:1; 
stroke-linecap:round; stroke-linejoin:round;fill-rule:evenodd;"
d="M 45551.3,12901.7
45591.9,12909.7
45649.2,12933.5
45700.8,12968
45744.6,13011.8
45779.1,13063.4
45802.9,13120.7
45815,13181.6
45815,13243.6
45802.9,13304.5
45779.1,13361.8
45744.6,13413.4
45700.8,13457.2
45649.2,13491.7
45591.9,13515.5
45552.2,13523.3
45531,13527.6
45469,13527.6
45447.8,13523.3
45408.1,13515.5
45350.8,13491.7
45299.2,13457.2
45255.4,13413.4
45220.9,13361.8
45197.1,13304.5
45185,13243.6
45185,13181.6
45197.1,13120.7
45220.9,13063.4
45255.4,13011.8
45299.2,12968
45350.8,12933.5
45408.1,12909.7
45448.7,12901.7
45469,12897.6
45531,12897.6
Z" /> 
<path style="fill:#000000; fill-opacity:1.0; 
stroke:#000000; stroke-width:0; stroke-opacity:1; 
stroke-linecap:round; stroke-linejoin:round;fill-rule:evenodd;"
d="M 50334.6,12834.6
49665.4,12834.6
49665.4,12165.4
50334.6,12165.4
Z" /> 
<path style="fill:#000000; fill-opacity:1.0; 
stroke:#000000; stroke-width:0; stroke-opacity:1; 
stroke-linecap:round; stroke-linejoin:round;fill-rule:evenodd;"
d="M 53097.6,12178.2
53158.5,12203.4
53185.9,12221.7
53213.3,12240.1
53259.9,12286.7
53278.3,12314.1
53296.6,12341.5
53321.8,12402.4
53334.6,12467
53334.6,12533
53321.8,12597.6
53296.6,12658.5
53278.3,12685.9
53259.9,12713.3
53213.3,12759.9
53185.9,12778.3
53158.5,12796.6
53097.6,12821.8
53033,12834.6
52967,12834.6
52902.4,12821.8
52841.5,12796.6
52814.1,12778.3
52786.7,12759.9
52740.1,12713.3
52721.7,12685.9
52703.4,12658.5
52678.2,12597.6
52665.4,12533
52665.4,12467
52678.2,12402.4
52703.4,12341.5
52721.7,12314.1
52740.1,12286.7
52786.7,12240.1
52814.1,12221.7
52841.5,12203.4
52902.4,12178.2
52967,12165.4
53033,12165.4
Z" /> 
<path style="fill:#000000; fill-opacity:1.0; 
stroke:#000000; stroke-width:0; stroke-opacity:1; 
stroke-linecap:round; stroke-linejoin:round;fill-rule:evenodd;"
d="M 52097.6,12178.2
52158.5,12203.4
52185.9,12221.7
52213.3,12240.1
52259.9,12286.7
52278.3,12314.1
52296.6,12341.5
52321.8,12402.4
52334.6,12467
52334.6,12533
52321.8,12597.6
52296.6,12658.5
52278.3,12685.9
52259.9,12713.3
52213.3,12759.9
52185.9,12778.3
52158.5,12796.6
52097.6,12821.8
52033,12834.6
51967,12834.6
51902.4,12821.8
51841.5,12796.6
51814.1,12778.3
51786.7,12759.9
51740.1,12713.3
51721.7,12685.9
51703.4,12658.5
51678.2,12597.6
51665.4,12533
51665.4,12467
51678.2,12402.4
51703.4,12341.5
51721.7,12314.1
51740.1,12286.7
51786.7,12240.1
51814.1,12221.7
51841.5,12203.4
51902.4,12178.2
51967,12165.4
52033,12165.4
Z" /> 
<path style="fill:#000000; fill-opacity:1.0; 
stroke:#000000; stroke-width:0; stroke-opacity:1; 
stroke-linecap:round; stroke-linejoin:round;fill-rule:evenodd;"
d="M 51097.6,12178.2
51158.5,12203.4
51185.9,12221.7
51213.3,12240.1
51259.9,12286.7
51278.3,12314.1
51296.6,12341.5
51321.8,12402.4
51334.6,12467
51334.6,12533
51321.8,12597.6
51296.6,12658.5
51278.3,12685.9
51259.9,12713.3
51213.3,12759.9
51185.9,12778.3
51158.5,12796.6
51097.6,12821.8
51033,12834.6
50967,12834.6
50902.4,12821.8
50841.5,12796.6
50814.1,12778.3
50786.7,12759.9
50740.1,12713.3
50721.7,12685.9
50703.4,12658.5
50678.2,12597.6
50665.4,12533
50665.4,12467
50678.2,12402.4
50703.4,12341.5
50721.7,12314.1
50740.1,12286.7
50786.7,12240.1
50814.1,12221.7
50841.5,12203.4
50902.4,12178.2
50967,12165.4
51033,12165.4
Z" /> 
<path style="fill:#000000; fill-opacity:1.0; 
stroke:#000000; stroke-width:0; stroke-opacity:1; 
stroke-linecap:round; stroke-linejoin:round;fill-rule:evenodd;"
d="M 36834.6,12834.6
36165.4,12834.6
36165.4,12165.4
36834.6,12165.4
Z" /> 
<path style="fill:#000000; fill-opacity:1.0; 
stroke:#000000; stroke-width:0; stroke-opacity:1; 
stroke-linecap:round; stroke-linejoin:round;fill-rule:evenodd;"
d="M 37597.6,12178.2
37658.5,12203.4
37685.9,12221.7
37713.3,12240.1
37759.9,12286.7
37778.3,12314.1
37796.6,12341.5
37821.8,12402.4
37834.6,12467
37834.6,12533
37821.8,12597.6
37796.6,12658.5
37778.3,12685.9
37759.9,12713.3
37713.3,12759.9
37685.9,12778.3
37658.5,12796.6
37597.6,12821.8
37533,12834.6
37467,12834.6
37402.4,12821.8
37341.5,12796.6
37314.1,12778.3
37286.7,12759.9
37240.1,12713.3
37221.7,12685.9
37203.4,12658.5
37178.2,12597.6
37165.4,12533
37165.4,12467
37178.2,12402.4
37203.4,12341.5
37221.7,12314.1
37240.1,12286.7
37286.7,12240.1
37314.1,12221.7
37341.5,12203.4
37402.4,12178.2
37467,12165.4
37533,12165.4
Z" /> 
<path style="fill:#000000; fill-opacity:1.0; 
stroke:#000000; stroke-width:0; stroke-opacity:1; 
stroke-linecap:round; stroke-linejoin:round;fill-rule:evenodd;"
d="M 39597.6,12178.2
39658.5,12203.4
39685.9,12221.7
39713.3,12240.1
39759.9,12286.7
39778.3,12314.1
39796.6,12341.5
39821.8,12402.4
39834.6,12467
39834.6,12533
39821.8,12597.6
39796.6,12658.5
39778.3,12685.9
39759.9,12713.3
39713.3,12759.9
39685.9,12778.3
39658.5,12796.6
39597.6,12821.8
39533,12834.6
39467,12834.6
39402.4,12821.8
39341.5,12796.6
39314.1,12778.3
39286.7,12759.9
39240.1,12713.3
39221.7,12685.9
39203.4,12658.5
39178.2,12597.6
39165.4,12533
39165.4,12467
39178.2,12402.4
39203.4,12341.5
39221.7,12314.1
39240.1,12286.7
39286.7,12240.1
39314.1,12221.7
39341.5,12203.4
39402.4,12178.2
39467,12165.4
39533,12165.4
Z" /> 
<path style="fill:#000000; fill-opacity:1.0; 
stroke:#000000; stroke-width:0; stroke-opacity:1; 
stroke-linecap:round; stroke-linejoin:round;fill-rule:evenodd;"
d="M 38597.6,12178.2
38658.5,12203.4
38685.9,12221.7
38713.3,12240.1
38759.9,12286.7
38778.3,12314.1
38796.6,12341.5
38821.8,12402.4
38834.6,12467
38834.6,12533
38821.8,12597.6
38796.6,12658.5
38778.3,12685.9
38759.9,12713.3
38713.3,12759.9
38685.9,12778.3
38658.5,12796.6
38597.6,12821.8
38533,12834.6
38467,12834.6
38402.4,12821.8
38341.5,12796.6
38314.1,12778.3
38286.7,12759.9
38240.1,12713.3
38221.7,12685.9
38203.4,12658.5
38178.2,12597.6
38165.4,12533
38165.4,12467
38178.2,12402.4
38203.4,12341.5
38221.7,12314.1
38240.1,12286.7
38286.7,12240.1
38314.1,12221.7
38341.5,12203.4
38402.4,12178.2
38467,12165.4
38533,12165.4
Z" /> 
</g> 
</svg>
