<?xml version="1.0" standalone="no"?>
 <!DOCTYPE svg PUBLIC "-//W3C//DTD SVG 1.1//EN" 
 "http://www.w3.org/Graphics/SVG/1.1/DTD/svg11.dtd"> 
<svg
  xmlns:svg="http://www.w3.org/2000/svg"
  xmlns="http://www.w3.org/2000/svg"
  xmlns:xlink="http://www.w3.org/1999/xlink"
  version="1.1"
  width="29.700220cm" height="21.000720cm" viewBox="0 0 116930 82680">
<title>SVG Picture created as Astrotracker_Mainboard-F_SilkS.svg date 2020/09/11 16:13:28 </title>
  <desc>Picture generated by PCBNEW </desc>
<g style="fill:#000000; fill-opacity:1;stroke:#000000; stroke-opacity:1;
stroke-linecap:round; stroke-linejoin:round;"
 transform="translate(0 0) scale(1 1)">
</g>
<g style="fill:#000000; fill-opacity:0.0; 
stroke:#000000; stroke-width:-0.000393701; stroke-opacity:1; 
stroke-linecap:round; stroke-linejoin:round;">
</g>
<g style="fill:#000000; fill-opacity:0.0; 
stroke:#000000; stroke-width:47.2441; stroke-opacity:1; 
stroke-linecap:round; stroke-linejoin:round;">
<path d="M32000 28000
L32000 25000
" />
<path d="M36000 28000
L32000 28000
" />
<path d="M36000 25000
L36000 28000
" />
<path d="M32000 25000
L36000 25000
" />
<path d="M30500 28000
L24500 28000
" />
<path d="M30500 14000
L30500 28000
" />
<path d="M24500 14000
L30500 14000
" />
<path d="M24500 28000
L24500 14000
" />
</g>
<g style="fill:#000000; fill-opacity:0.0; 
stroke:#000000; stroke-width:59.0551; stroke-opacity:1; 
stroke-linecap:round; stroke-linejoin:round;">
<text x="53500" y="28796.9"
textLength="1651.57" font-size="524.934" lengthAdjust="spacingAndGlyphs"
text-anchor="middle" opacity="0">+12V</text>
<path d="M52806 28628
L53106 28628
" />
<path d="M52956 28778
L52956 28478
" />
<path d="M53500 28778
L53275 28778
" />
<path d="M53387 28778
L53387 28384
L53350 28440
L53312 28478
L53275 28496
" />
<path d="M53649 28421
L53668 28403
L53706 28384
L53799 28384
L53837 28403
L53856 28421
L53874 28459
L53874 28496
L53856 28553
L53631 28778
L53874 28778
" />
<path d="M53987 28384
L54118 28778
L54249 28384
" />
<text x="53300" y="30696.9"
textLength="1276.62" font-size="524.934" lengthAdjust="spacingAndGlyphs"
text-anchor="middle" opacity="0">GND</text>
<path d="M53000 30303
L52962 30284
L52906 30284
L52850 30303
L52812 30340
L52793 30378
L52775 30453
L52775 30509
L52793 30584
L52812 30621
L52850 30659
L52906 30678
L52943 30678
L53000 30659
L53018 30640
L53018 30509
L52943 30509
" />
<path d="M53187 30678
L53187 30284
L53412 30678
L53412 30284
" />
<path d="M53599 30678
L53599 30284
L53693 30284
L53749 30303
L53787 30340
L53806 30378
L53824 30453
L53824 30509
L53806 30584
L53787 30621
L53749 30659
L53693 30678
L53599 30678
" />
<g transform="rotate(-90 34500 16000)">
<text x="34500" y="16196.9"
textLength="1576.58" font-size="524.934" lengthAdjust="spacingAndGlyphs"
text-anchor="middle" opacity="0">VMOT</text>
</g>
<path d="M34284 16712
L34678 16581
L34284 16449
" />
<path d="M34678 16318
L34284 16318
L34565 16187
L34284 16056
L34678 16056
" />
<path d="M34284 15793
L34284 15718
L34303 15681
L34340 15643
L34415 15625
L34546 15625
L34621 15643
L34659 15681
L34678 15718
L34678 15793
L34659 15831
L34621 15868
L34546 15887
L34415 15887
L34340 15868
L34303 15831
L34284 15793
" />
<path d="M34284 15512
L34284 15287
" />
<path d="M34678 15400
L34284 15400
" />
<g transform="rotate(-90 48000 16000)">
<text x="48000" y="16196.9"
textLength="1576.58" font-size="524.934" lengthAdjust="spacingAndGlyphs"
text-anchor="middle" opacity="0">VMOT</text>
</g>
<path d="M47784 16712
L48178 16581
L47784 16449
" />
<path d="M48178 16318
L47784 16318
L48065 16187
L47784 16056
L48178 16056
" />
<path d="M47784 15793
L47784 15718
L47803 15681
L47840 15643
L47915 15625
L48046 15625
L48121 15643
L48159 15681
L48178 15718
L48178 15793
L48159 15831
L48121 15868
L48046 15887
L47915 15887
L47840 15868
L47803 15831
L47784 15793
" />
<path d="M47784 15512
L47784 15287
" />
<path d="M48178 15400
L47784 15400
" />
<text x="52500" y="24696.9"
textLength="1895.29" font-size="524.934" lengthAdjust="spacingAndGlyphs"
text-anchor="middle" opacity="0">100nF</text>
<path d="M51890 24678
L51665 24678
" />
<path d="M51778 24678
L51778 24284
L51740 24340
L51703 24378
L51665 24396
" />
<path d="M52134 24284
L52171 24284
L52209 24303
L52228 24321
L52246 24359
L52265 24434
L52265 24528
L52246 24603
L52228 24640
L52209 24659
L52171 24678
L52134 24678
L52096 24659
L52078 24640
L52059 24603
L52040 24528
L52040 24434
L52059 24359
L52078 24321
L52096 24303
L52134 24284
" />
<path d="M52509 24284
L52546 24284
L52584 24303
L52603 24321
L52621 24359
L52640 24434
L52640 24528
L52621 24603
L52603 24640
L52584 24659
L52546 24678
L52509 24678
L52471 24659
L52453 24640
L52434 24603
L52415 24528
L52415 24434
L52434 24359
L52453 24321
L52471 24303
L52509 24284
" />
<path d="M52809 24415
L52809 24678
" />
<path d="M52809 24453
L52828 24434
L52865 24415
L52921 24415
L52959 24434
L52978 24471
L52978 24678
" />
<path d="M53296 24471
L53165 24471
" />
<path d="M53165 24678
L53165 24284
L53353 24284
" />
<text x="57500" y="23696.9"
textLength="1520.34" font-size="524.934" lengthAdjust="spacingAndGlyphs"
text-anchor="middle" opacity="0">10uF</text>
<path d="M57078 23678
L56853 23678
" />
<path d="M56965 23678
L56965 23284
L56928 23340
L56890 23378
L56853 23396
" />
<path d="M57321 23284
L57359 23284
L57396 23303
L57415 23321
L57434 23359
L57453 23434
L57453 23528
L57434 23603
L57415 23640
L57396 23659
L57359 23678
L57321 23678
L57284 23659
L57265 23640
L57246 23603
L57228 23528
L57228 23434
L57246 23359
L57265 23321
L57284 23303
L57321 23284
" />
<path d="M57790 23415
L57790 23678
" />
<path d="M57621 23415
L57621 23621
L57640 23659
L57678 23678
L57734 23678
L57771 23659
L57790 23640
" />
<path d="M58109 23471
L57978 23471
" />
<path d="M57978 23678
L57978 23284
L58165 23284
" />
<text x="45500" y="16196.9"
textLength="1895.29" font-size="524.934" lengthAdjust="spacingAndGlyphs"
text-anchor="middle" opacity="0">100uF</text>
<path d="M44890 16178
L44665 16178
" />
<path d="M44778 16178
L44778 15784
L44740 15840
L44703 15878
L44665 15896
" />
<path d="M45134 15784
L45171 15784
L45209 15803
L45228 15821
L45246 15859
L45265 15934
L45265 16028
L45246 16103
L45228 16140
L45209 16159
L45171 16178
L45134 16178
L45096 16159
L45078 16140
L45059 16103
L45040 16028
L45040 15934
L45059 15859
L45078 15821
L45096 15803
L45134 15784
" />
<path d="M45509 15784
L45546 15784
L45584 15803
L45603 15821
L45621 15859
L45640 15934
L45640 16028
L45621 16103
L45603 16140
L45584 16159
L45546 16178
L45509 16178
L45471 16159
L45453 16140
L45434 16103
L45415 16028
L45415 15934
L45434 15859
L45453 15821
L45471 15803
L45509 15784
" />
<path d="M45978 15915
L45978 16178
" />
<path d="M45809 15915
L45809 16121
L45828 16159
L45865 16178
L45921 16178
L45959 16159
L45978 16140
" />
<path d="M46296 15971
L46165 15971
" />
<path d="M46165 16178
L46165 15784
L46353 15784
" />
<text x="32000" y="16196.9"
textLength="1895.29" font-size="524.934" lengthAdjust="spacingAndGlyphs"
text-anchor="middle" opacity="0">100uF</text>
<path d="M31390 16178
L31165 16178
" />
<path d="M31278 16178
L31278 15784
L31240 15840
L31203 15878
L31165 15896
" />
<path d="M31634 15784
L31671 15784
L31709 15803
L31728 15821
L31746 15859
L31765 15934
L31765 16028
L31746 16103
L31728 16140
L31709 16159
L31671 16178
L31634 16178
L31596 16159
L31578 16140
L31559 16103
L31540 16028
L31540 15934
L31559 15859
L31578 15821
L31596 15803
L31634 15784
" />
<path d="M32009 15784
L32046 15784
L32084 15803
L32103 15821
L32121 15859
L32140 15934
L32140 16028
L32121 16103
L32103 16140
L32084 16159
L32046 16178
L32009 16178
L31971 16159
L31953 16140
L31934 16103
L31915 16028
L31915 15934
L31934 15859
L31953 15821
L31971 15803
L32009 15784
" />
<path d="M32478 15915
L32478 16178
" />
<path d="M32309 15915
L32309 16121
L32328 16159
L32365 16178
L32421 16178
L32459 16159
L32478 16140
" />
<path d="M32796 15971
L32665 15971
" />
<path d="M32665 16178
L32665 15784
L32853 15784
" />
<text x="51500" y="16872"
textLength="2720.19" font-size="524.934" lengthAdjust="spacingAndGlyphs"
text-anchor="middle" opacity="0">TMC2209</text>
<path d="M50215 16459
L50440 16459
" />
<path d="M50328 16853
L50328 16459
" />
<path d="M50571 16853
L50571 16459
L50703 16740
L50834 16459
L50834 16853
" />
<path d="M51246 16815
L51228 16834
L51171 16853
L51134 16853
L51078 16834
L51040 16797
L51021 16759
L51003 16684
L51003 16628
L51021 16553
L51040 16515
L51078 16478
L51134 16459
L51171 16459
L51228 16478
L51246 16497
" />
<path d="M51396 16497
L51415 16478
L51453 16459
L51546 16459
L51584 16478
L51603 16497
L51621 16534
L51621 16572
L51603 16628
L51378 16853
L51621 16853
" />
<path d="M51771 16497
L51790 16478
L51828 16459
L51921 16459
L51959 16478
L51978 16497
L51996 16534
L51996 16572
L51978 16628
L51753 16853
L51996 16853
" />
<path d="M52240 16459
L52278 16459
L52315 16478
L52334 16497
L52353 16534
L52371 16609
L52371 16703
L52353 16778
L52334 16815
L52315 16834
L52278 16853
L52240 16853
L52203 16834
L52184 16815
L52165 16778
L52146 16703
L52146 16609
L52165 16534
L52184 16497
L52203 16478
L52240 16459
" />
<path d="M52559 16853
L52634 16853
L52671 16834
L52690 16815
L52727 16759
L52746 16684
L52746 16534
L52727 16497
L52709 16478
L52671 16459
L52596 16459
L52559 16478
L52540 16497
L52521 16534
L52521 16628
L52540 16665
L52559 16684
L52596 16703
L52671 16703
L52709 16684
L52727 16665
L52746 16628
" />
<text x="51500" y="17521.7"
textLength="2813.93" font-size="524.934" lengthAdjust="spacingAndGlyphs"
text-anchor="middle" opacity="0">StepStick</text>
<path d="M50206 17484
L50262 17502
L50356 17502
L50393 17484
L50412 17465
L50431 17427
L50431 17390
L50412 17352
L50393 17334
L50356 17315
L50281 17296
L50243 17277
L50225 17259
L50206 17221
L50206 17184
L50225 17146
L50243 17127
L50281 17109
L50375 17109
L50431 17127
" />
<path d="M50543 17240
L50693 17240
" />
<path d="M50600 17109
L50600 17446
L50618 17484
L50656 17502
L50693 17502
" />
<path d="M50975 17484
L50937 17502
L50862 17502
L50825 17484
L50806 17446
L50806 17296
L50825 17259
L50862 17240
L50937 17240
L50975 17259
L50993 17296
L50993 17334
L50806 17371
" />
<path d="M51162 17240
L51162 17634
" />
<path d="M51162 17259
L51200 17240
L51275 17240
L51312 17259
L51331 17277
L51350 17315
L51350 17427
L51331 17465
L51312 17484
L51275 17502
L51200 17502
L51162 17484
" />
<path d="M51500 17484
L51556 17502
L51649 17502
L51687 17484
L51706 17465
L51724 17427
L51724 17390
L51706 17352
L51687 17334
L51649 17315
L51574 17296
L51537 17277
L51518 17259
L51500 17221
L51500 17184
L51518 17146
L51537 17127
L51574 17109
L51668 17109
L51724 17127
" />
<path d="M51837 17240
L51987 17240
" />
<path d="M51893 17109
L51893 17446
L51912 17484
L51949 17502
L51987 17502
" />
<path d="M52118 17502
L52118 17240
" />
<path d="M52118 17109
L52099 17127
L52118 17146
L52137 17127
L52118 17109
L52118 17146
" />
<path d="M52474 17484
L52437 17502
L52362 17502
L52324 17484
L52306 17465
L52287 17427
L52287 17315
L52306 17277
L52324 17259
L52362 17240
L52437 17240
L52474 17259
" />
<path d="M52643 17502
L52643 17109
" />
<path d="M52681 17352
L52793 17502
" />
<path d="M52793 17240
L52643 17390
" />
<text x="38000" y="16872"
textLength="2720.19" font-size="524.934" lengthAdjust="spacingAndGlyphs"
text-anchor="middle" opacity="0">TMC2209</text>
<path d="M36715 16459
L36940 16459
" />
<path d="M36828 16853
L36828 16459
" />
<path d="M37071 16853
L37071 16459
L37203 16740
L37334 16459
L37334 16853
" />
<path d="M37746 16815
L37728 16834
L37671 16853
L37634 16853
L37578 16834
L37540 16797
L37521 16759
L37503 16684
L37503 16628
L37521 16553
L37540 16515
L37578 16478
L37634 16459
L37671 16459
L37728 16478
L37746 16497
" />
<path d="M37896 16497
L37915 16478
L37953 16459
L38046 16459
L38084 16478
L38103 16497
L38121 16534
L38121 16572
L38103 16628
L37878 16853
L38121 16853
" />
<path d="M38271 16497
L38290 16478
L38328 16459
L38421 16459
L38459 16478
L38478 16497
L38496 16534
L38496 16572
L38478 16628
L38253 16853
L38496 16853
" />
<path d="M38740 16459
L38778 16459
L38815 16478
L38834 16497
L38853 16534
L38871 16609
L38871 16703
L38853 16778
L38834 16815
L38815 16834
L38778 16853
L38740 16853
L38703 16834
L38684 16815
L38665 16778
L38646 16703
L38646 16609
L38665 16534
L38684 16497
L38703 16478
L38740 16459
" />
<path d="M39059 16853
L39134 16853
L39171 16834
L39190 16815
L39227 16759
L39246 16684
L39246 16534
L39227 16497
L39209 16478
L39171 16459
L39096 16459
L39059 16478
L39040 16497
L39021 16534
L39021 16628
L39040 16665
L39059 16684
L39096 16703
L39171 16703
L39209 16684
L39227 16665
L39246 16628
" />
<text x="38000" y="17521.7"
textLength="2813.93" font-size="524.934" lengthAdjust="spacingAndGlyphs"
text-anchor="middle" opacity="0">StepStick</text>
<path d="M36706 17484
L36762 17502
L36856 17502
L36893 17484
L36912 17465
L36931 17427
L36931 17390
L36912 17352
L36893 17334
L36856 17315
L36781 17296
L36743 17277
L36725 17259
L36706 17221
L36706 17184
L36725 17146
L36743 17127
L36781 17109
L36875 17109
L36931 17127
" />
<path d="M37043 17240
L37193 17240
" />
<path d="M37100 17109
L37100 17446
L37118 17484
L37156 17502
L37193 17502
" />
<path d="M37475 17484
L37437 17502
L37362 17502
L37325 17484
L37306 17446
L37306 17296
L37325 17259
L37362 17240
L37437 17240
L37475 17259
L37493 17296
L37493 17334
L37306 17371
" />
<path d="M37662 17240
L37662 17634
" />
<path d="M37662 17259
L37700 17240
L37775 17240
L37812 17259
L37831 17277
L37850 17315
L37850 17427
L37831 17465
L37812 17484
L37775 17502
L37700 17502
L37662 17484
" />
<path d="M38000 17484
L38056 17502
L38149 17502
L38187 17484
L38206 17465
L38224 17427
L38224 17390
L38206 17352
L38187 17334
L38149 17315
L38074 17296
L38037 17277
L38018 17259
L38000 17221
L38000 17184
L38018 17146
L38037 17127
L38074 17109
L38168 17109
L38224 17127
" />
<path d="M38337 17240
L38487 17240
" />
<path d="M38393 17109
L38393 17446
L38412 17484
L38449 17502
L38487 17502
" />
<path d="M38618 17502
L38618 17240
" />
<path d="M38618 17109
L38599 17127
L38618 17146
L38637 17127
L38618 17109
L38618 17146
" />
<path d="M38974 17484
L38937 17502
L38862 17502
L38824 17484
L38806 17465
L38787 17427
L38787 17315
L38806 17277
L38824 17259
L38862 17240
L38937 17240
L38974 17259
" />
<path d="M39143 17502
L39143 17109
" />
<path d="M39181 17352
L39293 17502
" />
<path d="M39293 17240
L39143 17390
" />
</g>
<g style="fill:#000000; fill-opacity:0.0; 
stroke:#000000; stroke-width:47.2441; stroke-opacity:1; 
stroke-linecap:round; stroke-linejoin:round;">
<path d="M42051 19000
L33948 19000
" />
<path d="M41000 15000
L33948 15000
" />
<path d="M42051 14500
L42051 13948
" />
<path d="M42051 13948
L41500 13948
" />
<path d="M42051 15000
L41000 15000
" />
<path d="M41000 15000
L41000 13948
" />
<path d="M41000 13948
L33948 13948
" />
<path d="M33948 13948
L33948 20051
" />
<path d="M33948 20051
L42051 20051
" />
<path d="M42051 20051
L42051 15000
" />
<path d="M55551 20051
L55551 15000
" />
<path d="M47448 20051
L55551 20051
" />
<path d="M47448 13948
L47448 20051
" />
<path d="M54500 13948
L47448 13948
" />
<path d="M54500 15000
L54500 13948
" />
<path d="M55551 15000
L54500 15000
" />
<path d="M55551 13948
L55000 13948
" />
<path d="M55551 14500
L55551 13948
" />
<path d="M54500 15000
L47448 15000
" />
<path d="M55551 19000
L47448 19000
" />
</g>
<g style="fill:#000000; fill-opacity:0.0; 
stroke:#000000; stroke-width:70; stroke-opacity:1; 
stroke-linecap:round; stroke-linejoin:round;">
<path d="M30500 28000
L24500 28000
" />
<path d="M24500 28000
L24500 29000
" />
<path d="M24500 29000
L30500 29000
" />
</g>
<g style="fill:#000000; fill-opacity:0.0; 
stroke:#000000; stroke-width:80; stroke-opacity:1; 
stroke-linecap:round; stroke-linejoin:round;">
<path d="M30500 29000
L30500 28000
" />
</g>
<g style="fill:#000000; fill-opacity:0.0; 
stroke:#000000; stroke-width:47.2441; stroke-opacity:1; 
stroke-linecap:round; stroke-linejoin:round;">
<path d="M48000 24000
L49000 24000
" />
<path d="M49000 24000
L49000 22948
" />
<path d="M48000 22948
L32948 22948
" />
<path d="M50051 22948
L49000 22948
" />
<path d="M49000 29000
L49000 30051
" />
<path d="M49000 29000
L34000 29000
" />
<path d="M34000 29000
L34000 30051
" />
<path d="M48000 24000
L48000 22948
" />
<path d="M48000 24000
L34000 24000
" />
<path d="M34000 24000
L34000 22948
" />
<path d="M32948 22948
L32948 30051
" />
<path d="M32948 30051
L50051 30051
" />
<path d="M50051 30051
L50051 22948
" />
<circle cx="52500" cy="26106.3" r="1031.5" /> 
<path d="M52909 26106
L53515 26106
" />
<path d="M51484 26106
L52090 26106
" />
<path d="M52909 26090
L53515 26090
" />
<path d="M51484 26090
L52090 26090
" />
<path d="M51484 26074
L52090 26074
" />
<path d="M52909 26074
L53515 26074
" />
<path d="M51485 26059
L52090 26059
" />
<path d="M52909 26059
L53514 26059
" />
<path d="M51485 26043
L52090 26043
" />
<path d="M52909 26043
L53514 26043
" />
<path d="M51487 26027
L52090 26027
" />
<path d="M52909 26027
L53512 26027
" />
<path d="M51488 26011
L52090 26011
" />
<path d="M52909 26011
L53511 26011
" />
<path d="M51490 25996
L52090 25996
" />
<path d="M52909 25996
L53509 25996
" />
<path d="M51491 25980
L52090 25980
" />
<path d="M52909 25980
L53508 25980
" />
<path d="M51493 25964
L52090 25964
" />
<path d="M52909 25964
L53506 25964
" />
<path d="M51496 25948
L52090 25948
" />
<path d="M52909 25948
L53503 25948
" />
<path d="M51498 25933
L52090 25933
" />
<path d="M52909 25933
L53501 25933
" />
<path d="M51501 25917
L52090 25917
" />
<path d="M52909 25917
L53498 25917
" />
<path d="M51504 25901
L52090 25901
" />
<path d="M52909 25901
L53495 25901
" />
<path d="M51507 25885
L52090 25885
" />
<path d="M52909 25885
L53492 25885
" />
<path d="M51511 25870
L52090 25870
" />
<path d="M52909 25870
L53488 25870
" />
<path d="M51515 25854
L52090 25854
" />
<path d="M52909 25854
L53484 25854
" />
<path d="M51519 25838
L52090 25838
" />
<path d="M52909 25838
L53480 25838
" />
<path d="M51523 25822
L52090 25822
" />
<path d="M52909 25822
L53476 25822
" />
<path d="M51528 25806
L52090 25806
" />
<path d="M52909 25806
L53471 25806
" />
<path d="M51533 25790
L52090 25790
" />
<path d="M52909 25790
L53466 25790
" />
<path d="M51538 25775
L52090 25775
" />
<path d="M52909 25775
L53461 25775
" />
<path d="M51544 25759
L52090 25759
" />
<path d="M52909 25759
L53455 25759
" />
<path d="M51549 25743
L52090 25743
" />
<path d="M52909 25743
L53450 25743
" />
<path d="M51555 25727
L52090 25727
" />
<path d="M52909 25727
L53444 25727
" />
<path d="M51562 25712
L52090 25712
" />
<path d="M52909 25712
L53437 25712
" />
<path d="M51568 25696
L52090 25696
" />
<path d="M52909 25696
L53431 25696
" />
<path d="M51575 25680
L52090 25680
" />
<path d="M52909 25680
L53424 25680
" />
<path d="M51583 25664
L52090 25664
" />
<path d="M52909 25664
L53416 25664
" />
<path d="M51590 25649
L52090 25649
" />
<path d="M52909 25649
L53409 25649
" />
<path d="M51598 25633
L52090 25633
" />
<path d="M52909 25633
L53401 25633
" />
<path d="M51607 25617
L52090 25617
" />
<path d="M52909 25617
L53392 25617
" />
<path d="M51615 25601
L52090 25601
" />
<path d="M52909 25601
L53384 25601
" />
<path d="M51624 25586
L52090 25586
" />
<path d="M52909 25586
L53375 25586
" />
<path d="M51633 25570
L52090 25570
" />
<path d="M52909 25570
L53366 25570
" />
<path d="M51643 25554
L52090 25554
" />
<path d="M52909 25554
L53356 25554
" />
<path d="M51653 25538
L52090 25538
" />
<path d="M52909 25538
L53346 25538
" />
<path d="M51664 25523
L52090 25523
" />
<path d="M52909 25523
L53335 25523
" />
<path d="M51675 25507
L52090 25507
" />
<path d="M52909 25507
L53324 25507
" />
<path d="M51687 25491
L52090 25491
" />
<path d="M52909 25491
L53312 25491
" />
<path d="M51698 25475
L52090 25475
" />
<path d="M52909 25475
L53301 25475
" />
<path d="M51711 25460
L52090 25460
" />
<path d="M52909 25460
L53288 25460
" />
<path d="M51724 25444
L52090 25444
" />
<path d="M52909 25444
L53275 25444
" />
<path d="M51737 25428
L52090 25428
" />
<path d="M52909 25428
L53262 25428
" />
<path d="M51751 25412
L52090 25412
" />
<path d="M52909 25412
L53248 25412
" />
<path d="M51766 25397
L52090 25397
" />
<path d="M52909 25397
L53233 25397
" />
<path d="M51781 25381
L52090 25381
" />
<path d="M52909 25381
L53218 25381
" />
<path d="M51797 25365
L52090 25365
" />
<path d="M52909 25365
L53202 25365
" />
<path d="M51813 25350
L52090 25350
" />
<path d="M52909 25350
L53186 25350
" />
<path d="M51831 25334
L52090 25334
" />
<path d="M52909 25334
L53168 25334
" />
<path d="M51849 25318
L52090 25318
" />
<path d="M52909 25318
L53150 25318
" />
<path d="M51868 25302
L53131 25302
" />
<path d="M51888 25287
L53111 25287
" />
<path d="M51909 25271
L53090 25271
" />
<path d="M51931 25255
L53068 25255
" />
<path d="M51955 25239
L53044 25239
" />
<path d="M51980 25224
L53019 25224
" />
<path d="M52007 25208
L52992 25208
" />
<path d="M52036 25192
L52963 25192
" />
<path d="M52067 25176
L52932 25176
" />
<path d="M52101 25161
L52898 25161
" />
<path d="M52139 25145
L52860 25145
" />
<path d="M52183 25129
L52816 25129
" />
<path d="M52233 25113
L52766 25113
" />
<path d="M52296 25098
L52703 25098
" />
<path d="M52388 25082
L52611 25082
" />
<path d="M51919 27210
L51919 27013
" />
<path d="M51820 27112
L52017 27112
" />
<path d="M55320 23612
L55517 23612
" />
<path d="M55419 23710
L55419 23513
" />
<path d="M55888 21582
L56111 21582
" />
<path d="M55796 21598
L56203 21598
" />
<path d="M55733 21613
L56266 21613
" />
<path d="M55683 21629
L56316 21629
" />
<path d="M55639 21645
L56360 21645
" />
<path d="M55601 21661
L56398 21661
" />
<path d="M55567 21676
L56432 21676
" />
<path d="M55536 21692
L56463 21692
" />
<path d="M55507 21708
L56492 21708
" />
<path d="M55480 21724
L56519 21724
" />
<path d="M55455 21739
L56544 21739
" />
<path d="M55431 21755
L56568 21755
" />
<path d="M55409 21771
L56590 21771
" />
<path d="M55388 21787
L56611 21787
" />
<path d="M55368 21802
L56631 21802
" />
<path d="M56409 21818
L56650 21818
" />
<path d="M55349 21818
L55590 21818
" />
<path d="M56409 21834
L56668 21834
" />
<path d="M55331 21834
L55590 21834
" />
<path d="M56409 21850
L56686 21850
" />
<path d="M55313 21850
L55590 21850
" />
<path d="M56409 21865
L56702 21865
" />
<path d="M55297 21865
L55590 21865
" />
<path d="M56409 21881
L56718 21881
" />
<path d="M55281 21881
L55590 21881
" />
<path d="M56409 21897
L56733 21897
" />
<path d="M55266 21897
L55590 21897
" />
<path d="M56409 21912
L56748 21912
" />
<path d="M55251 21912
L55590 21912
" />
<path d="M56409 21928
L56762 21928
" />
<path d="M55237 21928
L55590 21928
" />
<path d="M56409 21944
L56775 21944
" />
<path d="M55224 21944
L55590 21944
" />
<path d="M56409 21960
L56788 21960
" />
<path d="M55211 21960
L55590 21960
" />
<path d="M56409 21975
L56801 21975
" />
<path d="M55198 21975
L55590 21975
" />
<path d="M56409 21991
L56812 21991
" />
<path d="M55187 21991
L55590 21991
" />
<path d="M56409 22007
L56824 22007
" />
<path d="M55175 22007
L55590 22007
" />
<path d="M56409 22023
L56835 22023
" />
<path d="M55164 22023
L55590 22023
" />
<path d="M56409 22038
L56846 22038
" />
<path d="M55153 22038
L55590 22038
" />
<path d="M56409 22054
L56856 22054
" />
<path d="M55143 22054
L55590 22054
" />
<path d="M56409 22070
L56866 22070
" />
<path d="M55133 22070
L55590 22070
" />
<path d="M56409 22086
L56875 22086
" />
<path d="M55124 22086
L55590 22086
" />
<path d="M56409 22101
L56884 22101
" />
<path d="M55115 22101
L55590 22101
" />
<path d="M56409 22117
L56892 22117
" />
<path d="M55107 22117
L55590 22117
" />
<path d="M56409 22133
L56901 22133
" />
<path d="M55098 22133
L55590 22133
" />
<path d="M56409 22149
L56909 22149
" />
<path d="M55090 22149
L55590 22149
" />
<path d="M56409 22164
L56916 22164
" />
<path d="M55083 22164
L55590 22164
" />
<path d="M56409 22180
L56924 22180
" />
<path d="M55075 22180
L55590 22180
" />
<path d="M56409 22196
L56931 22196
" />
<path d="M55068 22196
L55590 22196
" />
<path d="M56409 22212
L56937 22212
" />
<path d="M55062 22212
L55590 22212
" />
<path d="M56409 22227
L56944 22227
" />
<path d="M55055 22227
L55590 22227
" />
<path d="M56409 22243
L56950 22243
" />
<path d="M55049 22243
L55590 22243
" />
<path d="M56409 22259
L56955 22259
" />
<path d="M55044 22259
L55590 22259
" />
<path d="M56409 22275
L56961 22275
" />
<path d="M55038 22275
L55590 22275
" />
<path d="M56409 22290
L56966 22290
" />
<path d="M55033 22290
L55590 22290
" />
<path d="M56409 22306
L56971 22306
" />
<path d="M55028 22306
L55590 22306
" />
<path d="M56409 22322
L56976 22322
" />
<path d="M55023 22322
L55590 22322
" />
<path d="M56409 22338
L56980 22338
" />
<path d="M55019 22338
L55590 22338
" />
<path d="M56409 22354
L56984 22354
" />
<path d="M55015 22354
L55590 22354
" />
<path d="M56409 22370
L56988 22370
" />
<path d="M55011 22370
L55590 22370
" />
<path d="M56409 22385
L56992 22385
" />
<path d="M55007 22385
L55590 22385
" />
<path d="M56409 22401
L56995 22401
" />
<path d="M55004 22401
L55590 22401
" />
<path d="M56409 22417
L56998 22417
" />
<path d="M55001 22417
L55590 22417
" />
<path d="M56409 22433
L57001 22433
" />
<path d="M54998 22433
L55590 22433
" />
<path d="M56409 22448
L57003 22448
" />
<path d="M54996 22448
L55590 22448
" />
<path d="M56409 22464
L57006 22464
" />
<path d="M54993 22464
L55590 22464
" />
<path d="M56409 22480
L57008 22480
" />
<path d="M54991 22480
L55590 22480
" />
<path d="M56409 22496
L57009 22496
" />
<path d="M54990 22496
L55590 22496
" />
<path d="M56409 22511
L57011 22511
" />
<path d="M54988 22511
L55590 22511
" />
<path d="M56409 22527
L57012 22527
" />
<path d="M54987 22527
L55590 22527
" />
<path d="M56409 22543
L57014 22543
" />
<path d="M54985 22543
L55590 22543
" />
<path d="M56409 22559
L57014 22559
" />
<path d="M54985 22559
L55590 22559
" />
<path d="M56409 22574
L57015 22574
" />
<path d="M54984 22574
L55590 22574
" />
<path d="M54984 22590
L55590 22590
" />
<path d="M56409 22590
L57015 22590
" />
<path d="M54984 22606
L55590 22606
" />
<path d="M56409 22606
L57015 22606
" />
<circle cx="56000" cy="22606.3" r="1031.5" /> 
<circle cx="32000" cy="13606.3" r="1031.5" /> 
<path d="M32409 13606
L33015 13606
" />
<path d="M30984 13606
L31590 13606
" />
<path d="M32409 13590
L33015 13590
" />
<path d="M30984 13590
L31590 13590
" />
<path d="M30984 13574
L31590 13574
" />
<path d="M32409 13574
L33015 13574
" />
<path d="M30985 13559
L31590 13559
" />
<path d="M32409 13559
L33014 13559
" />
<path d="M30985 13543
L31590 13543
" />
<path d="M32409 13543
L33014 13543
" />
<path d="M30987 13527
L31590 13527
" />
<path d="M32409 13527
L33012 13527
" />
<path d="M30988 13511
L31590 13511
" />
<path d="M32409 13511
L33011 13511
" />
<path d="M30990 13496
L31590 13496
" />
<path d="M32409 13496
L33009 13496
" />
<path d="M30991 13480
L31590 13480
" />
<path d="M32409 13480
L33008 13480
" />
<path d="M30993 13464
L31590 13464
" />
<path d="M32409 13464
L33006 13464
" />
<path d="M30996 13448
L31590 13448
" />
<path d="M32409 13448
L33003 13448
" />
<path d="M30998 13433
L31590 13433
" />
<path d="M32409 13433
L33001 13433
" />
<path d="M31001 13417
L31590 13417
" />
<path d="M32409 13417
L32998 13417
" />
<path d="M31004 13401
L31590 13401
" />
<path d="M32409 13401
L32995 13401
" />
<path d="M31007 13385
L31590 13385
" />
<path d="M32409 13385
L32992 13385
" />
<path d="M31011 13370
L31590 13370
" />
<path d="M32409 13370
L32988 13370
" />
<path d="M31015 13354
L31590 13354
" />
<path d="M32409 13354
L32984 13354
" />
<path d="M31019 13338
L31590 13338
" />
<path d="M32409 13338
L32980 13338
" />
<path d="M31023 13322
L31590 13322
" />
<path d="M32409 13322
L32976 13322
" />
<path d="M31028 13306
L31590 13306
" />
<path d="M32409 13306
L32971 13306
" />
<path d="M31033 13290
L31590 13290
" />
<path d="M32409 13290
L32966 13290
" />
<path d="M31038 13275
L31590 13275
" />
<path d="M32409 13275
L32961 13275
" />
<path d="M31044 13259
L31590 13259
" />
<path d="M32409 13259
L32955 13259
" />
<path d="M31049 13243
L31590 13243
" />
<path d="M32409 13243
L32950 13243
" />
<path d="M31055 13227
L31590 13227
" />
<path d="M32409 13227
L32944 13227
" />
<path d="M31062 13212
L31590 13212
" />
<path d="M32409 13212
L32937 13212
" />
<path d="M31068 13196
L31590 13196
" />
<path d="M32409 13196
L32931 13196
" />
<path d="M31075 13180
L31590 13180
" />
<path d="M32409 13180
L32924 13180
" />
<path d="M31083 13164
L31590 13164
" />
<path d="M32409 13164
L32916 13164
" />
<path d="M31090 13149
L31590 13149
" />
<path d="M32409 13149
L32909 13149
" />
<path d="M31098 13133
L31590 13133
" />
<path d="M32409 13133
L32901 13133
" />
<path d="M31107 13117
L31590 13117
" />
<path d="M32409 13117
L32892 13117
" />
<path d="M31115 13101
L31590 13101
" />
<path d="M32409 13101
L32884 13101
" />
<path d="M31124 13086
L31590 13086
" />
<path d="M32409 13086
L32875 13086
" />
<path d="M31133 13070
L31590 13070
" />
<path d="M32409 13070
L32866 13070
" />
<path d="M31143 13054
L31590 13054
" />
<path d="M32409 13054
L32856 13054
" />
<path d="M31153 13038
L31590 13038
" />
<path d="M32409 13038
L32846 13038
" />
<path d="M31164 13023
L31590 13023
" />
<path d="M32409 13023
L32835 13023
" />
<path d="M31175 13007
L31590 13007
" />
<path d="M32409 13007
L32824 13007
" />
<path d="M31187 12991
L31590 12991
" />
<path d="M32409 12991
L32812 12991
" />
<path d="M31198 12975
L31590 12975
" />
<path d="M32409 12975
L32801 12975
" />
<path d="M31211 12960
L31590 12960
" />
<path d="M32409 12960
L32788 12960
" />
<path d="M31224 12944
L31590 12944
" />
<path d="M32409 12944
L32775 12944
" />
<path d="M31237 12928
L31590 12928
" />
<path d="M32409 12928
L32762 12928
" />
<path d="M31251 12912
L31590 12912
" />
<path d="M32409 12912
L32748 12912
" />
<path d="M31266 12897
L31590 12897
" />
<path d="M32409 12897
L32733 12897
" />
<path d="M31281 12881
L31590 12881
" />
<path d="M32409 12881
L32718 12881
" />
<path d="M31297 12865
L31590 12865
" />
<path d="M32409 12865
L32702 12865
" />
<path d="M31313 12850
L31590 12850
" />
<path d="M32409 12850
L32686 12850
" />
<path d="M31331 12834
L31590 12834
" />
<path d="M32409 12834
L32668 12834
" />
<path d="M31349 12818
L31590 12818
" />
<path d="M32409 12818
L32650 12818
" />
<path d="M31368 12802
L32631 12802
" />
<path d="M31388 12787
L32611 12787
" />
<path d="M31409 12771
L32590 12771
" />
<path d="M31431 12755
L32568 12755
" />
<path d="M31455 12739
L32544 12739
" />
<path d="M31480 12724
L32519 12724
" />
<path d="M31507 12708
L32492 12708
" />
<path d="M31536 12692
L32463 12692
" />
<path d="M31567 12676
L32432 12676
" />
<path d="M31601 12661
L32398 12661
" />
<path d="M31639 12645
L32360 12645
" />
<path d="M31683 12629
L32316 12629
" />
<path d="M31733 12613
L32266 12613
" />
<path d="M31796 12598
L32203 12598
" />
<path d="M31888 12582
L32111 12582
" />
<path d="M31419 14710
L31419 14513
" />
<path d="M31320 14612
L31517 14612
" />
<path d="M44820 14612
L45017 14612
" />
<path d="M44919 14710
L44919 14513
" />
<path d="M45388 12582
L45611 12582
" />
<path d="M45296 12598
L45703 12598
" />
<path d="M45233 12613
L45766 12613
" />
<path d="M45183 12629
L45816 12629
" />
<path d="M45139 12645
L45860 12645
" />
<path d="M45101 12661
L45898 12661
" />
<path d="M45067 12676
L45932 12676
" />
<path d="M45036 12692
L45963 12692
" />
<path d="M45007 12708
L45992 12708
" />
<path d="M44980 12724
L46019 12724
" />
<path d="M44955 12739
L46044 12739
" />
<path d="M44931 12755
L46068 12755
" />
<path d="M44909 12771
L46090 12771
" />
<path d="M44888 12787
L46111 12787
" />
<path d="M44868 12802
L46131 12802
" />
<path d="M45909 12818
L46150 12818
" />
<path d="M44849 12818
L45090 12818
" />
<path d="M45909 12834
L46168 12834
" />
<path d="M44831 12834
L45090 12834
" />
<path d="M45909 12850
L46186 12850
" />
<path d="M44813 12850
L45090 12850
" />
<path d="M45909 12865
L46202 12865
" />
<path d="M44797 12865
L45090 12865
" />
<path d="M45909 12881
L46218 12881
" />
<path d="M44781 12881
L45090 12881
" />
<path d="M45909 12897
L46233 12897
" />
<path d="M44766 12897
L45090 12897
" />
<path d="M45909 12912
L46248 12912
" />
<path d="M44751 12912
L45090 12912
" />
<path d="M45909 12928
L46262 12928
" />
<path d="M44737 12928
L45090 12928
" />
<path d="M45909 12944
L46275 12944
" />
<path d="M44724 12944
L45090 12944
" />
<path d="M45909 12960
L46288 12960
" />
<path d="M44711 12960
L45090 12960
" />
<path d="M45909 12975
L46301 12975
" />
<path d="M44698 12975
L45090 12975
" />
<path d="M45909 12991
L46312 12991
" />
<path d="M44687 12991
L45090 12991
" />
<path d="M45909 13007
L46324 13007
" />
<path d="M44675 13007
L45090 13007
" />
<path d="M45909 13023
L46335 13023
" />
<path d="M44664 13023
L45090 13023
" />
<path d="M45909 13038
L46346 13038
" />
<path d="M44653 13038
L45090 13038
" />
<path d="M45909 13054
L46356 13054
" />
<path d="M44643 13054
L45090 13054
" />
<path d="M45909 13070
L46366 13070
" />
<path d="M44633 13070
L45090 13070
" />
<path d="M45909 13086
L46375 13086
" />
<path d="M44624 13086
L45090 13086
" />
<path d="M45909 13101
L46384 13101
" />
<path d="M44615 13101
L45090 13101
" />
<path d="M45909 13117
L46392 13117
" />
<path d="M44607 13117
L45090 13117
" />
<path d="M45909 13133
L46401 13133
" />
<path d="M44598 13133
L45090 13133
" />
<path d="M45909 13149
L46409 13149
" />
<path d="M44590 13149
L45090 13149
" />
<path d="M45909 13164
L46416 13164
" />
<path d="M44583 13164
L45090 13164
" />
<path d="M45909 13180
L46424 13180
" />
<path d="M44575 13180
L45090 13180
" />
<path d="M45909 13196
L46431 13196
" />
<path d="M44568 13196
L45090 13196
" />
<path d="M45909 13212
L46437 13212
" />
<path d="M44562 13212
L45090 13212
" />
<path d="M45909 13227
L46444 13227
" />
<path d="M44555 13227
L45090 13227
" />
<path d="M45909 13243
L46450 13243
" />
<path d="M44549 13243
L45090 13243
" />
<path d="M45909 13259
L46455 13259
" />
<path d="M44544 13259
L45090 13259
" />
<path d="M45909 13275
L46461 13275
" />
<path d="M44538 13275
L45090 13275
" />
<path d="M45909 13290
L46466 13290
" />
<path d="M44533 13290
L45090 13290
" />
<path d="M45909 13306
L46471 13306
" />
<path d="M44528 13306
L45090 13306
" />
<path d="M45909 13322
L46476 13322
" />
<path d="M44523 13322
L45090 13322
" />
<path d="M45909 13338
L46480 13338
" />
<path d="M44519 13338
L45090 13338
" />
<path d="M45909 13354
L46484 13354
" />
<path d="M44515 13354
L45090 13354
" />
<path d="M45909 13370
L46488 13370
" />
<path d="M44511 13370
L45090 13370
" />
<path d="M45909 13385
L46492 13385
" />
<path d="M44507 13385
L45090 13385
" />
<path d="M45909 13401
L46495 13401
" />
<path d="M44504 13401
L45090 13401
" />
<path d="M45909 13417
L46498 13417
" />
<path d="M44501 13417
L45090 13417
" />
<path d="M45909 13433
L46501 13433
" />
<path d="M44498 13433
L45090 13433
" />
<path d="M45909 13448
L46503 13448
" />
<path d="M44496 13448
L45090 13448
" />
<path d="M45909 13464
L46506 13464
" />
<path d="M44493 13464
L45090 13464
" />
<path d="M45909 13480
L46508 13480
" />
<path d="M44491 13480
L45090 13480
" />
<path d="M45909 13496
L46509 13496
" />
<path d="M44490 13496
L45090 13496
" />
<path d="M45909 13511
L46511 13511
" />
<path d="M44488 13511
L45090 13511
" />
<path d="M45909 13527
L46512 13527
" />
<path d="M44487 13527
L45090 13527
" />
<path d="M45909 13543
L46514 13543
" />
<path d="M44485 13543
L45090 13543
" />
<path d="M45909 13559
L46514 13559
" />
<path d="M44485 13559
L45090 13559
" />
<path d="M45909 13574
L46515 13574
" />
<path d="M44484 13574
L45090 13574
" />
<path d="M44484 13590
L45090 13590
" />
<path d="M45909 13590
L46515 13590
" />
<path d="M44484 13606
L45090 13606
" />
<path d="M45909 13606
L46515 13606
" />
<circle cx="45500" cy="13606.3" r="1031.5" /> 
<path d="M35976 11933
L40023 11933
" />
<path d="M40023 11933
L40023 10885
" />
<path d="M40023 10885
L35976 10885
" />
<path d="M35976 10885
L35976 11933
" />
<path d="M36350 10885
L36350 8523
" />
<path d="M36350 8523
L36649 8523
" />
<path d="M36649 8523
L36649 10885
" />
<path d="M36374 10885
L36374 8523
" />
<path d="M36421 10885
L36421 8523
" />
<path d="M36468 10885
L36468 8523
" />
<path d="M36515 10885
L36515 8523
" />
<path d="M36562 10885
L36562 8523
" />
<path d="M36610 10885
L36610 8523
" />
<path d="M36350 12062
L36350 11933
" />
<path d="M36649 12062
L36649 11933
" />
<path d="M37000 11933
L37000 10885
" />
<path d="M37350 10885
L37350 8523
" />
<path d="M37350 8523
L37649 8523
" />
<path d="M37649 8523
L37649 10885
" />
<path d="M37350 12089
L37350 11933
" />
<path d="M37649 12089
L37649 11933
" />
<path d="M38000 11933
L38000 10885
" />
<path d="M38350 10885
L38350 8523
" />
<path d="M38350 8523
L38649 8523
" />
<path d="M38649 8523
L38649 10885
" />
<path d="M38350 12089
L38350 11933
" />
<path d="M38649 12089
L38649 11933
" />
<path d="M39000 11933
L39000 10885
" />
<path d="M39350 10885
L39350 8523
" />
<path d="M39350 8523
L39649 8523
" />
<path d="M39649 8523
L39649 10885
" />
<path d="M39350 12089
L39350 11933
" />
<path d="M39649 12089
L39649 11933
" />
<path d="M36500 13000
L36000 13000
" />
<path d="M36000 13000
L36000 12500
" />
<path d="M49500 13000
L49500 12500
" />
<path d="M50000 13000
L49500 13000
" />
<path d="M53149 12089
L53149 11933
" />
<path d="M52850 12089
L52850 11933
" />
<path d="M53149 8523
L53149 10885
" />
<path d="M52850 8523
L53149 8523
" />
<path d="M52850 10885
L52850 8523
" />
<path d="M52500 11933
L52500 10885
" />
<path d="M52149 12089
L52149 11933
" />
<path d="M51850 12089
L51850 11933
" />
<path d="M52149 8523
L52149 10885
" />
<path d="M51850 8523
L52149 8523
" />
<path d="M51850 10885
L51850 8523
" />
<path d="M51500 11933
L51500 10885
" />
<path d="M51149 12089
L51149 11933
" />
<path d="M50850 12089
L50850 11933
" />
<path d="M51149 8523
L51149 10885
" />
<path d="M50850 8523
L51149 8523
" />
<path d="M50850 10885
L50850 8523
" />
<path d="M50500 11933
L50500 10885
" />
<path d="M50149 12062
L50149 11933
" />
<path d="M49850 12062
L49850 11933
" />
<path d="M50110 10885
L50110 8523
" />
<path d="M50062 10885
L50062 8523
" />
<path d="M50015 10885
L50015 8523
" />
<path d="M49968 10885
L49968 8523
" />
<path d="M49921 10885
L49921 8523
" />
<path d="M49874 10885
L49874 8523
" />
<path d="M50149 8523
L50149 10885
" />
<path d="M49850 8523
L50149 8523
" />
<path d="M49850 10885
L49850 8523
" />
<path d="M49476 10885
L49476 11933
" />
<path d="M53523 10885
L49476 10885
" />
<path d="M53523 11933
L53523 10885
" />
<path d="M49476 11933
L53523 11933
" />
<path d="M57251 27342
L57251 26846
" />
<path d="M57251 24657
L57251 25153
" />
<path d="M55771 27342
L57251 27342
" />
<path d="M54885 24657
L57251 24657
" />
<path d="M52555 30003
L56937 30003
" />
<path d="M52555 30996
L56937 30996
" />
<path d="M52555 28114
L56937 28114
" />
<path d="M52555 29106
L56937 29106
" />
</g>
<g style="fill:#000000; fill-opacity:0.0; 
stroke:#000000; stroke-width:59.0551; stroke-opacity:1; 
stroke-linecap:round; stroke-linejoin:round;">
<text x="42500" y="14696.9"
textLength="789.183" font-size="524.934" lengthAdjust="spacingAndGlyphs"
text-anchor="middle" opacity="0">A1</text>
<path d="M42218 14565
L42406 14565
" />
<path d="M42181 14678
L42312 14284
L42443 14678
" />
<path d="M42781 14678
L42556 14678
" />
<path d="M42668 14678
L42668 14284
L42631 14340
L42593 14378
L42556 14396
" />
<text x="56000" y="14696.9"
textLength="789.183" font-size="524.934" lengthAdjust="spacingAndGlyphs"
text-anchor="middle" opacity="0">A2</text>
<path d="M55718 14565
L55906 14565
" />
<path d="M55681 14678
L55812 14284
L55943 14678
" />
<path d="M56056 14321
L56074 14303
L56112 14284
L56206 14284
L56243 14303
L56262 14321
L56281 14359
L56281 14396
L56262 14453
L56037 14678
L56281 14678
" />
<text x="27400" y="29596.9"
textLength="789.183" font-size="524.934" lengthAdjust="spacingAndGlyphs"
text-anchor="middle" opacity="0">A3</text>
<path d="M27118 29465
L27306 29465
" />
<path d="M27081 29578
L27212 29184
L27343 29578
" />
<path d="M27437 29184
L27681 29184
L27549 29334
L27606 29334
L27643 29353
L27662 29371
L27681 29409
L27681 29503
L27662 29540
L27643 29559
L27606 29578
L27493 29578
L27456 29559
L27437 29540
" />
<g transform="rotate(-90 30000 27050)">
<text x="30000" y="27246.9"
textLength="1745.31" font-size="524.934" lengthAdjust="spacingAndGlyphs"
text-anchor="middle" opacity="0">STATE</text>
</g>
<path d="M30159 27809
L30178 27753
L30178 27659
L30159 27621
L30140 27603
L30103 27584
L30065 27584
L30028 27603
L30009 27621
L29990 27659
L29971 27734
L29953 27771
L29934 27790
L29896 27809
L29859 27809
L29821 27790
L29803 27771
L29784 27734
L29784 27640
L29803 27584
" />
<path d="M29784 27471
L29784 27246
" />
<path d="M30178 27359
L29784 27359
" />
<path d="M30065 27134
L30065 26946
" />
<path d="M30178 27171
L29784 27040
L30178 26909
" />
<path d="M29784 26834
L29784 26609
" />
<path d="M30178 26721
L29784 26721
" />
<path d="M29971 26478
L29971 26346
" />
<path d="M30178 26290
L30178 26478
L29784 26478
L29784 26290
" />
<g transform="rotate(-90 29000 27300)">
<text x="29000" y="27496.9"
textLength="1239.13" font-size="524.934" lengthAdjust="spacingAndGlyphs"
text-anchor="middle" opacity="0">RXD</text>
</g>
<path d="M29178 27562
L28990 27693
" />
<path d="M29178 27787
L28784 27787
L28784 27637
L28803 27599
L28821 27581
L28859 27562
L28915 27562
L28953 27581
L28971 27599
L28990 27637
L28990 27787
" />
<path d="M28784 27431
L29178 27168
" />
<path d="M28784 27168
L29178 27431
" />
<path d="M29178 27018
L28784 27018
L28784 26925
L28803 26868
L28840 26831
L28878 26812
L28953 26793
L29009 26793
L29084 26812
L29121 26831
L29159 26868
L29178 26925
L29178 27018
" />
<g transform="rotate(-90 28000 27350)">
<text x="28000" y="27546.9"
textLength="1145.39" font-size="524.934" lengthAdjust="spacingAndGlyphs"
text-anchor="middle" opacity="0">TXD</text>
</g>
<path d="M27784 27846
L27784 27621
" />
<path d="M28178 27734
L27784 27734
" />
<path d="M27784 27528
L28178 27265
" />
<path d="M27784 27265
L28178 27528
" />
<path d="M28178 27115
L27784 27115
L27784 27021
L27803 26965
L27840 26928
L27878 26909
L27953 26890
L28009 26890
L28084 26909
L28121 26928
L28159 26965
L28178 27021
L28178 27115
" />
<g transform="rotate(-90 27000 27300)">
<text x="27000" y="27496.9"
textLength="1276.62" font-size="524.934" lengthAdjust="spacingAndGlyphs"
text-anchor="middle" opacity="0">GND</text>
</g>
<path d="M26803 27599
L26784 27637
L26784 27693
L26803 27749
L26840 27787
L26878 27806
L26953 27824
L27009 27824
L27084 27806
L27121 27787
L27159 27749
L27178 27693
L27178 27656
L27159 27599
L27140 27581
L27009 27581
L27009 27656
" />
<path d="M27178 27412
L26784 27412
L27178 27187
L26784 27187
" />
<path d="M27178 27000
L26784 27000
L26784 26906
L26803 26850
L26840 26812
L26878 26793
L26953 26775
L27009 26775
L27084 26793
L27121 26812
L27159 26850
L27178 26906
L27178 27000
" />
<g transform="rotate(-90 26000 27300)">
<text x="26000" y="27496.9"
textLength="1201.63" font-size="524.934" lengthAdjust="spacingAndGlyphs"
text-anchor="middle" opacity="0">VCC</text>
</g>
<path d="M25784 27824
L26178 27693
L25784 27562
" />
<path d="M26140 27206
L26159 27225
L26178 27281
L26178 27318
L26159 27374
L26121 27412
L26084 27431
L26009 27449
L25953 27449
L25878 27431
L25840 27412
L25803 27374
L25784 27318
L25784 27281
L25803 27225
L25821 27206
" />
<path d="M26140 26812
L26159 26831
L26178 26887
L26178 26925
L26159 26981
L26121 27018
L26084 27037
L26009 27056
L25953 27056
L25878 27037
L25840 27018
L25803 26981
L25784 26925
L25784 26887
L25803 26831
L25821 26812
" />
<g transform="rotate(-90 25000 27500)">
<text x="25000" y="27696.9"
textLength="845.426" font-size="524.934" lengthAdjust="spacingAndGlyphs"
text-anchor="middle" opacity="0">EN</text>
</g>
<path d="M24971 27790
L24971 27659
" />
<path d="M25178 27603
L25178 27790
L24784 27790
L24784 27603
" />
<path d="M25178 27434
L24784 27434
L25178 27209
L24784 27209
" />
<g transform="rotate(-90 50500 24500)">
<text x="50500" y="24696.9"
textLength="789.183" font-size="524.934" lengthAdjust="spacingAndGlyphs"
text-anchor="middle" opacity="0">A4</text>
</g>
<path d="M50565 24781
L50565 24593
" />
<path d="M50678 24818
L50284 24687
L50678 24556
" />
<path d="M50415 24256
L50678 24256
" />
<path d="M50265 24350
L50546 24443
L50546 24200
" />
<text x="51000" y="27196.9"
textLength="845.426" font-size="524.934" lengthAdjust="spacingAndGlyphs"
text-anchor="middle" opacity="0">C1</text>
<path d="M50934 27140
L50915 27159
L50859 27178
L50821 27178
L50765 27159
L50728 27121
L50709 27084
L50690 27009
L50690 26953
L50709 26878
L50728 26840
L50765 26803
L50821 26784
L50859 26784
L50915 26803
L50934 26821
" />
<path d="M51309 27178
L51084 27178
" />
<path d="M51196 27178
L51196 26784
L51159 26840
L51121 26878
L51084 26896
" />
<text x="56000" y="21196.9"
textLength="845.426" font-size="524.934" lengthAdjust="spacingAndGlyphs"
text-anchor="middle" opacity="0">C2</text>
<path d="M55934 21140
L55915 21159
L55859 21178
L55821 21178
L55765 21159
L55728 21121
L55709 21084
L55690 21009
L55690 20953
L55709 20878
L55728 20840
L55765 20803
L55821 20784
L55859 20784
L55915 20803
L55934 20821
" />
<path d="M56084 20821
L56103 20803
L56140 20784
L56234 20784
L56271 20803
L56290 20821
L56309 20859
L56309 20896
L56290 20953
L56065 21178
L56309 21178
" />
<text x="32000" y="15196.9"
textLength="845.426" font-size="524.934" lengthAdjust="spacingAndGlyphs"
text-anchor="middle" opacity="0">C3</text>
<path d="M31934 15140
L31915 15159
L31859 15178
L31821 15178
L31765 15159
L31728 15121
L31709 15084
L31690 15009
L31690 14953
L31709 14878
L31728 14840
L31765 14803
L31821 14784
L31859 14784
L31915 14803
L31934 14821
" />
<path d="M32065 14784
L32309 14784
L32178 14934
L32234 14934
L32271 14953
L32290 14971
L32309 15009
L32309 15103
L32290 15140
L32271 15159
L32234 15178
L32121 15178
L32084 15159
L32065 15140
" />
<text x="45500" y="15446.9"
textLength="845.426" font-size="524.934" lengthAdjust="spacingAndGlyphs"
text-anchor="middle" opacity="0">C4</text>
<path d="M45434 15390
L45415 15409
L45359 15428
L45321 15428
L45265 15409
L45228 15371
L45209 15334
L45190 15259
L45190 15203
L45209 15128
L45228 15090
L45265 15053
L45321 15034
L45359 15034
L45415 15053
L45434 15071
" />
<path d="M45771 15165
L45771 15428
" />
<path d="M45678 15015
L45584 15296
L45828 15296
" />
<text x="35500" y="13196.9"
textLength="751.687" font-size="524.934" lengthAdjust="spacingAndGlyphs"
text-anchor="middle" opacity="0">J1</text>
<path d="M35368 12784
L35368 13065
L35350 13121
L35312 13159
L35256 13178
L35218 13178
" />
<path d="M35762 13178
L35537 13178
" />
<path d="M35649 13178
L35649 12784
L35612 12840
L35574 12878
L35537 12896
" />
<text x="49000" y="13196.9"
textLength="751.687" font-size="524.934" lengthAdjust="spacingAndGlyphs"
text-anchor="middle" opacity="0">J2</text>
<path d="M48868 12784
L48868 13065
L48850 13121
L48812 13159
L48756 13178
L48718 13178
" />
<path d="M49037 12821
L49056 12803
L49093 12784
L49187 12784
L49224 12803
L49243 12821
L49262 12859
L49262 12896
L49243 12953
L49018 13178
L49262 13178
" />
<text x="56500" y="24425.2"
textLength="864.173" font-size="524.934" lengthAdjust="spacingAndGlyphs"
text-anchor="middle" opacity="0">U1</text>
<path d="M56200 24012
L56200 24331
L56218 24368
L56237 24387
L56275 24406
L56350 24406
L56387 24387
L56406 24368
L56425 24331
L56425 24012
" />
<path d="M56818 24406
L56593 24406
" />
<path d="M56706 24406
L56706 24012
L56668 24068
L56631 24106
L56593 24125
" />
<text x="25000" y="29696.9"
textLength="864.173" font-size="524.934" lengthAdjust="spacingAndGlyphs"
text-anchor="middle" opacity="0">H1</text>
<path d="M24700 29678
L24700 29284
" />
<path d="M24700 29471
L24925 29471
" />
<path d="M24925 29678
L24925 29284
" />
<path d="M25318 29678
L25093 29678
" />
<path d="M25206 29678
L25206 29284
L25168 29340
L25131 29378
L25093 29396
" />
<text x="47500" y="26196.9"
textLength="864.173" font-size="524.934" lengthAdjust="spacingAndGlyphs"
text-anchor="middle" opacity="0">H2</text>
<path d="M47200 26178
L47200 25784
" />
<path d="M47200 25971
L47425 25971
" />
<path d="M47425 26178
L47425 25784
" />
<path d="M47593 25821
L47612 25803
L47649 25784
L47743 25784
L47781 25803
L47799 25821
L47818 25859
L47818 25896
L47799 25953
L47574 26178
L47818 26178
" />
<text x="25000" y="12196.9"
textLength="864.173" font-size="524.934" lengthAdjust="spacingAndGlyphs"
text-anchor="middle" opacity="0">H3</text>
<path d="M24700 12178
L24700 11784
" />
<path d="M24700 11971
L24925 11971
" />
<path d="M24925 12178
L24925 11784
" />
<path d="M25074 11784
L25318 11784
L25187 11934
L25243 11934
L25281 11953
L25299 11971
L25318 12009
L25318 12103
L25299 12140
L25281 12159
L25243 12178
L25131 12178
L25093 12159
L25074 12140
" />
<text x="57500" y="12196.9"
textLength="864.173" font-size="524.934" lengthAdjust="spacingAndGlyphs"
text-anchor="middle" opacity="0">H4</text>
<path d="M57200 12178
L57200 11784
" />
<path d="M57200 11971
L57425 11971
" />
<path d="M57425 12178
L57425 11784
" />
<path d="M57781 11915
L57781 12178
" />
<path d="M57687 11765
L57593 12046
L57837 12046
" />
<text x="51000" y="29696.9"
textLength="751.687" font-size="524.934" lengthAdjust="spacingAndGlyphs"
text-anchor="middle" opacity="0">J3</text>
<path d="M50868 29284
L50868 29565
L50850 29621
L50812 29659
L50756 29678
L50718 29678
" />
<path d="M51018 29284
L51262 29284
L51131 29434
L51187 29434
L51224 29453
L51243 29471
L51262 29509
L51262 29603
L51243 29640
L51224 29659
L51187 29678
L51074 29678
L51037 29659
L51018 29640
" />
<g >
</g>
</g> 
</svg>
